<svg xmlns="http://www.w3.org/2000/svg" viewBox="0 0 460.3 450.2"><defs><style>.cls-1{fill:#f5f5f5;}.cls-2{fill:#e0e0e0;}.cls-3{fill:#fafafa;}.cls-4{fill:#ebebeb;}.cls-5{fill:#fff;}.cls-6{fill:#263238;}.cls-14,.cls-7{opacity:0.3;}.cls-8{fill:#455a64;}.cls-9{fill:#145d86;}.cls-10{fill:#6f4439;}.cls-11{fill:#ae7461;}.cls-12{fill:#ffbf9d;}.cls-13{fill:#ff9a6c;}</style></defs><g id="Layer_2" data-name="Layer 2"><g id="Character_1" data-name="Character 1"><path class="cls-1" d="M26.6,441.8c-1.3-1.1-4.3-4.7-2-8.9.8-1.5,2.6-2.3,4.2-2.9a18.3,18.3,0,0,0,4.6-2.4c2.5-2.1,3.2-5.7,4.8-8.5s5.5-5.7,9.2-5.5,7.9,3.7,9.5,7.7,1.7,8.4,1.7,12.7c.1,2.4,0,5.1-1.8,6.7s-4,1.5-6.2,1.5l-23.5-.7"/><path class="cls-2" d="M71.5,377.3H9.7l11.2,66.3a7.2,7.2,0,0,0,5.2,5.9h.2l.6.2H57.5a7.4,7.4,0,0,0,6.2-6.5l5.4-45.7.2-1.8h0l2.1-18.1ZM59.8,419.6H53.5l.6-19.3h7.4Zm2.3-19.3h6l-2.2,19.3H60.4ZM44,440.9l-.4-16.7h9.1l-.5,16.7Zm-9.9-16.7H43l.4,16.7h-8Zm.7,16.7H27.4c-.7-4.5-1.6-10.4-2.6-16.7h8.7Zm-1-21.3-1.5-19.3H42.4l.5,19.3Zm9.7,0-.4-19.3H53.5l-.6,19.3Zm-.6-23.9-.4-17.8H54.3l-.6,17.8Zm-.6,0H31.9l-1.4-17.8H41.9Zm-11,0h-11c-.4-2.5-.8-4.8-1.1-6.9-1.2-7.2-1.6-9.9-1.8-10.9H29.9Zm.4,4.6,1.5,19.3H24l-.9-6c-.7-4.5-1.4-9-2.1-13.3Zm-8.3,19.3H17.5l-3.3-19.3h6.2C21.3,406.3,22.4,412.9,23.4,419.6Zm.7,4.6c.9,5.8,1.8,11.5,2.7,16.7H21l-2.8-16.7Zm28.7,16.7.5-16.7h6.1L58,440.9Zm1.5-45.2.6-17.8h8.5l-1.5,17.8ZM16.8,377.9l2.8,17.8H13.5l-3-17.8Zm46.6,63H58.6L60,424.2h5.4Zm5.3-45.2H62.5L64,377.9h6.8Z"/><rect class="cls-3" x="363.5" y="95" width="83.2" height="74.44"/><path class="cls-2" d="M446.8,169.4a6,6,0,0,1-.1-1.3V149c-.1-13-.1-31.6-.1-54v.2H363.5l.3-.2c0,27.1,0,52.6-.1,74.4h-.3v-.2c-.1-21.8-.1-47.3-.1-74.4v-.2h83.6V95c0,22.4,0,41.1-.1,54.1v20.3Z"/><path class="cls-2" d="M395.5,108.2c0,.2-4.4.3-9.8.3s-9.8-.1-9.8-.3,4.4-.2,9.8-.2S395.5,108.1,395.5,108.2Z"/><path class="cls-2" d="M430.7,113.8c0,.1-12,.2-26.9.2s-26.8-.1-26.8-.2,12-.2,26.8-.2S430.7,113.7,430.7,113.8Z"/><rect class="cls-2" x="376" y="123.3" width="3.5" height="3.51"/><rect class="cls-2" x="384.7" y="123.3" width="3.5" height="3.51"/><rect class="cls-2" x="393.4" y="123.1" width="3.5" height="3.51"/><rect class="cls-2" x="401.9" y="123.3" width="3.5" height="3.51"/><rect class="cls-2" x="410.5" y="123.3" width="3.5" height="3.51"/><rect class="cls-2" x="419.2" y="123.3" width="3.5" height="3.51"/><rect class="cls-4" x="427.8" y="123.3" width="3.5" height="3.51"/><rect class="cls-4" x="376" y="130.7" width="3.5" height="3.51"/><rect class="cls-2" x="384.7" y="130.7" width="3.5" height="3.51"/><rect class="cls-4" x="393.3" y="130.7" width="3.5" height="3.51"/><rect class="cls-2" x="401.9" y="130.7" width="3.5" height="3.51"/><rect class="cls-2" x="410.5" y="130.7" width="3.5" height="3.51"/><rect class="cls-2" x="419.3" y="130.6" width="3.5" height="3.51"/><rect class="cls-2" x="427.8" y="130.7" width="3.5" height="3.51"/><rect class="cls-2" x="376" y="138.2" width="3.5" height="3.51"/><rect class="cls-2" x="384.8" y="138" width="3.5" height="3.51"/><rect class="cls-2" x="393.3" y="138.2" width="3.5" height="3.51"/><rect class="cls-4" x="401.9" y="138.2" width="3.5" height="3.51"/><rect class="cls-2" x="410.5" y="138.2" width="3.5" height="3.51"/><rect class="cls-2" x="419.2" y="138.2" width="3.5" height="3.51"/><rect class="cls-2" x="427.8" y="138.2" width="3.5" height="3.51"/><rect class="cls-2" x="376" y="145.6" width="3.5" height="3.51"/><rect class="cls-2" x="384.7" y="145.6" width="3.5" height="3.51"/><rect class="cls-2" x="393.3" y="145.6" width="3.5" height="3.51"/><rect class="cls-2" x="402.1" y="145.5" width="3.5" height="3.51"/><rect class="cls-2" x="410.5" y="145.6" width="3.5" height="3.51"/><rect class="cls-4" x="419.2" y="145.6" width="3.5" height="3.51"/><rect class="cls-2" x="427.8" y="145.6" width="3.5" height="3.51"/><rect class="cls-2" x="376" y="153.1" width="3.5" height="3.51"/><rect class="cls-4" x="384.7" y="153.1" width="3.5" height="3.51"/><rect class="cls-2" x="393.3" y="153.1" width="3.5" height="3.51"/><rect class="cls-2" x="401.9" y="153.1" width="3.5" height="3.51"/><rect class="cls-2" x="410.5" y="153.1" width="3.5" height="3.51"/><rect class="cls-2" x="419.3" y="152.9" width="3.5" height="3.51"/><rect class="cls-2" x="427.8" y="153.1" width="3.5" height="3.51"/><circle class="cls-2" cx="400.8" cy="42" r="30.3" transform="translate(295.7 431.1) rotate(-80.9)"/><circle class="cls-5" cx="401.1" cy="41.7" r="27.4"/><path class="cls-4" d="M373.4,40.1v2.7a4.9,4.9,0,0,0,.1,1.2,5.7,5.7,0,0,0,.1,1.3c0,.5.2,1,.2,1.6a29.2,29.2,0,0,0,2.6,7.5,26.6,26.6,0,0,0,6.5,8.2l1.1,1,1.2.9a14.8,14.8,0,0,1,1.3.8l1.4.8.7.4.8.3,1.5.7,1.5.5,1.7.5a34.3,34.3,0,0,0,3.4.6l1.8.2h1.8a2.7,2.7,0,0,0,.9,0h1l1.8-.2c1.3-.3,2.5-.4,3.8-.8l.9-.3.5-.2h.4l1.8-.8L414,66l.9-.5.8-.5a26,26,0,0,0,3.3-2.5l1.5-1.4.4-.4.3-.4.7-.8.7-.8.6-.8.6-.9.3-.4.3-.5c.3-.6.7-1.2,1-1.9l.9-1.9a27.7,27.7,0,0,0,2-8.6,28,28,0,0,0-.8-8.7c-.2-.7-.5-1.4-.7-2.1a16.7,16.7,0,0,0-.8-2l-.2-.5-.2-.5-.5-.9-.5-1-.6-.8-.5-.9-.3-.5-.3-.4a10.1,10.1,0,0,1-1.3-1.6,26.2,26.2,0,0,0-3-2.8l-.7-.7-.9-.6a9.1,9.1,0,0,0-1.6-1.1l-1.7-1-.4-.2-.5-.2-.9-.4a24.8,24.8,0,0,0-3.5-1.3l-1.9-.5-.9-.2h-.9l-1.8-.2h-1.8c-1.2-.1-2.3.1-3.5.1l-1.7.3-1.6.3-1.6.5-.8.2-.7.3-1.5.6-1.4.7-1.3.7-1.3.8a28.6,28.6,0,0,0-7.4,7.3,29.6,29.6,0,0,0-3.6,7.1c-.1.6-.3,1-.4,1.5l-.3,1.4-.3,1.1c0,.3-.1.7-.1,1s-.1.9-.2,1.3v0c0-.4.1-.8.1-1.4a2.5,2.5,0,0,0,.1-.9l.3-1.2.3-1.3c.1-.5.3-1,.4-1.5a27.7,27.7,0,0,1,3.5-7.2,29.3,29.3,0,0,1,7.5-7.4l1.3-.8,1.3-.7,1.4-.7,1.5-.6.8-.3.7-.2,1.6-.5,1.7-.3a10.1,10.1,0,0,1,1.7-.3,20,20,0,0,1,3.5-.2h1.8l1.8.2h1l.9.2,1.8.4a22,22,0,0,1,3.6,1.3l.9.4.5.2.4.3,1.8.9,1.6,1.2.8.6.8.6a41.1,41.1,0,0,1,3,2.9l1.3,1.7.3.4.3.4.6.9.6.9.5.9.5,1,.2.5.2.5a11.9,11.9,0,0,1,.8,2,17.2,17.2,0,0,0,.7,2.1,28.6,28.6,0,0,1,.8,8.8,29,29,0,0,1-2,8.7l-.9,2-1.1,1.9a.8.8,0,0,1-.2.4l-.3.5-.7.9-.6.8-.7.8-.7.8-.3.4-.4.4-1.5,1.5a39.8,39.8,0,0,1-3.3,2.4l-.9.6-.9.5-1.7.9-1.9.7-.5.2h-.4l-1,.3c-1.2.4-2.5.6-3.7.9h-5.6l-1.8-.2a21.7,21.7,0,0,1-3.5-.7l-1.6-.4-1.6-.6-1.5-.7-.8-.3-.7-.4-1.4-.8a6,6,0,0,1-1.3-.9l-1.2-.8-1.2-1a29.4,29.4,0,0,1-6.4-8.3,28.5,28.5,0,0,1-2.6-7.6,10.4,10.4,0,0,1-.2-1.5,7.1,7.1,0,0,1-.1-1.4,4.9,4.9,0,0,1-.1-1.2V40.5A1.6,1.6,0,0,0,373.4,40.1Z"/><path class="cls-2" d="M413.6,42.5H400.7v-2c0-4,0-7.6.1-10.2V27.4a10.9,10.9,0,0,0,.1-1.2,10.9,10.9,0,0,0,.1,1.2v3.1c.1,2.6.1,6.2.1,10.2v1.8l-.2-.2h12.7Z"/><path class="cls-2" d="M401,18.6a7,7,0,0,1,.2,2.3,7,7,0,0,1-.2,2.3,7,7,0,0,1-.2-2.3A7,7,0,0,1,401,18.6Z"/><path class="cls-2" d="M413.6,22.3a7,7,0,0,1-1.5,1.7c-.9.9-1.7,1.6-1.8,1.5a17.8,17.8,0,0,1,1.5-1.7C412.7,22.9,413.5,22.2,413.6,22.3Z"/><path class="cls-2" d="M420.9,30.3c.1.1-.8.7-1.9,1.3s-1.9,1.2-2,1.1a7.2,7.2,0,0,1,1.8-1.4A6,6,0,0,1,420.9,30.3Z"/><path class="cls-2" d="M425.2,42.3a17.3,17.3,0,0,1-3.1.1,18,18,0,0,1-3.2-.1,13.4,13.4,0,0,1,3.2-.2A12.9,12.9,0,0,1,425.2,42.3Z"/><path class="cls-2" d="M381.4,41.8a12.4,12.4,0,0,1-3,.2,11.7,11.7,0,0,1-3-.2h6Z"/><path class="cls-2" d="M384.5,50.7l-2.3,2.1a11,11,0,0,1-2.5,1.7,15.2,15.2,0,0,1,2.3-2A9.7,9.7,0,0,1,384.5,50.7Z"/><path class="cls-2" d="M392.1,57.6a14.8,14.8,0,0,1-1.5,2.6,16,16,0,0,1-1.6,2.6,9.5,9.5,0,0,1,1.3-2.8A13.6,13.6,0,0,1,392.1,57.6Z"/><path class="cls-2" d="M401,66.4a12.9,12.9,0,0,1-.2-3.1,13.4,13.4,0,0,1,.2-3.2,13.4,13.4,0,0,1,.2,3.2A12.9,12.9,0,0,1,401,66.4Z"/><path class="cls-2" d="M414.6,62.2a8.4,8.4,0,0,1-2.6-1.8,9.2,9.2,0,0,1-2.1-2.3,17.6,17.6,0,0,1,2.3,2.1A21.1,21.1,0,0,1,414.6,62.2Z"/><path class="cls-2" d="M421,55.3c-.1.1-1-.7-2.1-1.8s-1.9-2-1.8-2.1a10.6,10.6,0,0,1,2.1,1.8A10.6,10.6,0,0,1,421,55.3Z"/><path class="cls-2" d="M384.2,33.3c-.1.1-.9-.6-1.9-1.6a11.8,11.8,0,0,1-1.6-1.8c.1-.1.9.6,1.9,1.6A10.7,10.7,0,0,1,384.2,33.3Z"/><path class="cls-2" d="M392.1,25c-.1.1-.9-.6-1.8-1.5a9.7,9.7,0,0,1-1.6-1.8c.1-.1.9.6,1.8,1.5S392.2,24.9,392.1,25Z"/><path class="cls-1" d="M376.5,42a27.5,27.5,0,0,1,25.8-27.4h-1.6a27.5,27.5,0,0,0,0,54.9h1.6A27.4,27.4,0,0,1,376.5,42Z"/><rect class="cls-2" x="18.1" y="17.6" width="77.2" height="122.08"/><rect class="cls-1" x="20.2" y="19.9" width="72.8" height="117.78"/><rect class="cls-5" x="56.6" y="26.7" width="29" height="45.06"/><path class="cls-2" d="M72.7,30.7a1.1,1.1,0,1,1-1.1-1.1A1.1,1.1,0,0,1,72.7,30.7Z"/><rect class="cls-5" x="27.4" y="84.3" width="29" height="45.06"/><path class="cls-2" d="M43.4,88.3a1.1,1.1,0,0,1-1,1.1,1.1,1.1,0,1,1,0-2.2A1.1,1.1,0,0,1,43.4,88.3Z"/><rect class="cls-5" x="27" y="26.7" width="24.8" height="35.19"/><path class="cls-2" d="M40.3,29.9a.9.9,0,1,1-.9-.9A.9.9,0,0,1,40.3,29.9Z"/><rect class="cls-5" x="60.9" y="86.4" width="26.7" height="14.79" transform="translate(-10 8.9) rotate(-6.4)"/><path class="cls-2" d="M74.6,89.2a.9.9,0,1,1-.9-.9A.9.9,0,0,1,74.6,89.2Z"/><path class="cls-2" d="M52.5,94.6c0,.1-4.5.2-10.1.2s-10.2-.1-10.2-.2,4.5-.2,10.2-.2S52.5,94.5,52.5,94.6Z"/><path class="cls-2" d="M52.5,97.8c0,.1-4.5.2-10.1.2s-10.2-.1-10.2-.2,4.5-.2,10.2-.2S52.5,97.7,52.5,97.8Z"/><path class="cls-2" d="M52.5,101.1c0,.1-4.5.2-10.1.2s-10.2-.1-10.2-.2,4.5-.3,10.2-.3S52.5,100.9,52.5,101.1Z"/><path class="cls-2" d="M52.5,104.3c0,.1-4.5.2-10.1.2s-10.2-.1-10.2-.2,4.5-.2,10.2-.2S52.5,104.2,52.5,104.3Z"/><path class="cls-2" d="M52.5,107.5c0,.1-4.5.2-10.1.2s-10.2-.1-10.2-.2,4.5-.2,10.2-.2S52.5,107.4,52.5,107.5Z"/><path class="cls-2" d="M52.5,110.7c0,.1-4.5.2-10.1.2s-10.2-.1-10.2-.2,4.5-.2,10.2-.2S52.5,110.6,52.5,110.7Z"/><path class="cls-2" d="M52.5,113.9c0,.2-4.5.3-10.1.3s-10.2-.1-10.2-.3,4.5-.2,10.2-.2S52.5,113.8,52.5,113.9Z"/><path class="cls-2" d="M84.1,91.1c.1.2-4.4.9-10,1.7S64,94.1,64,94s4.5-.9,10-1.6Z"/><path class="cls-2" d="M84.5,93.2c.1.1-4.4.8-10,1.6S64.4,96.1,64.4,96l10-1.6C80,93.6,84.5,93,84.5,93.2Z"/><path class="cls-2" d="M84.9,95c0,.1-4.5.9-10,1.7S64.8,98,64.7,97.9s4.5-.9,10.1-1.7Z"/><path class="cls-2" d="M83.1,36.2c0,.1-5.1.2-11.5.2s-11.5-.1-11.5-.2,5.2-.3,11.5-.3S83.1,36,83.1,36.2Z"/><path class="cls-2" d="M83.1,38.1c0,.1-5.1.2-11.5.2s-11.5-.1-11.5-.2,5.2-.2,11.5-.2S83.1,38,83.1,38.1Z"/><path class="cls-2" d="M83.1,40c0,.1-5.1.2-11.5.2s-11.5-.1-11.5-.2,5.2-.2,11.5-.2S83.1,39.9,83.1,40Z"/><path class="cls-2" d="M83.1,41.9c0,.1-5.1.2-11.5.2s-11.5-.1-11.5-.2,5.2-.2,11.5-.2S83.1,41.8,83.1,41.9Z"/><path class="cls-2" d="M83.1,43.8c0,.1-5.1.2-11.5.2s-11.5-.1-11.5-.2,5.2-.2,11.5-.2S83.1,43.7,83.1,43.8Z"/><path class="cls-2" d="M83.1,45.7c0,.2-5.1.3-11.5.3s-11.5-.1-11.5-.3,5.2-.2,11.5-.2S83.1,45.6,83.1,45.7Z"/><path class="cls-2" d="M83.1,47.7c0,.1-5.1.2-11.5.2s-11.5-.1-11.5-.2,5.2-.3,11.5-.3S83.1,47.5,83.1,47.7Z"/><path class="cls-2" d="M83.1,53.3c0,.2-5.1.3-11.5.3s-11.5-.1-11.5-.3,5.2-.2,11.5-.2S83.1,53.2,83.1,53.3Z"/><path class="cls-2" d="M83.3,55.4c0,.1-5.2.2-11.5.2s-11.5-.1-11.5-.2,5.1-.2,11.5-.2S83.3,55.2,83.3,55.4Z"/><path class="cls-2" d="M83.4,57.4c0,.1-5.1.2-11.5.2s-11.5-.1-11.5-.2,5.2-.2,11.5-.2S83.4,57.3,83.4,57.4Z"/><path class="cls-2" d="M83.6,59.4c0,.1-5.1.2-11.5.2s-11.5-.1-11.5-.2,5.1-.2,11.5-.2S83.6,59.3,83.6,59.4Z"/><path class="cls-2" d="M83.8,61.4c0,.2-5.2.3-11.5.3s-11.5-.1-11.5-.3,5.1-.2,11.5-.2S83.8,61.3,83.8,61.4Z"/><path class="cls-2" d="M83.9,63.5c0,.1-5.1.2-11.5.2s-11.5-.1-11.5-.2,5.2-.3,11.5-.3S83.9,63.3,83.9,63.5Z"/><path class="cls-6" d="M460.3,449.9c0,.1-103.1.3-230.1.3S0,450,0,449.9s103-.3,230.2-.3S460.3,449.8,460.3,449.9Z"/><rect class="cls-2" x="117" y="19.6" width="228.6" height="324.47" rx="9.2"/><path class="cls-6" d="M336.4,344h.7a6.8,6.8,0,0,0,2.1-.4,12.7,12.7,0,0,0,3-1.6,10.9,10.9,0,0,0,2.8-3.9,11.5,11.5,0,0,0,.6-2.8V306.5c-.1-27.6-.1-67.5-.1-116.9V109c-.1-14.5-.1-29.5-.1-45V28.5a9,9,0,0,0-2-5.4,9.1,9.1,0,0,0-5-3.1,15.1,15.1,0,0,0-3-.2H126.3a9.1,9.1,0,0,0-9,8.6c-.1,4.6,0,9.3,0,13.9v81.9c-.1,35.5-.1,69.7-.1,102.3V335.2a9.3,9.3,0,0,0,1.7,4.8,10,10,0,0,0,3.9,3.2,10.2,10.2,0,0,0,2.5.6h-.1l-2.5-.7a9.4,9.4,0,0,1-4.1-3.3,8.8,8.8,0,0,1-1.7-5c-.1-1.8,0-3.5,0-5.3V319.1c-.1-29-.1-60-.1-92.6V28.3a9,9,0,0,1,3-6.3,8.8,8.8,0,0,1,6.5-2.6H335.4a16.2,16.2,0,0,1,3.1.2,9.8,9.8,0,0,1,5.2,3.2,9.3,9.3,0,0,1,2.1,5.7V189.6c0,49.4-.1,89.3-.1,116.9v28.8a8.8,8.8,0,0,1-.7,2.9,8.6,8.6,0,0,1-2.8,3.8,7.4,7.4,0,0,1-3,1.6,6.8,6.8,0,0,1-2.1.4Z"/><g class="cls-7"><polygon points="137 336.7 328.8 336.7 326.7 296.8 326.7 275.6 137 305.2 137 336.7"/></g><g class="cls-7"><polygon points="289 20.2 293.4 33.2 293.4 39.5 288.5 39.5 289 20.2"/></g><polygon class="cls-5" points="127.2 32.6 127.2 330.6 282.7 330.6 335.4 330.6 335.4 32.6 127.2 32.6"/><path class="cls-6" d="M335.4,277.3V259.6c0-11.5-.1-28.5-.1-49.9,0-43,0-104.2-.1-177.1l.2.2H127.2l.3-.2v.2c-.1,114.6-.1,219.3-.1,297.8h-.3v-.2c-.1-78.5-.1-183.2-.1-297.8v-.4H335.6V209.7c-.1,21.4-.1,38.4-.1,49.9v16.6A5,5,0,0,1,335.4,277.3Z"/><path class="cls-6" d="M190,11.5h92.7a6.3,6.3,0,0,1,6.3,6.3V42a0,0,0,0,1,0,0H183.7a0,0,0,0,1,0,0V17.8A6.3,6.3,0,0,1,190,11.5Z"/><polygon class="cls-6" points="249.8 0 222.9 0 226.1 23 246.3 23 249.8 0"/><path class="cls-8" d="M282.3,11.5c0,.1-20.6.2-46,.2s-45.9-.1-45.9-.2,20.6-.2,45.9-.2S282.3,11.4,282.3,11.5Z"/><path class="cls-8" d="M186,37.1c-.1,0-.2-4.3-.2-9.6s.1-9.7.2-9.7.2,4.3.2,9.7S186.2,37.1,186,37.1Z"/><path class="cls-8" d="M285.6,34.8c-.1,0-.2-3.9-.2-8.7s.1-8.8.2-8.8.2,3.9.2,8.8S285.7,34.8,285.6,34.8Z"/><path class="cls-8" d="M280.5,38.9c0,.1-21.1.2-47.1.2s-47.1-.1-47.1-.2,21.1-.2,47.1-.2S280.5,38.8,280.5,38.9Z"/><rect class="cls-2" x="194.1" y="89.8" width="115" height="7.07"/><rect class="cls-2" x="194.1" y="104.2" width="52.2" height="7.02"/><rect class="cls-9" x="155.8" y="86.8" width="26.6" height="26.59" rx="3.9"/><polygon class="cls-5" points="168.7 106.4 161.3 100.6 163.3 98 168.3 101.9 175.4 93.7 177.9 95.9 168.7 106.4"/><rect class="cls-2" x="194.1" y="133.5" width="115" height="7.07"/><rect class="cls-2" x="194.1" y="148" width="52.2" height="7.02"/><rect class="cls-9" x="155.8" y="130.5" width="26.6" height="26.59" rx="3.9"/><polygon class="cls-5" points="168.7 150.1 161.3 144.4 163.3 141.8 168.3 145.6 175.4 137.5 177.9 139.6 168.7 150.1"/><rect class="cls-2" x="194.1" y="180.4" width="115" height="7.07"/><rect class="cls-2" x="194.1" y="194.9" width="52.2" height="7.02"/><rect class="cls-2" x="194.1" y="223.8" width="115" height="7.07"/><rect class="cls-2" x="194.1" y="238.2" width="52.2" height="7.02"/><rect class="cls-9" x="155.8" y="177.4" width="26.6" height="26.59" rx="3.9"/><polygon class="cls-5" points="168.7 197 161.3 191.3 163.3 188.7 168.3 192.5 175.4 184.4 177.9 186.5 168.7 197"/><path class="cls-9" d="M178.9,249H159.3a3.8,3.8,0,0,1-3.9-3.9V225.5a3.9,3.9,0,0,1,3.9-4h19.6a3.9,3.9,0,0,1,3.9,4v19.6A3.8,3.8,0,0,1,178.9,249Zm-19.6-26.6a3,3,0,0,0-3,3.1v19.6a2.9,2.9,0,0,0,3,3h19.6a2.9,2.9,0,0,0,3-3V225.5a3,3,0,0,0-3-3.1Z"/><rect class="cls-2" x="194.1" y="273.4" width="115" height="7.07"/><rect class="cls-2" x="194.1" y="287.8" width="52.2" height="7.02"/><path class="cls-9" d="M178.9,298.6H159.3a3.9,3.9,0,0,1-3.9-3.9V275.1a3.9,3.9,0,0,1,3.9-4h19.6a3.9,3.9,0,0,1,3.9,4v19.6A3.9,3.9,0,0,1,178.9,298.6ZM159.3,272a3,3,0,0,0-3,3.1v19.6a3,3,0,0,0,3,3h19.6a3,3,0,0,0,3-3V275.1a3,3,0,0,0-3-3.1Z"/><rect class="cls-9" x="180.3" y="62.4" width="114.6" height="9.82"/><path class="cls-6" d="M200,426.3s-3.4-23.7-3.1-37.5,0-29.3,0-29.3h1.5s-1,27.4.1,43.9,4.3,22.9,4.3,22.9H200"/><path class="cls-8" d="M210.3,332.8a4.2,4.2,0,0,0-1.4-2.2,4.3,4.3,0,0,0-3.5.1c-4.8,1.7-9.1,10.6-11,15.3l6.4,21.5C212.3,356.8,214.3,342.8,210.3,332.8Z"/><path class="cls-6" d="M208.5,331.5a.8.8,0,0,1-.1.3,3.4,3.4,0,0,0-.3.8l-1.2,2.8c-.9,2.5-2.1,5.9-3.2,9.7s-1.8,7.4-2.2,10-.4,2.3-.5,3.1-.1.6-.2.8v0a2.5,2.5,0,0,1,.1-.8c.1-.8.2-1.8.4-3.1a81.4,81.4,0,0,1,2.2-10,89.1,89.1,0,0,1,3.3-9.7l1.2-2.9a4.3,4.3,0,0,1,.4-.7A.4.4,0,0,1,208.5,331.5Z"/><path class="cls-8" d="M197.9,372.7a19.5,19.5,0,0,1-9.8-16.4c-.2-4.7,1.3-9.4,2.9-13.9.2-.4.3-.8.7-1s1.1,0,1.6.2c4.4,2.5,7,7.2,8.4,12a25.6,25.6,0,0,1,1,9.9,16.5,16.5,0,0,1-4.8,9.2"/><path class="cls-6" d="M197.9,372.7v-1.1c0-.8,0-1.8-.1-3.1a74.1,74.1,0,0,0-1.1-9.9c-.7-3.8-1.5-7.3-2.1-9.8a24.9,24.9,0,0,0-.7-2.9c0-.4-.1-.6-.1-.8v-.3a.3.3,0,0,1,.1.2c.1.3.1.5.2.8s.5,1.7.8,3,1.5,5.9,2.2,9.8a89.1,89.1,0,0,1,1,9.9v3.9C198,372.6,198,372.7,197.9,372.7Z"/><g class="cls-7"><path d="M197.9,372.7a19.5,19.5,0,0,1-9.8-16.4c-.2-4.7,1.3-9.4,2.9-13.9.2-.4.3-.8.7-1s1.1,0,1.6.2c4.4,2.5,7,7.2,8.4,12a25.6,25.6,0,0,1,1,9.9,16.5,16.5,0,0,1-4.8,9.2"/></g><path class="cls-8" d="M204.7,409c5.9,1.3,10.7,5.4,16.4,7.4,3.8,1.4,8,1.8,11,4.5a9,9,0,0,0-4.1-4.1,70.4,70.4,0,0,0-14.9-7.1c-2.6-.9-5.5-1.7-8.2-.9"/><path class="cls-8" d="M196.2,414.2c-7.4-.1-15.1-6.4-22.5-6.7,7.7-2.5,18.7-.5,22.5,6.7"/><path class="cls-8" d="M199.1,396.5a24.4,24.4,0,0,1,11.7-.8,72.3,72.3,0,0,1,11.5,3.2c-.3-2.6-2.4-4.5-4.3-6.2a32.5,32.5,0,0,0-4.7-3.6,10.6,10.6,0,0,0-5.5-1.5,8.7,8.7,0,0,0-6.1,3.1,9.1,9.1,0,0,0-2.6,5.8"/><path class="cls-8" d="M183.9,388.4c-4.6-4-11.6-3.6-17.7-3.4a147,147,0,0,1,27.5,17.1C194,397.8,189.8,393.4,183.9,388.4Z"/><g class="cls-7"><path d="M183.9,388.4c-4.6-4-11.6-3.6-17.7-3.4a147,147,0,0,1,27.5,17.1C194,397.8,189.8,393.4,183.9,388.4Z"/></g><path class="cls-8" d="M201.2,382.9a50.3,50.3,0,0,1,7.1-4.1c2.4-1.1,4.7-2.9,7.1-4.2a69,69,0,0,0,8.5-6c2.8-2,5.9-3.9,9.3-4.4a17.6,17.6,0,0,0-8.5.5,48.9,48.9,0,0,0-8,3.1c-3.6,1.6-7.3,3.3-10.2,5.9s-5.7,5.3-5.3,9.2"/><path class="cls-6" d="M221,414.2h-.3l-.6-.3-2.4-1.2-1.6-.9-1.9-.8a27.5,27.5,0,0,0-4.6-1.6,9.4,9.4,0,0,0-4.7-.1,6.6,6.6,0,0,0-2,.6,8,8,0,0,0-1.6.8,7.2,7.2,0,0,0-2,1.7,3.6,3.6,0,0,0-.7.7.3.3,0,0,1,.1-.2l.5-.6a9.3,9.3,0,0,1,2-1.8,8,8,0,0,1,1.6-.8,10.3,10.3,0,0,1,2.1-.7,9.8,9.8,0,0,1,4.8.1,27.5,27.5,0,0,1,4.6,1.6l1.9.9,1.6.9,2.3,1.3.7.4Z"/><path class="cls-6" d="M190.7,410.6h.4l1.3.5a23.8,23.8,0,0,1,3.5,2.5,16.2,16.2,0,0,1,2.6,3.4,6.6,6.6,0,0,1,.6,1.2,1.8,1.8,0,0,1,.1.5l-.9-1.6a16,16,0,0,0-2.6-3.3,19.3,19.3,0,0,0-3.4-2.5Z"/><path class="cls-6" d="M174.4,388h.3l.9.3,1.4.6,1.8.8a42.6,42.6,0,0,1,9.6,6.1,30.5,30.5,0,0,1,4.4,4.4,32.8,32.8,0,0,1,3.2,4,27.2,27.2,0,0,1,1.9,2.9l.5.8.2.2-.2-.2-.5-.8c-.5-.6-1.2-1.6-2-2.8l-3.2-4a46.7,46.7,0,0,0-4.5-4.3,47.2,47.2,0,0,0-9.5-6.2l-1.8-.8-1.4-.6-.8-.3Z"/><path class="cls-6" d="M210.1,392.4H208a9.1,9.1,0,0,0-5.1,1,10.6,10.6,0,0,0-2.3,1.7,8.3,8.3,0,0,0-1.5,1.9,11.4,11.4,0,0,0-1,1.9,2.8,2.8,0,0,1,.1-.6c.2-.3.4-.9.7-1.4a12.5,12.5,0,0,1,1.5-1.9,7.6,7.6,0,0,1,2.4-1.8,9.4,9.4,0,0,1,5.2-1l.9.2h.7Z"/><path class="cls-6" d="M217.5,369.4l-.2.2-.9.4-3,1.7c-1.2.8-2.7,1.7-4.2,2.8a29.1,29.1,0,0,0-4.8,4,11.6,11.6,0,0,0-2,2.5c-.4,1-.9,1.8-1.3,2.7a36.3,36.3,0,0,0-2.1,4.7,27.5,27.5,0,0,0-1,3.3,4.8,4.8,0,0,0-.2,1.2c-.1,0,0-.1,0-.3s.1-.6.1-1a34.3,34.3,0,0,1,1-3.3,25.3,25.3,0,0,1,2-4.7c.4-.9.8-1.8,1.3-2.7a12.1,12.1,0,0,1,2-2.6,40.6,40.6,0,0,1,4.8-4l4.3-2.7,3.1-1.7a2,2,0,0,0,.8-.4Z"/><path class="cls-6" d="M196.9,391.7c-.1,0-.1-.2-.2-.6s-.2-1-.3-1.7a49.5,49.5,0,0,0-1.4-5.5,53.2,53.2,0,0,0-2.1-5.3l-.7-1.6-.3-.6c.1,0,.2.2.4.6l.8,1.5a50.7,50.7,0,0,1,2.2,5.3c.6,2.1,1,4.1,1.3,5.6a14.9,14.9,0,0,1,.2,1.7A2.8,2.8,0,0,1,196.9,391.7Z"/><path class="cls-8" d="M196.3,375a20.6,20.6,0,0,0-2.4-8,26,26,0,0,0-17.8-13.3l16.5,24.6,2.1,4.4A12.1,12.1,0,0,0,196.3,375Z"/><rect class="cls-9" x="181.6" y="423.4" width="38.3" height="6.79"/><polygon class="cls-9" points="184.5 428.8 187.8 449.9 213.2 449.9 217.1 428.8 184.5 428.8"/><path class="cls-6" d="M220,430.2c0,.1-8.7.1-19.4.1s-19.3,0-19.3-.1,8.7-.2,19.3-.2S220,430.1,220,430.2Z"/><path class="cls-5" d="M361.7,187.1l-2-4.8a19.7,19.7,0,0,0,0-12,19.9,19.9,0,1,0-15.2,25.5,19.4,19.4,0,0,0,11.8-7.2h0Z"/><path class="cls-6" d="M361.7,187.1l-.3.2-1,.3-4.1,1.1h.1a20.3,20.3,0,0,1-7.6,5.9,22.5,22.5,0,0,1-6.2,1.7,20,20,0,0,1-7.2-.7,18.1,18.1,0,0,1-7.2-3.6,20.2,20.2,0,0,1-5.5-6.7,20.8,20.8,0,0,1-2.1-8.9,19.4,19.4,0,0,1,2.2-9.4,20.3,20.3,0,0,1,6.5-7.4,20.6,20.6,0,0,1,8.7-3.3,19.5,19.5,0,0,1,8.7.8,21.3,21.3,0,0,1,7.1,3.9,20.3,20.3,0,0,1,4.6,5.7l.7,1.5.6,1.6a16.7,16.7,0,0,1,.8,3,20.6,20.6,0,0,1-.7,9.6h0l1.4,3.6.4.9v0l-.5-.9c-.3-.8-.8-2-1.5-3.5h0a20.2,20.2,0,0,0,.6-9.5,18.2,18.2,0,0,0-.8-2.9l-.6-1.5-.7-1.5a20.1,20.1,0,0,0-20-10.2,20.7,20.7,0,0,0-8.5,3.3,20.3,20.3,0,0,0-8.6,16.4,21,21,0,0,0,2.1,8.7,18.5,18.5,0,0,0,5.4,6.6,21.2,21.2,0,0,0,7,3.6,21.6,21.6,0,0,0,7.1.6,22.7,22.7,0,0,0,6.1-1.5,19.7,19.7,0,0,0,7.5-5.8h.1l4-1.1,1-.3Z"/><circle class="cls-6" cx="333.9" cy="176.8" r="2.2"/><path class="cls-6" d="M343.4,176.8a2.2,2.2,0,0,1-2.2,2.2,2.2,2.2,0,0,1,0-4.4A2.2,2.2,0,0,1,343.4,176.8Z"/><circle class="cls-6" cx="348.4" cy="176.8" r="2.2"/><path class="cls-5" d="M97.1,146l.9-5.5a18.9,18.9,0,0,1,17.1-28.3,18.9,18.9,0,0,1-1.3,37.8,18.2,18.2,0,0,1-11.4-4.3h0Z"/><path class="cls-6" d="M97.1,146h1.3l4-.2h-.1a18.4,18.4,0,0,0,8.3,4.1,13.6,13.6,0,0,0,2.9.3h3.2a18.8,18.8,0,0,0,12.5-6.8,20.8,20.8,0,0,0,3.8-7.4,20.1,20.1,0,0,0,.1-8.8,25.4,25.4,0,0,0-1.5-4.4,33,33,0,0,0-2.6-3.9,17.3,17.3,0,0,0-3.5-3.1,14.1,14.1,0,0,0-4-2.2,18.5,18.5,0,0,0-8.6-1.3,18.7,18.7,0,0,0-7.8,2.4,18.9,18.9,0,0,0-5.8,5,19.2,19.2,0,0,0-3.9,12.2,18.4,18.4,0,0,0,2.5,8.8h0c-.3,1.8-.5,3.2-.6,4.1l-.2,1.1c0,.2-.1.4,0,.3v-.3c.1-.3.1-.6.2-1.1s.5-2.3.8-4.1h0a17.1,17.1,0,0,1-2.4-8.8,18.6,18.6,0,0,1,3.9-11.9,17.9,17.9,0,0,1,5.6-4.9,18.2,18.2,0,0,1,7.7-2.3,17.9,17.9,0,0,1,8.5,1.3,14.7,14.7,0,0,1,3.9,2.1,19.9,19.9,0,0,1,3.4,3.1,19.2,19.2,0,0,1,2.5,3.8,21.9,21.9,0,0,1,1.5,4.3,19.2,19.2,0,0,1-.1,8.6,18.3,18.3,0,0,1-3.7,7.2,16.6,16.6,0,0,1-5.8,4.8,17.5,17.5,0,0,1-6.5,2h-3.1l-2.9-.4a18.5,18.5,0,0,1-8.2-3.9h0l-4,.3H97.1Z"/><polygon class="cls-9" points="106.3 132.4 108.3 130.3 112.4 133.9 120.3 126.3 122.2 128.4 112.1 137.9 106.3 132.4"/><path class="cls-8" d="M441.6,350.5v-.7c.2-4.5-1.6-8.8-3.4-13-4.7-11.1-9.2-22.9-7.9-34.9,1.7-15.9,13.4-29,17.6-44.4a4.1,4.1,0,0,1,4-3h0a4.1,4.1,0,0,1,4,5.4c-4.7,14.4-15.2,26.9-16.9,42-1.3,12,3.2,23.8,8,34.9,1.7,4.2,3.5,8.5,3.3,13s-3.1,9.2-7.5,9.9H376.5a4.1,4.1,0,0,1-4.2-4.1v-1a4.1,4.1,0,0,1,4.2-4.1Z"/><path class="cls-2" d="M454.9,449.9H358.7a4.5,4.5,0,0,1-3.5-1.8,5.5,5.5,0,0,1-.7-4.7l27.4-83.9,1.4.5L356,443.9a3.8,3.8,0,0,0,.4,3.3,2.8,2.8,0,0,0,2.3,1.2h96.2a2.9,2.9,0,0,0,2.2-1.1,3.6,3.6,0,0,0,.5-3.2l-23.5-84.2,1.5-.4,23.5,84.2a5.5,5.5,0,0,1-.8,4.5A4.4,4.4,0,0,1,454.9,449.9Z"/><path class="cls-10" d="M319.9,297.5s3.5-8.5,7-10.3a40.4,40.4,0,0,1,7.9-2.9h15.4v9.9A6.5,6.5,0,0,1,345,296c-3-.4-10.6-2.3-10.6-2.3l-3.8.2-3.4,4.5s-2.9.8-1.9-1.8,1.5-3.9,1.5-3.9-3.4,5.2-4.6,5.5A3.1,3.1,0,0,1,319.9,297.5Z"/><path class="cls-11" d="M383.6,265.4,371.4,283l-21.2,1.3-.3,9.6,15.9,3.2a26,26,0,0,0,23-6.8h0l2.3-21.4Z"/><path class="cls-6" d="M374.1,411.7l14.3,14s-10.3,19.8-8,22.7l29.8-28-21.3-22.7Z"/><path class="cls-2" d="M396.4,415.8a1.6,1.6,0,0,1,2.1.5,1.6,1.6,0,0,1-2.8,1.5,1.7,1.7,0,0,1,.9-2.1"/><path class="cls-8" d="M410.2,420.4l-2.2-2.2-27.7,27.7s-.8,1.8.1,2.5Z"/><path class="cls-5" d="M387.7,426c.2.1,1-.5,2.1-.7s2.1,0,2.1-.2-.8-.8-2.2-.5S387.6,425.9,387.7,426Z"/><path class="cls-5" d="M385.8,430.1c.1.2.9-.2,2,0s1.7.6,1.9.4-.5-1-1.8-1.1S385.7,430,385.8,430.1Z"/><path class="cls-5" d="M387.3,435.3c.2-.1-.2-.9-1.3-1.3s-2.1-.1-2,.1.8.2,1.7.5S387.2,435.5,387.3,435.3Z"/><path class="cls-5" d="M384.9,422.4c.2.1.6-.7,1.5-1.4s1.8-1.1,1.7-1.3-1.1-.1-2.1.8S384.7,422.4,384.9,422.4Z"/><path class="cls-6" d="M375.8,312.4c-2.6,0-66.1,18.5-73,24.7s-12,83.7-12,83.7l26.6,9.1s5.6-37.8,9-50a63.1,63.1,0,0,0,2.1-18.8l52.7-22.9Z"/><path class="cls-6" d="M377.4,316.4c-1.2.6-47.3,20.3-51.7,33.5-3.5,10.7.6,20.2,5.5,27.6s46.5,45.6,46.5,45.6l23-16.4-39.5-40.9S381.9,353,382.7,353s22.2-1.4,29.1-2.2,9.9-9.9,9.9-9.9l5.6-26.2-42.7-9.9Z"/><path class="cls-8" d="M377.4,316.4l.4-.7,1.4-2.3,5.3-8.6h.1l42.8,9.8h.1c-1.7,7.9-3.6,16.8-5.7,26.3h0a24.2,24.2,0,0,1-4.1,6.6,13.1,13.1,0,0,1-3.1,2.5l-.9.4a2.9,2.9,0,0,1-1,.3l-1,.2h-1l-16.8,1.3-8.7.6-2.2.2h-.4a.1.1,0,0,0-.1.1l-.5.2-1,.5-3.9,2.3L361.3,366v-.3l30.9,31.9,8.7,8.9v.2h-.1l-23.1,16.5h-.3l-23.7-22.2c-3.7-3.6-7.4-7.1-10.9-10.7s-7-6.9-10-10.5l-1.1-1.4-1.1-1.5-1.8-2.9a38.1,38.1,0,0,1-2.8-6.2,30,30,0,0,1-1.6-6.4,27.5,27.5,0,0,1-.1-6.4,22.2,22.2,0,0,1,1.5-5.9,17.2,17.2,0,0,1,3.4-4.9,60.7,60.7,0,0,1,8.5-7,169.1,169.1,0,0,1,16.1-9.6c4.9-2.6,9.1-4.7,12.6-6.4l8.1-3.6,2.1-1,.7-.3-.7.4-2.1.9-8,3.8q-5.2,2.4-12.6,6.3a171.8,171.8,0,0,0-16.1,9.7,60,60,0,0,0-8.4,7,18.2,18.2,0,0,0-3.4,4.8,22.1,22.1,0,0,0-1.4,5.9,26.7,26.7,0,0,0,.1,6.3,29.1,29.1,0,0,0,1.6,6.3,37.1,37.1,0,0,0,2.8,6.1l1.8,3,1,1.4,1.1,1.3c3.1,3.6,6.5,7.1,10,10.6l11,10.7c7.5,7.1,15.4,14.5,23.7,22.1h-.2l23-16.5v.3l-8.7-9-30.8-31.9h0c5.4-3.4,10.7-6.6,15.9-9.7l3.9-2.3.9-.5.6-.3h2.8l8.7-.6,16.7-1.3a10.2,10.2,0,0,0,3.9-1,14.2,14.2,0,0,0,3-2.5,23.7,23.7,0,0,0,4-6.4h0c2.1-9.5,4-18.4,5.7-26.3v.2l-42.8-9.9h.1l-5.4,8.7-1.3,2.2Z"/><path class="cls-6" d="M381.6,190.2a4.4,4.4,0,0,1-5-2.9A4.6,4.6,0,0,1,379,182a4.6,4.6,0,0,1-1.2-5.1,4.7,4.7,0,0,1,4.5-2.8A5.4,5.4,0,0,1,390,169a6.1,6.1,0,0,1,7.4-.8,4.5,4.5,0,0,1,4.8,1.8,4.5,4.5,0,0,1-.4,5.2"/><path class="cls-11" d="M398.7,172.4h-.9A18.3,18.3,0,0,0,381,190.9c.1,8.9.3,18.7.7,23.5,1,9.8,11,10.4,11,10.4l.2,11.9,23.8-2.9L415,190.9C415,180.6,409,172.1,398.7,172.4Z"/><path class="cls-10" d="M392.7,224.8a23.8,23.8,0,0,0,12.4-4.9s-2.5,7.5-12.4,7.5Z"/><path class="cls-6" d="M384.6,200a1.4,1.4,0,0,0,1.4,1.3,1.4,1.4,0,0,0,1.4-1.4,1.5,1.5,0,0,0-1.5-1.3A1.3,1.3,0,0,0,384.6,200Z"/><path class="cls-6" d="M383.5,195.5c.2.2,1.2-.7,2.7-.8s2.7.5,2.9.3-.2-.4-.7-.7a3.8,3.8,0,0,0-4.4.4A1.5,1.5,0,0,0,383.5,195.5Z"/><path class="cls-6" d="M398.1,199.2a1.4,1.4,0,0,0,1.5,1.3,1.2,1.2,0,0,0,1.3-1.4,1.4,1.4,0,0,0-1.5-1.3A1.4,1.4,0,0,0,398.1,199.2Z"/><path class="cls-6" d="M398.4,194.5a18.8,18.8,0,0,1,2.7-.9c1.5-.1,2.7.6,2.8.4s-.1-.4-.6-.7a3.3,3.3,0,0,0-2.3-.5,3.4,3.4,0,0,0-2.1.9C398.4,194.1,398.3,194.4,398.4,194.5Z"/><path class="cls-6" d="M393.9,206.1l-2.5-.2c-.4,0-.7,0-.8-.3a2.2,2.2,0,0,1,.1-1.1l.9-3.1c1.2-4.3,2.1-7.8,1.9-7.9s-1.3,3.4-2.5,7.7l-.9,3.1a1.9,1.9,0,0,0,0,1.5.8.8,0,0,0,.7.5h.6Z"/><path class="cls-6" d="M396.6,188.8c.2.4,1.5-.2,3-.4s3,0,3.1-.4-.3-.5-.9-.8a5.6,5.6,0,0,0-2.4-.3,4.4,4.4,0,0,0-2.2.9C396.7,188.2,396.5,188.6,396.6,188.8Z"/><path class="cls-6" d="M382.9,189.3c.4.3,1.6-.2,3.1-.3s2.8,0,3-.4-.1-.5-.7-.8a5.4,5.4,0,0,0-4.9.6C382.9,188.8,382.8,189.1,382.9,189.3Z"/><path class="cls-6" d="M381.6,186.3s2-6.4,4.8-8.1,5.4,1.8,8.7.5,6.6-3.2,10.3-.9,2.5,4.8,3.1,9.1c2.6,17.6,6.2,22.3,6.4,13.9,0-.9,2.5-1.9,2.5-5.8s-.3-11.1-1.7-14.5-3.1-4.8-6.4-6.8c-5.1-3.2-11.7-2.7-16.2-1.8S380.5,178.6,381.6,186.3Z"/><path class="cls-11" d="M414.2,200.6a2.7,2.7,0,0,1,2.7-2.8c1.8,0,4,.8,4.2,4.6.4,6.8-6.5,5.7-6.5,5.6S414.4,203.4,414.2,200.6Z"/><path class="cls-10" d="M415.9,205.3l.4.2h.8a2.8,2.8,0,0,0,1.2-2.7,4.7,4.7,0,0,0-.4-1.7,1.2,1.2,0,0,0-.9-.8.6.6,0,0,0-.7.3c-.1.2,0,.4-.1.4a.6.6,0,0,1-.1-.4.5.5,0,0,1,.3-.4.7.7,0,0,1,.6-.3c.5,0,1,.5,1.3,1a3.8,3.8,0,0,1,.5,1.9,3.3,3.3,0,0,1-1.5,3,1.8,1.8,0,0,1-1.1-.1Z"/><path class="cls-6" d="M413,187.6a6.6,6.6,0,0,1-2.8,1.6,2.1,2.1,0,0,1-2.5-1.4c-.1-.4-.1-1-.4-1.3s-1.1-.2-1.6-.1-4.4-1.6-5.1-3.4a1.8,1.8,0,0,1-2.3.7,7.6,7.6,0,0,1-1.7-1.3,2.8,2.8,0,0,0-2.5-1c-.4.1-.9.5-1.4.5s-1.4-1-1.6-1.9-.4-1.9-1.2-2.3-1.6,0-2.4.2-1.9.1-2.1-.7a1.5,1.5,0,0,1,.1-1.3,4.6,4.6,0,0,1,5-2.1,6,6,0,0,1,10.8-2.1,6,6,0,0,1,9.7,1.4,4.6,4.6,0,0,1,4.7,1.1,4.5,4.5,0,0,1,.7,4.7A4.3,4.3,0,0,1,419,182c.1,1.4-1.1,2.9-2.5,2.7a2.4,2.4,0,0,1-.6,3.2,2.5,2.5,0,0,1-3.3-.5"/><path class="cls-8" d="M390.2,175.9h0c0,.1.1.2.1.3a3.6,3.6,0,0,0,.6,1.3,5,5,0,0,0,4.4,2v-.2a3.2,3.2,0,0,0,.3,1.9,4.7,4.7,0,0,0,1.3,1.5l.8.7a2.3,2.3,0,0,0,1.1.3,2.2,2.2,0,0,0,2.1-.9h-.2a4.7,4.7,0,0,0,2.4,3.3,3.7,3.7,0,0,0,2.3.5,5.6,5.6,0,0,0,2.1-.6h-.2a4.7,4.7,0,0,0,1.8,1.9,3,3,0,0,0,2.4.5,3.9,3.9,0,0,0,2.6-3.2h-.2a3.3,3.3,0,0,0,2.4.1,3.6,3.6,0,0,0,1.5-.8,2.4,2.4,0,0,0,.7-.9,1,1,0,0,0,.1-.4,3,3,0,0,1-.9,1.2,3.5,3.5,0,0,1-1.5.8,2.9,2.9,0,0,1-2.2-.2h-.1a3.5,3.5,0,0,1-2.5,2.9,2.3,2.3,0,0,1-2.2-.4,5.6,5.6,0,0,1-1.6-1.8h-.2a7.4,7.4,0,0,1-2.1.7,5.4,5.4,0,0,1-2.1-.5,5.1,5.1,0,0,1-2.3-3.1v-.4l-.2.3a2.3,2.3,0,0,1-1.9.9,1.4,1.4,0,0,1-.9-.3,2.7,2.7,0,0,1-.8-.7,5.7,5.7,0,0,1-1.3-1.4,2.7,2.7,0,0,1-.3-1.7v-.2h-.2a4.7,4.7,0,0,1-2.7-.5,5.6,5.6,0,0,1-1.6-1.4C390.3,176.6,390.3,175.8,390.2,175.9Z"/><path class="cls-6" d="M394,211c.1-.3,1.7-.1,3.1-1.4s1.4-3.1,1.6-3.1.3.5.2,1.2a3.9,3.9,0,0,1-1.2,2.6,3.5,3.5,0,0,1-2.6,1C394.4,211.3,394,211.1,394,211Z"/><path class="cls-6" d="M296.8,410.8l-3.1,21.5s-24.1,3.7-25.1,7.7l43.8,8.1,6.3-33.3Z"/><path class="cls-2" d="M307.6,433.1a1.7,1.7,0,0,1,.9,2.1,1.6,1.6,0,0,1-2.2.8,1.9,1.9,0,0,1-1-2.3,2,2,0,0,1,2.5-.6"/><path class="cls-8" d="M312.4,448.1l.5-3.3-42.2-6.6s-2,.4-2.1,1.8Z"/><path class="cls-5" d="M293.1,432c-.1.2,1,.5,1.9,1.3s1.4,1.8,1.6,1.8.1-1.3-1.1-2.3S293.1,431.8,293.1,432Z"/><path class="cls-5" d="M288.1,432.9c0,.2.8.7,1.4,1.7s.6,2,.8,2,.6-1.1-.2-2.3S288.2,432.7,288.1,432.9Z"/><path class="cls-5" d="M284.6,437.6c.2.1.6-.8.3-2s-1.3-1.9-1.4-1.7.4.8.7,1.8S284.4,437.6,284.6,437.6Z"/><path class="cls-5" d="M294.3,427.2c.1.2,1.1.1,2.3.4s2.1.8,2.2.7-.6-1.1-2-1.4S294.3,427,294.3,427.2Z"/><path class="cls-9" d="M391.8,238.2l.9-4.1,24-11.8,2,3.2s9,7.3,12.4,13.6-.6,58.1-1.2,65.7c-1.1,15.2-6.8,35.2-6.8,35.2s-7.7-5.4-30.3-14.7S369,311.9,369,311.9L382.3,295Z"/><path class="cls-9" d="M392.2,239.6c-.1.8-11,26.8-11,26.8s5.7,3.1,6.4,3.3S392.2,239.6,392.2,239.6Z"/><path class="cls-6" d="M391.1,243.9c.1,0-.9,6.6-2.1,14.7s-2.5,14.7-2.6,14.7.9-6.6,2.2-14.7S391,243.9,391.1,243.9Z"/><path class="cls-11" d="M315.2,295.9s6.4-9.6,10.3-11.2a45.1,45.1,0,0,1,8.6-2.6l16.2,2.2-.3,9.6a7.1,7.1,0,0,1-5.8,1.6c-3.2-.7-11.2-3.3-11.2-3.3h-4l-4.1,4.5s-3.1.7-1.8-2.1l1.8-4s-3.9,5.3-5.3,5.5A37.4,37.4,0,0,1,315.2,295.9Z"/><path class="cls-11" d="M399.9,257.8l-11.3,26.1-38.4.4-.3,9.6s37.1,13.1,47,10.6S423.1,267,423.1,267Z"/><path class="cls-9" d="M409,235.7c-1.1,1-4.5,5.1-8.3,13.9s-8.9,19.3-8.9,19.3l26.5,10.6s6.1-13.9,8.9-20.1c2.1-4.7,3.6-14,1.7-18.5S418.2,227.4,409,235.7Z"/><path class="cls-6" d="M409,235.7l.2-.2.8-.6a10.1,10.1,0,0,1,9.2-2.4,14.2,14.2,0,0,1,6.8,4,18.7,18.7,0,0,1,2.8,3.8,13,13,0,0,1,1.1,4.9,32.9,32.9,0,0,1-1.4,11,32.5,32.5,0,0,1-2.2,5.6c-.8,1.9-1.6,3.8-2.5,5.7l-5.3,12v.2h-.2l-.4-.2-26.1-10.4h-.2v-.2c2.4-4.9,4.6-9.6,6.5-13.7s3.3-7.9,4.9-10.8a41.8,41.8,0,0,1,4.1-6.5,8,8,0,0,1,1.3-1.6l.5-.5v.2l-.4.3-1.3,1.6a68.2,68.2,0,0,0-3.9,6.6c-1.5,2.9-2.9,6.6-4.8,10.8S394.4,264,392,269v-.3L418,279.1l.4.2h-.2l5.3-12c.8-2,1.7-3.9,2.5-5.8a37.1,37.1,0,0,0,2.2-5.5,38,38,0,0,0,1.4-10.9,12.5,12.5,0,0,0-1.1-4.8,16.8,16.8,0,0,0-2.7-3.7,13.5,13.5,0,0,0-6.7-4,9.2,9.2,0,0,0-5.8.4,15.7,15.7,0,0,0-3.3,1.8l-.8.6C409.1,235.7,409,235.7,409,235.7Z"/><path class="cls-10" d="M332.2,287a10.6,10.6,0,0,0-4.1,1,15.1,15.1,0,0,0-3.3,2.7,4.6,4.6,0,0,1,.7-1.1,6.9,6.9,0,0,1,2.4-1.9,6.4,6.4,0,0,1,3-.8C331.7,286.8,332.2,286.9,332.2,287Z"/><path class="cls-10" d="M394.6,270a.8.8,0,0,1-.1.3l-.3.7c-.3.7-.7,1.7-1.1,2.9s-2.6,5.9-4.3,10v.2H350.2c0-.1.2-.1.5-.1h1.6l5.7-.2,19-.2h11.5l4.4-10,1.2-2.8.4-.7A.8.8,0,0,0,394.6,270Z"/><rect class="cls-8" x="46.8" y="304.8" width="7.4" height="144.91"/><rect class="cls-8" x="350.8" y="305.8" width="7.4" height="143.91"/><rect class="cls-8" x="28.3" y="303.4" width="337.2" height="8.74"/><path class="cls-6" d="M362.3,312.1c0,.1-39.4.2-87.9.2s-87.9-.1-87.9-.2,39.3-.2,87.9-.2S362.3,312,362.3,312.1Z"/><path class="cls-6" d="M265.2,252.2h0a1.7,1.7,0,0,1,1.9,1.3l9.1,48.4h44.4a1.2,1.2,0,0,1,1.2,1.2h0a1.2,1.2,0,0,1-1.2,1.2H273.5v-.2h-.2l-9.4-50A1.6,1.6,0,0,1,265.2,252.2Z"/><path class="cls-6" d="M42.8,139.4a24.1,24.1,0,0,1,17.7-10.9c4.3-.5,6.1.2,9.2.8a13.5,13.5,0,0,1,8.1,4.3c2.4,2.9,4.5,6.2,5.2,9.9a32,32,0,0,1,.4,10.6,42.6,42.6,0,0,1-4.6,13.1l-6.4,1.4c-5.4.6-10.8,1.3-16.2.5s-10.7-3.1-13.9-7.4C37.8,155.6,38.6,145.6,42.8,139.4Z"/><path class="cls-12" d="M51.5,138.5,64,132.2h3.4c7.7-.6,13.7,7.3,14.3,13.5s1.2,15.3.6,20.4c-1.3,10.4-9.9,12-9.9,12l1.8,15.6-20.8-6.4-5.1-45.1A3.8,3.8,0,0,1,51.5,138.5Z"/><path class="cls-13" d="M66.8,165.2a2,2,0,0,1,.6-1.4,2.3,2.3,0,0,1,2.7-.4,3,3,0,0,1,1.3,2.7h0a2.4,2.4,0,0,1-1.8,1.3h-.3a2.1,2.1,0,0,1-1.7-.5A1.9,1.9,0,0,1,66.8,165.2Z"/><path class="cls-6" d="M79.7,155.1a1.2,1.2,0,0,1-1.2,1.3,1.1,1.1,0,0,1-1.4-1.1,1.3,1.3,0,0,1,1.2-1.4A1.4,1.4,0,0,1,79.7,155.1Z"/><path class="cls-6" d="M79.7,149.4c-.2.2-1.2-.5-2.6-.4s-2.5.8-2.7.6.1-.4.6-.7a3.7,3.7,0,0,1,2-.8,3.7,3.7,0,0,1,2.1.6A1.3,1.3,0,0,1,79.7,149.4Z"/><path class="cls-6" d="M71.5,161.4a7.5,7.5,0,0,1,2.3-.5c.4-.1.7-.2.8-.4a1.7,1.7,0,0,0-.3-1.1c-.4-.8-.7-1.8-1.2-2.7-1.6-3.9-2.8-7.1-2.6-7.2a64.1,64.1,0,0,1,3.2,7c.4.9.8,1.8,1.1,2.7a2.2,2.2,0,0,1,.3,1.4,1.2,1.2,0,0,1-.6.6h-3Z"/><path class="cls-13" d="M72.4,178.2a26.3,26.3,0,0,1-14-3.2s3.9,7,14.2,5.7Z"/><path class="cls-6" d="M79.7,145.1c-.3.3-1.4.1-2.6.3s-2.3.5-2.6.2,0-.5.4-.9a4.6,4.6,0,0,1,2-.8,4.6,4.6,0,0,1,2.2.4C79.6,144.6,79.8,144.9,79.7,145.1Z"/><path class="cls-6" d="M65.1,156.1a1.3,1.3,0,0,0,1.3,1.3,1.3,1.3,0,0,0,1.3-1.3,1.3,1.3,0,0,0-1.4-1.3A1.2,1.2,0,0,0,65.1,156.1Z"/><path class="cls-6" d="M60.4,150.6c.2.2,1.1-.7,2.6-.8s2.5.6,2.6.4-.1-.4-.6-.7a3.8,3.8,0,0,0-2.1-.5,4.2,4.2,0,0,0-2,.8C60.5,150.2,60.3,150.5,60.4,150.6Z"/><path class="cls-6" d="M62.3,145.6c.3.3,1.4-.1,2.7-.2s2.4.1,2.7-.3-.1-.5-.6-.7a3.6,3.6,0,0,0-2.2-.4,4.4,4.4,0,0,0-2.2.7C62.3,145.1,62.2,145.4,62.3,145.6Z"/><path class="cls-12" d="M51.6,159.5c0-.8-.9-2.6-1.7-2.7s-5.7,0-5.6,5.2c.2,7,7.3,5.4,7.3,5.2S51.7,162.1,51.6,159.5Z"/><path class="cls-13" d="M49.6,164.7l-.4.2h-.9c-.7-.2-1.4-1.4-1.5-2.7a4.7,4.7,0,0,1,.3-1.7,1.5,1.5,0,0,1,.9-1,.7.7,0,0,1,.8.3c.1.2,0,.3.1.4a.7.7,0,0,0,0-.5l-.2-.4-.7-.2a1.9,1.9,0,0,0-1.3,1.2,3.8,3.8,0,0,0-.3,1.9c0,1.5.8,2.8,1.8,3a1,1,0,0,0,1.1-.2C49.6,164.8,49.6,164.7,49.6,164.7Z"/><path class="cls-6" d="M49.6,156.9l2,1.6c11.2-7.3,22.6-27.4,19.6-26.6a22.3,22.3,0,0,0-11.1-.2c-5.6,1.5-16.2,5.3-15.4,12S49.6,156.9,49.6,156.9Z"/><path class="cls-6" d="M46.3,128.7c2.7,1.6,5.2,6.2,4.1,9.2a9.5,9.5,0,0,1-3.1,8.5,9.6,9.6,0,0,1-8.8,1.9,9.3,9.3,0,0,1-5-3.9,10.8,10.8,0,0,1-1.1-7.5,12.3,12.3,0,0,1,4.9-7.8A8.8,8.8,0,0,1,46.3,128.7Z"/><path class="cls-8" d="M45.7,156.9l1.3-.6,3.3-1.8a50,50,0,0,0,10.1-7.4,34,34,0,0,0,7.4-10.3c.6-1.4,1-2.7,1.3-3.5s.3-1.4.2-1.4a49.5,49.5,0,0,1-1.9,4.8,36.4,36.4,0,0,1-7.3,10,55.1,55.1,0,0,1-10,7.5l-3.2,1.9Z"/><path class="cls-8" d="M39.6,151.6a34.2,34.2,0,0,1,.5-3.4,27.4,27.4,0,0,1,2.7-7.7,28.8,28.8,0,0,1,5-6.5c1.5-1.5,2.6-2.2,2.5-2.3l-.8.5-2,1.5a24.1,24.1,0,0,0-5.1,6.5,23.8,23.8,0,0,0-2.7,7.9c-.1,1.1-.2,2-.2,2.6S39.5,151.6,39.6,151.6Z"/><path class="cls-6" d="M47,167.9a2.7,2.7,0,1,0,5.3,0,2.7,2.7,0,0,0-5.3,0Z"/><path class="cls-6" d="M71.9,166.3c-.1-.2-1.7.1-3.1-1.1s-1.6-3-1.8-3-.3.5-.1,1.2a4,4,0,0,0,1.4,2.5,3.9,3.9,0,0,0,2.5.9C71.5,166.7,71.9,166.4,71.9,166.3Z"/><path class="cls-6" d="M34.3,256s-7.9,27.8-3.2,42.8c2.8,9.1,42.1,58.9,44,61S58.3,408.3,55,418.1l20.9,10.1S102,372.7,103.6,363c2-12.5-27.4-65.9-26.3-66.6l10.6-22-8.8-22.7s-36.9.4-44.4,1Z"/><path class="cls-6" d="M79.9,272.4s50.9,18,56.6,21.1,11,15,5.8,24.9-51,38.4-51,38.4L79.9,339.4l33.1-26-35.8-8.5L65.5,291.1Z"/><path class="cls-8" d="M103.6,362.7a23.2,23.2,0,0,0-.1-3.5,39.6,39.6,0,0,0-2.5-9.3c-.8-1.9-1.6-4-2.6-6.2s-.9-2.3-1.3-3.5l-1.5-3.7-7.3-16L77.1,296.2h0c1.3-5.5,2.5-10,3.4-13.1.4-1.5.8-2.7,1.1-3.5l.4-.9.2-.3-.2.3a2.3,2.3,0,0,1-.3.9c-.2.8-.6,2-1,3.6-.8,3.1-1.9,7.6-3.2,13.1h0c3.2,6.7,7.1,15.1,11.3,24.2,2.6,5.7,5,11.2,7.2,16.1.5,1.3,1.1,2.5,1.5,3.7s.9,2.4,1.3,3.5,1.8,4.3,2.5,6.2a35.7,35.7,0,0,1,2.4,9.4A12.3,12.3,0,0,1,103.6,362.7Z"/><path class="cls-14" d="M80.6,282.8c-.1.4,0,13.4,0,13.4l6.6,11.1L82,306l-4.7-9.6Z"/><path class="cls-8" d="M109.5,280.8l-8.8-8.3a1.7,1.7,0,0,1,1.2-3l34.8-.7a1.7,1.7,0,0,1,1.4.5l7.3,8.2a1.8,1.8,0,0,1-1.3,3l-33.3.8A1.4,1.4,0,0,1,109.5,280.8Z"/><path class="cls-12" d="M99.7,274.6a29.8,29.8,0,0,1,8.1-2.2c4-.4,6,1.3,8.2,1.1s8.1.4,8.1,1.9-8.3,2.2-8.3,2.2l7.3,2.3s8.2-1,8.4,0-7.4,2.1-10.9,2.5-23.6.7-26.4,0-23.5-13.2-23.5-13.2l9.9-10.1Z"/><path class="cls-9" d="M49,184.1a16.7,16.7,0,0,0-12.7,11.7c-2.7,8.6,2.5,43.8,4.6,50.1S66.6,272.7,68.7,271l13.5-11.9L63.8,237.4s1-25.8-.2-30.7S54.1,183.6,49,184.1Z"/><path class="cls-9" d="M37.5,227c1.4,12.2-1.3,17.4-1.3,17.4a9.7,9.7,0,0,0-3.4,6.3,1.9,1.9,0,0,0,1.9,2l44.4-1s6.2.6,6.1-5.3,1.7-29.7-.7-38.8c-.8-3.2-11-18.5-11-18.5l-21.2-12-2.2,5.8s-6.8,2.5-9.8,6.4A21.5,21.5,0,0,0,36,198C34.2,204.3,36.8,220.4,37.5,227Z"/><path class="cls-12" d="M149.3,206.6s-.4-.4-1.8.1-5.1,2.3-6.9,2.7l-5.5,1.9a7.7,7.7,0,0,0-4.7,1.6c-2.7,1.9-10.2,6.8-10.2,6.8l2.6,7.3a18.4,18.4,0,0,1,3.7-.2,10.8,10.8,0,0,0,5.3-.2c2.1-.6,4.8-1.7,4.8-1.7s2.7.2,3.4-.8,0-2.7,0-2.7h0s2.6-2.5,1.5-3.8a38.7,38.7,0,0,0-2.6-2.9s7.9-4.2,9.4-5.3S150,207.5,149.3,206.6Z"/><polygon class="cls-12" points="120.2 219.7 95.8 227.9 85.9 232.9 99.8 240.4 122.8 227 120.2 219.7"/><path class="cls-13" d="M135,213.7a13.4,13.4,0,0,1-.3,6.3c-.1.1-.1.3-.2.4l-.2-.4,4.1.9c1.1.2,1.7.6,1.6.7a5,5,0,0,0-1.6-.4l-4.1-.6H134v-.3l.2-.3C135.1,216.5,134.8,213.7,135,213.7Z"/><path class="cls-13" d="M134.8,217.2c.1-.1.3,0,.5.1a1.8,1.8,0,0,1,.8,1.2l-.2-.2h1.4a5.6,5.6,0,0,1,3.1.6c-.1.1-1.4-.2-3.1-.1h-1.6v-.2A2.5,2.5,0,0,0,134.8,217.2Z"/><path class="cls-13" d="M138.5,215.3c.1.1-.6.7-1.1,1.5s-1,1.7-1.1,1.6a3,3,0,0,1,.6-1.9A2.9,2.9,0,0,1,138.5,215.3Z"/><path class="cls-9" d="M73,183.8l2.5,6.6c2.7,2.5,9.3,9.6,10.6,14.5,1.6,6.4,9,22.5,9,22.5s16.9-7.2,18.1-6.1,7,15.1,5.1,18-19.2,10.5-26.1,8.8-13.6-11.8-13.6-11.8Z"/><path class="cls-6" d="M84.1,204.9l.6,1.5c.1.5.3,1.1.5,1.9s.3,1.5.5,2.4a39.6,39.6,0,0,1,.5,6.4,73,73,0,0,1-.2,8c-.4,5.5-.8,10.6-.7,14.3v2.4a14.2,14.2,0,0,1,.1,1.9c.1,1,.1,1.6.1,1.6l-.3-1.6c0-.5-.1-1.1-.1-1.8a19.5,19.5,0,0,1-.2-2.5c-.1-3.7.2-8.8.6-14.4.2-2.8.3-5.4.3-7.9a57.5,57.5,0,0,0-.5-6.4C84.8,207.1,84,205,84.1,204.9Z"/><path class="cls-6" d="M94.9,236.9c-.2,0-.2-2.2-.2-4.9a25.3,25.3,0,0,1,.3-4.9c.2,0,.3,2.2.2,4.9A25.3,25.3,0,0,1,94.9,236.9Z"/><path class="cls-6" d="M63.4,203.8c.1,0,.1.2.1.6v1.7c0,1.5,0,3.6.1,6.2,0,5.3.3,12.5.1,20.5a11.4,11.4,0,0,0,1,5.6,27.8,27.8,0,0,0,3.3,4.2l6.1,7,4.1,4.7,1.1,1.3.3.5-.4-.4L78,254.4l-4.2-4.6L67.7,243a19.1,19.1,0,0,1-3.4-4.4,11.4,11.4,0,0,1-1.1-5.8c.2-8,0-15.2,0-20.5,0-2.6,0-4.7.1-6.2a7.6,7.6,0,0,1,.1-1.7Z"/><path class="cls-6" d="M48.2,184.1a16.9,16.9,0,0,0-2.7,1.2,17.3,17.3,0,0,0-6,5.3,16.2,16.2,0,0,0-2.6,4.9,13.7,13.7,0,0,0-.7,2.9,18.4,18.4,0,0,0-.3,3.3,42.1,42.1,0,0,0,0,7.1c.1,2.4.5,5,.7,7.6.6,5.2,1.1,10.1,1.6,14.6s.8,8.6,1.8,11.9a18.6,18.6,0,0,0,3.4,7.2,12.3,12.3,0,0,0,1.5,1.6l.5.6h-.2l-.4-.4-1.6-1.6a21.7,21.7,0,0,1-3.6-7.2c-1-3.3-1.4-7.4-1.9-11.9s-1-9.5-1.6-14.7c-.2-2.6-.6-5.1-.7-7.6a42.1,42.1,0,0,1,0-7.1l.3-3.3a15.7,15.7,0,0,1,.8-3.1,16.4,16.4,0,0,1,2.7-4.9,18.6,18.6,0,0,1,6.2-5.3l2-.8Z"/><path class="cls-6" d="M73.4,190.6l-1.1-.6-2.7-1.9h.3v5.1h-.4l-5.6-2.9-9.8-5-2.9-1.6-1-.6,1.1.4,3,1.5c2.5,1.2,6,2.9,9.8,4.9l5.6,2.8-.3.3c0-1.8.1-3.4.1-4.8v-.4l.2.2,2.6,2Z"/><path class="cls-6" d="M81.2,412.9,73,430.1s15.8,14.5,14.6,17.8L51.7,432.5l11.6-27.3Z"/><path class="cls-2" d="M62.5,423.9a1.5,1.5,0,0,0-1.7,1.1,1.6,1.6,0,0,0,1.3,1.7,1.7,1.7,0,0,0,1.8-1.2c0-.8-.7-1.7-1.5-1.6"/><path class="cls-8" d="M51.7,432.5l1.3-2.7,33.9,15.8s1.3,1.3.7,2.3Z"/><path class="cls-5" d="M73.7,430.2a12.8,12.8,0,0,0-2.1,0c-1.1.1-1.9.7-2,.5s.5-1,1.9-1.1S73.8,430,73.7,430.2Z"/><path class="cls-5" d="M76.8,433.3c0,.1-.9.1-1.8.5s-1.4,1.1-1.6,1.1.2-1.1,1.3-1.6S76.9,433.1,76.8,433.3Z"/><path class="cls-5" d="M77.1,438.4c-.2,0-.1-.9.8-1.7s1.8-.7,1.8-.5-.7.4-1.4,1S77.3,438.5,77.1,438.4Z"/></g></g></svg>