<svg xmlns="http://www.w3.org/2000/svg" viewBox="0 0 451.5 392.2"><defs><style>.cls-1{fill:#f5f5f5;}.cls-2{fill:#e0e0e0;}.cls-3{fill:#ebebeb;}.cls-4{fill:#263238;}.cls-5{fill:#fafafa;}.cls-6{fill:#145d86;}.cls-7{opacity:0.8;}.cls-8{fill:#fff;}.cls-9{fill:#455a64;}.cls-10{fill:#ffbe9d;}.cls-11{fill:#eb996e;}.cls-12{opacity:0.2;}.cls-13{opacity:0.3;}</style></defs><g id="Layer_2" data-name="Layer 2"><g id="Plant"><path class="cls-1" d="M329.7,381.7c-1.6-1.4-5.1-5.7-2.4-10.7,1-1.9,3.1-2.8,5.1-3.6a21.9,21.9,0,0,0,5.5-2.8c3-2.6,3.8-6.9,5.8-10.3s6.6-6.8,11.1-6.6,9.5,4.4,11.5,9.3,2,10.1,2,15.3c.1,2.9-.1,6.2-2.2,8.1s-4.9,1.8-7.5,1.7l-28.3-.8"/><path class="cls-2" d="M383.8,303.9H309.4l13.4,79.9a8.8,8.8,0,0,0,6.4,7.1h.2l.7.2h35l1.8-.2a9,9,0,0,0,7.6-7.8l6.4-55.1.3-2.2h0l2.5-21.8Zm-14,51h-7.7l.8-23.2h8.8Zm2.7-23.2h7.3l-2.7,23.2h-6.6Zm-21.8,48.9-.5-20.2h11l-.7,20.2Zm-11.9-20.2h10.7l.4,20.2h-9.5Zm.8,20.2h-8.9c-.9-5.5-2-12.5-3.2-20.2h10.6Zm-1.2-25.7-1.8-23.2h12.2l.5,23.2Zm11.7,0-.5-23.2h12.6l-.8,23.2Zm-.7-28.8-.5-21.4h14.2l-.8,21.4Zm-.7,0H336.1l-1.6-21.4h13.7Zm-13.3,0H322.1c-.5-2.9-.9-5.7-1.3-8.3-1.4-8.6-1.9-11.9-2.2-13.1h15.1Zm.4,5.6,1.8,23.2h-11c-.3-2.4-.7-4.7-1.1-7.1-.8-5.5-1.7-11-2.5-16.1Zm-9.9,23.2h-7.2l-3.9-23.2h7.4C323.4,338.9,324.6,346.8,325.9,354.9Zm.9,5.5c1.1,7,2.1,13.9,3.1,20.2H323l-3.4-20.2Zm34.5,20.2.6-20.2h7.4l-1.7,20.2Zm1.8-54.5.7-21.4h10.3l-1.9,21.4Zm-45.2-21.4c.3,1.5,1.6,10,3.5,21.4h-7.5l-3.6-21.4Zm56.2,75.9h-5.8l1.7-20.2h6.4Zm6.3-54.5H373l1.8-21.4H383Z"/><path class="cls-2" d="M90.8,134.7l-.5-.9L89,131.2l-4.8-9.8L66.8,86.1h.3L.5,118.8h0v-.3c8.5,17.5,16.6,34,23.8,48.7h-.3l48-23.4L85.9,137l3.6-1.7,1-.5h0l-.9.5L86,137.1l-13.6,6.7L24.3,167.5h-.2v-.2L.1,118.7v-.2H.2L66.9,85.8h.2v.2c7.1,14.8,13.1,27,17.2,35.5l4.8,9.8c.5,1.2.9,2,1.2,2.6Z"/><path class="cls-2" d="M67,86v.3a6.4,6.4,0,0,0-.2.7c-.3.7-.6,1.7-1,2.9s-2.1,6.1-3.6,10.5c-3.2,8.9-7.5,21.1-12.2,34.7-.7.3-.2,0-.4.1h-.6l-.6-.2-1.3-.4-2.5-.9-4.9-1.6-9.2-3.1-15.7-5.2L4.2,120l-2.9-1-.7-.3h0l.8.2,2.9.9,10.5,3.4,15.7,5.2,9.3,3,4.9,1.7,2.5.8,1.3.4.6.2h.6c-.1.1.3-.1-.3.2,4.8-13.5,9.2-25.7,12.3-34.6l3.8-10.5L66.6,87l.3-.8A.3.3,0,0,1,67,86Z"/><path class="cls-2" d="M33.2,129.5c.1,0-1.8,8.6-4.3,19.1s-4.6,19-4.7,18.9,1.7-8.5,4.2-19S33,129.5,33.2,129.5Z"/><path class="cls-2" d="M91.5,135c-.1.2-8.1-3.8-17.9-8.7s-17.7-9.1-17.6-9.2,8,3.8,17.9,8.7S91.6,134.9,91.5,135Z"/><path class="cls-2" d="M420.3,140.4l.4-.7,1.4-1.9,5.1-7.1L445.6,105v.3L394.3,68.2h.3l-25.5,35.3V103l37,26.9,10.5,7.7,2.8,2.1.7.5.3.2-.3-.2-.7-.5-2.8-1.9-10.6-7.6-37.1-26.8h-.2v-.2l25.5-35.3.2-.2h.2l51.3,37.2.2.2H446l-18.7,25.7-5.2,7.1a19.4,19.4,0,0,1-1.4,1.8Z"/><path class="cls-2" d="M445.8,105.1l-.9.2-2.5.3-9.1,1.2L403,110.5l-.3-.2h0v-.8l-.2-1.1c-.2-.7-.3-1.4-.5-2.2s-.5-2.8-.8-4.2-1.1-5.4-1.6-7.9c-1-5-1.9-9.6-2.7-13.4L395,71.3a21.7,21.7,0,0,0-.5-2.5,6.2,6.2,0,0,1-.1-.9,6.6,6.6,0,0,1,.2.9,20.8,20.8,0,0,1,.6,2.4c.5,2.2,1.1,5.3,1.9,9.1s1.7,8.4,2.8,13.4c.5,2.5,1,5.2,1.6,7.9l.9,4.2a14.3,14.3,0,0,0,.4,2.2l.2,1.1v.8h0c-.1,0,.3.3-.3-.1l30.3-3.6,9.2-1,2.5-.2Z"/><path class="cls-2" d="M400.1,96.1c.1.1-7,1.9-15.6,3.9s-15.8,3.5-15.8,3.3,7-1.8,15.7-3.8S400.1,96,400.1,96.1Z"/><path class="cls-2" d="M420.3,141.1c-.1,0-.6-7.4-1.1-16.4s-.7-16.3-.6-16.4.7,7.4,1.1,16.4S420.4,141,420.3,141.1Z"/><path class="cls-2" d="M319.5,323.6l.8.3,2.2.9,8.4,3.5,30.3,12.8h-.3c7.2-16.8,16.1-37.9,25.7-60.7h.1v.3l-41.7-17.7h.3l-18.6,43.6c-2.3,5.4-4.1,9.6-5.4,12.5l-1.4,3.3-.4.9a.8.8,0,0,0-.1.3.8.8,0,0,1,.1-.3,4.6,4.6,0,0,0,.3-.9l1.4-3.3,5.2-12.4c4.5-10.8,10.9-26,18.5-43.9v-.2h.2L387,280.4h.2v.2h0c-9.7,22.8-18.6,43.8-25.8,60.6v.2h-.1l-30.4-13-8.3-3.6-2.2-.9Z"/><path class="cls-2" d="M361.1,341.3a.8.8,0,0,0-.1-.3,3.9,3.9,0,0,0-.2-.6c-.2-.6-.6-1.4-.9-2.4l-3.4-9c-2.7-7.7-6.5-18.2-10.7-29.9.3-.6.1-.1.2-.3h.5l.5-.3,1-.4,2.1-1,4.1-1.8,7.6-3.5,13.1-5.8,8.7-3.9,2.4-1,.7-.2h0l-.6.3-2.4,1.1-8.7,4.1-13,5.9-7.6,3.5-4.1,1.8-2,.9-1.1.5-.5.2-.3.2h-.2c0-.2-.2.3.1-.3,4.1,11.6,7.9,22.1,10.6,29.8,1.3,3.8,2.4,6.9,3.1,9.1s.7,1.9.9,2.5.1.4.2.6Z"/><path class="cls-2" d="M359.7,292.9c-.1,0-3.5-6.7-7.5-15s-7.2-15.1-7.1-15.2,3.5,6.7,7.5,15S359.8,292.8,359.7,292.9Z"/><path class="cls-2" d="M318.8,323.7c0-.1,7.3-2.3,16.3-4.8s16.4-4.6,16.5-4.4-7.3,2.3-16.3,4.9S318.9,323.9,318.8,323.7Z"/><rect class="cls-3" x="85.1" width="299" height="251.35"/><path class="cls-2" d="M85.7,17.4c0-.2,66.7-.3,148.9-.3s148.9.1,148.9.3-66.6.2-148.9.2S85.7,17.5,85.7,17.4Z"/><circle class="cls-2" cx="94.8" cy="8.4" r="3.2"/><circle class="cls-2" cx="103.7" cy="8.4" r="3.2"/><circle class="cls-2" cx="113.5" cy="8.4" r="3.2"/><path class="cls-4" d="M437.2,391.9c0,.2-97.6.3-217.9.3s-218-.1-218-.3,97.6-.3,218-.3S437.2,391.8,437.2,391.9Z"/><path class="cls-5" d="M372.6,278c0-1.8-.1-102.5-.2-257.9l.2.3H65.8l.3-.3c0,93.5-.1,181.6-.1,257.9l-.2-.2,306.8.2-306.8.3h-.2V278c0-76.3,0-164.4-.1-257.9v-.2H372.8v.2C372.7,175.5,372.6,276.2,372.6,278Z"/><rect class="cls-5" x="65.8" y="20.1" width="306.8" height="257.9"/><rect class="cls-3" x="66.4" y="37.9" width="110.2" height="25.25"/><path class="cls-4" d="M94.2,58.3a3.1,3.1,0,0,1-.1-.9V54.8c0-2.2-.1-5.3-.1-9.1l.2.2H75.9l.3-.3h0v6.4c-.1,2.1-.1,4.1-.1,6l-.2-.2h-.2v-.2c0-1.9,0-3.9-.1-6V45.9h0c-.2.3.4-.3.3-.2H94.4v.2c-.1,3.8-.1,7-.1,9.2s-.1,1.9-.1,2.5Z"/><path class="cls-4" d="M94.2,45.7l-.7.8-1.9,1.8-6.4,6.1c-.7,0-.2-.1-.3-.1h-.3l-.2-.2-.5-.4-.9-.9-1.7-1.5-2.8-2.8a17.7,17.7,0,0,1-1.9-1.8l-.7-.8.8.6,2,1.8a32.2,32.2,0,0,1,2.9,2.6l1.8,1.6.9.8.4.4.3.3h-.1c2.5-2.4,4.8-4.4,6.5-5.9l2-1.8Z"/><path class="cls-4" d="M82,51.3A20.2,20.2,0,0,1,79.1,55a24,24,0,0,1-3.2,3.3,18.3,18.3,0,0,1,2.8-3.6A25.7,25.7,0,0,1,82,51.3Z"/><path class="cls-4" d="M94.3,58.4a20.3,20.3,0,0,1-3.2-3.5,21.2,21.2,0,0,1-2.7-3.8,22.5,22.5,0,0,1,3.1,3.5A19.2,19.2,0,0,1,94.3,58.4Z"/><path class="cls-4" d="M163.9,50.1c0,.2-12.9.3-28.8.3s-28.8-.1-28.8-.3,12.9-.2,28.8-.2S163.9,50,163.9,50.1Z"/><rect class="cls-6" x="175.2" y="150.1" width="197.4" height="43.26"/><g class="cls-7"><rect class="cls-8" x="175.2" y="150.1" width="197.4" height="43.26"/></g><rect class="cls-6" x="187.9" y="163.6" width="16.2" height="16.21" rx="2.2"/><path class="cls-8" d="M194.7,175.3a.7.7,0,0,1-.6-.2l-3.2-2.4a.9.9,0,0,1-.2-1.4.9.9,0,0,1,1.4-.2l2.5,1.9,5.1-5.6a1,1,0,0,1,1.4,0,.9.9,0,0,1,.1,1.4l-5.7,6.2A1.1,1.1,0,0,1,194.7,175.3Z"/><rect class="cls-6" x="175.2" y="106.6" width="197.4" height="43.26"/><path class="cls-4" d="M371.4,150c0,.2-43.6.3-97.4.3s-97.4-.1-97.4-.3,43.6-.2,97.4-.2S371.4,149.9,371.4,150Z"/><rect class="cls-6" x="175.3" y="236.6" width="197.4" height="41.45"/><g class="cls-7"><rect class="cls-8" x="175.3" y="236.6" width="197.4" height="41.45"/></g><rect class="cls-6" x="188" y="250.1" width="16.2" height="16.21" rx="2.2"/><path class="cls-8" d="M194.8,261.8a.7.7,0,0,1-.6-.2l-3.2-2.4a.9.9,0,0,1-.2-1.4.9.9,0,0,1,1.4-.2l2.5,1.9,5.1-5.6a1,1,0,0,1,1.4,0,.9.9,0,0,1,.1,1.4l-5.7,6.2A1.1,1.1,0,0,1,194.8,261.8Z"/><g class="cls-7"><rect class="cls-8" x="175.2" y="106.6" width="197.4" height="43.26"/></g><rect class="cls-6" x="187.9" y="120.1" width="16.2" height="16.21" rx="2.2"/><path class="cls-8" d="M194.7,131.9l-.6-.2-3.2-2.5a.9.9,0,0,1-.2-1.4,1.1,1.1,0,0,1,1.4-.2l2.5,1.9,5.1-5.5a1,1,0,0,1,1.4-.1.9.9,0,0,1,.1,1.4l-5.7,6.2A1.2,1.2,0,0,1,194.7,131.9Z"/><path class="cls-6" d="M372.6,278c0-1.8-.1-102.5-.2-257.9l.2.3H65.8l.3-.3c0,93.5-.1,181.6-.1,257.9l-.2-.2,306.8.2-306.8.3h-.2V278c0-76.3,0-164.4-.1-257.9v-.2H372.8v.2C372.7,175.5,372.6,276.2,372.6,278Z"/><path class="cls-6" d="M66.4,37.9c0-.1,68.4-.2,152.8-.2s152.8.1,152.8.2-68.4.3-152.8.3S66.4,38.1,66.4,37.9Z"/><circle class="cls-6" cx="75.7" cy="28.7" r="3.3"/><circle class="cls-6" cx="84.9" cy="28.7" r="3.3"/><path class="cls-6" d="M97.3,26.4a3.3,3.3,0,1,1-4.6,0A3.2,3.2,0,0,1,97.3,26.4Z"/><path class="cls-4" d="M106.6,73.4c0-.1.2-.1.7-.1h9.8c1,1.4,2.2,2.9,3.4,4.4h0c0,2,0,4.2.1,6.5v.3H103.3V78.3h.1c.9-1.6,1.7-2.8,2.3-3.7s.8-1.3.9-1.2l-.2.3-.6,1c-.5,1-1.3,2.2-2.2,3.7h.1v6l-.2-.2h16.8l-.3.2c0-2.3,0-4.5.1-6.5h0l-3.3-4.4H106.6Z"/><path class="cls-4" d="M120.3,78.1c0,.1-.5.1-1.5.2l-3.8.3.2-.2a4.3,4.3,0,0,1-.7,2.3,3.1,3.1,0,0,1-1.1.9,3.7,3.7,0,0,1-4.1-.8,5.4,5.4,0,0,1-1.2-2.4l.3.2h-3.6c-.8-.1-1.3-.1-1.3-.2h5v.2a4.5,4.5,0,0,0,1,2.1,2.8,2.8,0,0,0,2.4,1,2.7,2.7,0,0,0,1.2-.3,2.8,2.8,0,0,0,.9-.7,5.2,5.2,0,0,0,.7-2.1v-.2h5.5Z"/><path class="cls-4" d="M157.9,73.9c0-.1.3-.1.8-.1V74H127c0-.1.4-.1,1.3-.1h15l15.4.2V74Z"/><path class="cls-4" d="M157.9,80.4h.8v.2l-15.4.2h15.4v.2Z"/><path class="cls-4" d="M157.9,87h.8c-2,.2-8.2.2-15.4.2h0l15.4.2h-.8Z"/><path class="cls-4" d="M106.6,120.2h10.5l3.4,4.4h0c0,2.1,0,4.3.1,6.6v.2H103.3v-6.2h.1l2.3-3.7q.8-1.2.9-1.2a1.1,1.1,0,0,0-.2.4,4.4,4.4,0,0,0-.6,1l-2.2,3.7h.1v6l-.2-.3h16.8l-.3.3c0-2.3,0-4.5.1-6.6v.2l-3.3-4.5H106.6Z"/><path class="cls-4" d="M120.3,124.9c0,.1-.5.2-1.5.2l-3.8.3.2-.2a3.9,3.9,0,0,1-.7,2.3,3.1,3.1,0,0,1-1.1.9,3.3,3.3,0,0,1-1.4.4,3.6,3.6,0,0,1-2.7-1.2,5,5,0,0,1-1.2-2.4l.3.2h-4.9c0-.1.5-.1,1.3-.1h3.7v.2a5,5,0,0,0,1,2.1,3,3,0,0,0,2.4.9l1.2-.2.9-.8a5.3,5.3,0,0,0,.7-2V125h5.5Z"/><path class="cls-4" d="M157.9,120.7h.8v.2l-15.4.2h15.4v.2Z"/><path class="cls-4" d="M157.9,127.3h.8l-15.4.2h0l15.4.2h-.8Z"/><path class="cls-4" d="M157.9,133.8h.8v.2l-15.4.2h0l15.4.2v.2Z"/><path class="cls-4" d="M106.6,167h10.5c1,1.4,2.2,2.8,3.4,4.4h0c0,2,0,4.2.1,6.5v.3H103.3V172h.1l2.3-3.6c.5-.9.8-1.3.9-1.3l-.2.4-.6,1-2.2,3.7h.1v6l-.2-.2h16.8l-.3.3c0-2.3,0-4.5.1-6.5h0l-3.3-4.4H106.6Z"/><path class="cls-4" d="M120.3,171.8l-1.5.2-3.8.3.2-.3a4.4,4.4,0,0,1-.7,2.4,4.8,4.8,0,0,1-1.1.9,3.7,3.7,0,0,1-4.1-.8,5.4,5.4,0,0,1-1.2-2.4h-3.3l-1.3-.2h5v.2a4.5,4.5,0,0,0,1,2.1,3.5,3.5,0,0,0,2.4,1l1.2-.3.9-.7a5.2,5.2,0,0,0,.7-2.1v-.2h4C119.8,171.7,120.3,171.7,120.3,171.8Z"/><path class="cls-4" d="M157.9,167.6h.8l-15.4.2h0l15.4.2h-.8Z"/><path class="cls-4" d="M157.9,174.1h.8v.2l-15.4.2h0l15.4.2v.2Z"/><path class="cls-4" d="M157.9,180.6h.8l-15.4.2h0l15.4.2h-.8Z"/><path class="cls-6" d="M356.7,136.9H349a3.1,3.1,0,0,1-3-3.1V121.2h1v12.6a2,2,0,0,0,2,2.1h7.7a2,2,0,0,0,2-2.1V121.6h1v12.2A3.1,3.1,0,0,1,356.7,136.9Z"/><rect class="cls-6" x="344.7" y="121.2" width="16.2" height="1"/><path class="cls-6" d="M349.9,121.7h-1v-1.1a2,2,0,0,1,2-2H355a2,2,0,0,1,2,2v.9h-1v-.9a1.1,1.1,0,0,0-1-1h-4.1a1.1,1.1,0,0,0-1,1Z"/><path class="cls-6" d="M350.5,133.1a19.3,19.3,0,0,1-.3-4.3,20.1,20.1,0,0,1,.3-4.3,20.1,20.1,0,0,1,.3,4.3A19.3,19.3,0,0,1,350.5,133.1Z"/><path class="cls-6" d="M352.9,133.1a19.3,19.3,0,0,1-.3-4.3,20.1,20.1,0,0,1,.3-4.3,20.1,20.1,0,0,1,.3,4.3A19.3,19.3,0,0,1,352.9,133.1Z"/><path class="cls-6" d="M355.3,133.1c-.2,0-.3-1.9-.3-4.3s.1-4.3.3-4.3a25.2,25.2,0,0,1,.2,4.3A24.2,24.2,0,0,1,355.3,133.1Z"/><path class="cls-6" d="M356.7,177.9H349a3.1,3.1,0,0,1-3-3.1V162.2h1v12.6a2,2,0,0,0,2,2.1h7.7a2,2,0,0,0,2-2.1V162.6h1v12.2A3.1,3.1,0,0,1,356.7,177.9Z"/><rect class="cls-6" x="344.7" y="162.2" width="16.2" height="1"/><path class="cls-6" d="M349.9,162.7h-1v-1.1a2,2,0,0,1,2-2H355a2,2,0,0,1,2,2v.9h-1v-.9a1.1,1.1,0,0,0-1-1h-4.1a1.1,1.1,0,0,0-1,1Z"/><path class="cls-6" d="M350.5,174.1a19.3,19.3,0,0,1-.3-4.3,20.1,20.1,0,0,1,.3-4.3,20.1,20.1,0,0,1,.3,4.3A19.3,19.3,0,0,1,350.5,174.1Z"/><path class="cls-6" d="M352.9,174.1a19.3,19.3,0,0,1-.3-4.3,20.1,20.1,0,0,1,.3-4.3,20.1,20.1,0,0,1,.3,4.3A19.3,19.3,0,0,1,352.9,174.1Z"/><path class="cls-6" d="M355.3,174.1c-.2,0-.3-1.9-.3-4.3s.1-4.3.3-4.3a25.2,25.2,0,0,1,.2,4.3A24.2,24.2,0,0,1,355.3,174.1Z"/><path class="cls-6" d="M356.7,268H349a3.1,3.1,0,0,1-3-3.1V252.3h1v12.6a2,2,0,0,0,2,2.1h7.7a2,2,0,0,0,2-2.1V252.7h1v12.2A3.1,3.1,0,0,1,356.7,268Z"/><rect class="cls-6" x="344.7" y="252.4" width="16.2" height="1"/><path class="cls-6" d="M349.9,252.9h-1v-1.2a2,2,0,0,1,2-2H355a2,2,0,0,1,2,2v.9h-1v-.9a1.1,1.1,0,0,0-1-1h-4.1a1.1,1.1,0,0,0-1,1Z"/><path class="cls-6" d="M350.5,264.2a19.3,19.3,0,0,1-.3-4.3,18.8,18.8,0,0,1,.3-4.2,18.8,18.8,0,0,1,.3,4.2A19.3,19.3,0,0,1,350.5,264.2Z"/><path class="cls-6" d="M352.9,264.2a19.3,19.3,0,0,1-.3-4.3,18.8,18.8,0,0,1,.3-4.2,18.8,18.8,0,0,1,.3,4.2A19.3,19.3,0,0,1,352.9,264.2Z"/><path class="cls-6" d="M355.3,264.2c-.2,0-.3-1.9-.3-4.3s.1-4.2.3-4.2a23.5,23.5,0,0,1,.2,4.2A24.2,24.2,0,0,1,355.3,264.2Z"/><path class="cls-4" d="M360.8,89.6v-.9a19.3,19.3,0,0,1-.1-2.6c0-2.2-.1-5.3-.1-9l.2.2H342.5c0,.1.5-.5.3-.2h0V89.6l-.3-.2h13.3l-13.3.2h-.2V77.3h0c-.3.2.3-.3.2-.3H361v.2c0,3.8-.1,6.9-.1,9.2a18.5,18.5,0,0,1-.1,2.5Z"/><path class="cls-4" d="M360.8,77.1l-.6.7-1.9,1.9-6.5,6h-.5l-.3-.2-.4-.5-1-.8a12.9,12.9,0,0,0-1.7-1.6l-2.8-2.7-1.9-1.9a3.6,3.6,0,0,1-.7-.7c.1-.1.3.2.8.6l2,1.7,3,2.6,1.7,1.6.9.8.5.5.2.2h-.1l6.5-5.9,2-1.7Z"/><path class="cls-4" d="M348.6,82.7a24.5,24.5,0,0,1-2.8,3.6,19.8,19.8,0,0,1-3.3,3.4,20.2,20.2,0,0,1,2.9-3.7A18.8,18.8,0,0,1,348.6,82.7Z"/><path class="cls-4" d="M360.9,89.8a22.5,22.5,0,0,1-3.1-3.5,21.5,21.5,0,0,1-2.8-3.9,26.3,26.3,0,0,1,3.2,3.5A24.1,24.1,0,0,1,360.9,89.8Z"/><path class="cls-4" d="M371.4,63.2c0,.1-43.6.3-97.4.3s-97.4-.2-97.4-.3,43.6-.3,97.4-.3S371.4,63.1,371.4,63.2Z"/><path class="cls-4" d="M371.4,106.6c0,.2-43.6.3-97.4.3s-97.4-.1-97.4-.3,43.6-.2,97.4-.2S371.4,106.5,371.4,106.6Z"/><path class="cls-4" d="M371.4,192.6c0,.1-43.6.2-97.4.2s-97.4-.1-97.4-.2,43.6-.3,97.4-.3S371.4,192.4,371.4,192.6Z"/><path class="cls-4" d="M371.4,236.6c0,.1-43.6.2-97.4.2s-97.4-.1-97.4-.2,43.6-.3,97.4-.3S371.4,236.4,371.4,236.6Z"/><path class="cls-4" d="M201.8,93.3h.6a1.9,1.9,0,0,0,1.3-1.1c.4-.6.2-1.6.2-2.7V81.2a5.3,5.3,0,0,0-.1-1.3,2.5,2.5,0,0,0-.1-1.2,1.8,1.8,0,0,0-1.7-1.3H190.1a1.9,1.9,0,0,0-1.9,1.6,29.1,29.1,0,0,0-.1,3v8.4a4.8,4.8,0,0,0,0,1.2,1.8,1.8,0,0,0,.6.9l.9.6h-.1a3,3,0,0,1-1.8-1.8,6.2,6.2,0,0,1-.1-1.3V78.9a2.7,2.7,0,0,1,2.5-2.1H202a2.5,2.5,0,0,1,2.2,1.7,5.7,5.7,0,0,1,.1,1.3v5.8c-.1,1.3-.1,2.6-.1,3.7v1.5a2.5,2.5,0,0,1-.3,1.3,2.6,2.6,0,0,1-1.4,1.1A1.2,1.2,0,0,1,201.8,93.3Z"/><path class="cls-4" d="M201.8,223.1h.6a2.7,2.7,0,0,0,1.3-1.1c.4-.7.2-1.6.2-2.7v-8.3a4.9,4.9,0,0,0-.1-1.2,2.5,2.5,0,0,0-.1-1.2,2.1,2.1,0,0,0-1.7-1.4H190.1a2,2,0,0,0-1.9,1.7,28.1,28.1,0,0,0-.1,2.9v8.4a5.6,5.6,0,0,0,0,1.3,1.8,1.8,0,0,0,.6.9,2,2,0,0,0,.9.5h-.1a2.4,2.4,0,0,1-1.1-.6,2.6,2.6,0,0,1-.7-1.1,6.6,6.6,0,0,1-.1-1.4V208.7a2.6,2.6,0,0,1,2.5-2.1H202a2.3,2.3,0,0,1,2.2,1.7,5.7,5.7,0,0,1,.1,1.3v5.7c-.1,1.4-.1,2.7-.1,3.8v1.5a2.8,2.8,0,0,1-.3,1.3,2.6,2.6,0,0,1-1.4,1.1Z"/><path class="cls-4" d="M175.1,274.3v-2.4c-.1-1.6-.1-3.9-.1-6.9V239.7c.1-21.4.3-51,.6-83.6s.5-62.1.7-83.5c.1-10.7.1-19.4.1-25.4.1-2.9.1-5.3.1-6.9V38.6a1.7,1.7,0,0,1,.1-.7v9.3c0,6,.1,14.7.1,25.4-.1,21.3-.3,50.9-.6,83.5s-.5,62.2-.7,83.6c-.1,10.6-.1,19.3-.2,25.3v6.9a12.8,12.8,0,0,0-.1,1.8Z"/><path class="cls-4" d="M286.5,124c0,.2-15.1.3-33.6.3s-33.6-.1-33.6-.3,15.1-.2,33.6-.2S286.5,123.9,286.5,124Z"/><path class="cls-4" d="M328.4,131.4c0,.2-24.4.3-54.5.3s-54.6-.1-54.6-.3,24.5-.2,54.6-.2S328.4,131.3,328.4,131.4Z"/><path class="cls-4" d="M286.5,211.2c0,.1-15.1.2-33.6.2s-33.6-.1-33.6-.2,15.1-.3,33.6-.3S286.5,211,286.5,211.2Z"/><path class="cls-4" d="M328.4,218.6c0,.1-24.4.2-54.5.2s-54.6-.1-54.6-.2,24.5-.3,54.6-.3S328.4,218.4,328.4,218.6Z"/><path class="cls-4" d="M286.5,82.2c0,.1-15.1.3-33.6.3s-33.6-.2-33.6-.3,15.1-.3,33.6-.3S286.5,82,286.5,82.2Z"/><path class="cls-4" d="M328.4,89.6c0,.1-24.4.3-54.5.3s-54.6-.2-54.6-.3,24.5-.3,54.6-.3S328.4,89.5,328.4,89.6Z"/><path class="cls-4" d="M286.5,166.7c0,.2-15.1.3-33.6.3s-33.6-.1-33.6-.3,15.1-.2,33.6-.2S286.5,166.6,286.5,166.7Z"/><path class="cls-4" d="M328.4,174.1c0,.2-24.4.3-54.5.3s-54.6-.1-54.6-.3,24.5-.2,54.6-.2S328.4,174,328.4,174.1Z"/><path class="cls-4" d="M286.5,252.5c0,.1-15.1.2-33.6.2s-33.6-.1-33.6-.2,15.1-.3,33.6-.3S286.5,252.3,286.5,252.5Z"/><path class="cls-4" d="M328.4,259.9c0,.1-24.4.2-54.5.2s-54.6-.1-54.6-.2,24.5-.3,54.6-.3S328.4,259.7,328.4,259.9Z"/><rect class="cls-2" x="349.4" y="43.4" width="13.2" height="13.21"/><rect class="cls-2" x="327.9" y="43.4" width="13.2" height="13.21"/><rect class="cls-2" x="306.4" y="43.4" width="13.2" height="13.21"/><polygon class="cls-4" points="79.8 78 85.4 85.3 90.2 78 79.8 78"/><path class="cls-4" d="M67.7,172.9c13-17.1,26.7-14.7,36.3-10.6a26.4,26.4,0,0,1,15.3,25c-.2,2.8-.8,5.6.3,8.1,1.8,4.1,7,5.2,10.1,8.4s3.2,11.4,1.8,17.3-2.9,12.6.6,17.5,9.2,5.8,14.1,8.2A25.9,25.9,0,0,1,160,263a22.4,22.4,0,0,1-4.7,20.5c-4.8,5.2-12.1,7.6-19.2,8.6a70.6,70.6,0,0,1-80.8-73.5"/><path class="cls-9" d="M104.6,163.1a31.6,31.6,0,0,0-4.6.2,60.5,60.5,0,0,0-10.7,3.2c-4.2,1.4-8.2,2.2-11.1,2a12.9,12.9,0,0,1-3.4-.5l-1.2-.5a23.7,23.7,0,0,0,4.6.7c2.8.1,6.8-.8,10.9-2.2a50.5,50.5,0,0,1,10.9-3,13.5,13.5,0,0,1,3.4-.1C104.2,163,104.7,163,104.6,163.1Z"/><path class="cls-10" d="M134.6,299.6c.5,1.5,10.9,50.5,10.9,50.5l78.9,30.3-4.5,11.5L152.3,386h0c-39.5-5.9-41.7-25.3-39.3-47l4.1-37.1Z"/><path class="cls-6" d="M21.2,273.1c8.1-12.3,20.5-19.4,31.8-23.3l41.5,3a31.5,31.5,0,0,1,25.3,9.3l3.8,102.8,9.6,27H34.4L21.2,273.1"/><path class="cls-5" d="M121.3,304.3H121c-.1-.2-.3-.3-.6-.5l-1.1-.9a10.1,10.1,0,0,1-1.6-1l-2-1a15.7,15.7,0,0,0-2.6-1,23.2,23.2,0,0,0-6.5-1.4,28.5,28.5,0,0,0-8.1.5,23.2,23.2,0,0,0-8.5,3.6,18.1,18.1,0,0,0-6.7,7.5,10.3,10.3,0,0,0-.9,5.2,9.8,9.8,0,0,0,2,5.1A7.5,7.5,0,0,0,89,323a4.4,4.4,0,0,0,4.4-2,5.6,5.6,0,0,0,.1-4.9,9.4,9.4,0,0,0-1.2-2.2,12.9,12.9,0,0,0-1.6-1.8,18.7,18.7,0,0,0-8.2-4.1,28.2,28.2,0,0,0-8.1-.4A49,49,0,0,0,63,310.3l-3.1,1-.8.3h0l.8-.3,3-1.1a52.5,52.5,0,0,1,11.5-2.9,28.9,28.9,0,0,1,8.2.4,18.5,18.5,0,0,1,8.4,4.2l.9.9a3.9,3.9,0,0,1,.8,1A8.6,8.6,0,0,1,94,316a6.5,6.5,0,0,1-.1,5.3,4.3,4.3,0,0,1-2.2,1.8,5.5,5.5,0,0,1-2.8.4,8,8,0,0,1-4.9-2.9,11,11,0,0,1-2.1-5.3,10.4,10.4,0,0,1,1-5.5,17.9,17.9,0,0,1,6.9-7.7,22.9,22.9,0,0,1,8.6-3.6,29.2,29.2,0,0,1,8.2-.5,28,28,0,0,1,6.6,1.5l2.6,1,2,1.2,1.6,1a4.5,4.5,0,0,1,1,.9l.7.5Z"/><polygon class="cls-6" points="119.8 262.1 144.3 306.1 117.1 314.5 119.8 262.1"/><path class="cls-4" d="M123.1,365.3c-.1,0-.1-.3-.1-.8s-.1-1.3-.2-2.2-.2-4.8-.3-8.2c-.3-6.8-.7-16.3-1-26.8s-.5-20-.5-26.8c-.1-3.5-.1-6.3,0-8.2v-3c.1,0,.1.3.1.8v2.2c0,2,.1,4.8.1,8.2.2,6.9.5,16.3.8,26.8s.5,19.9.7,26.8c.1,3.4.2,6.2.3,8.2v3Z"/><path class="cls-5" d="M127,275.5l-.6.4a5.2,5.2,0,0,1-1.7.9,18.5,18.5,0,0,1-7,1.6,18.1,18.1,0,0,1-10.2-3,11.6,11.6,0,0,1-2.4-2,7.1,7.1,0,0,1-1.5-3,3.7,3.7,0,0,1,.9-3.3,3.3,3.3,0,0,1,3.4-1,4,4,0,0,1,2.9,2,5,5,0,0,1,.5,3.4,6.9,6.9,0,0,1-1.4,3,7.8,7.8,0,0,1-2.4,2,16.7,16.7,0,0,1-5.6,1.5,28.2,28.2,0,0,1-5,.1,27.4,27.4,0,0,1-7-1.7l-1.8-.8c-.4-.2-.6-.4-.5-.4l.6.3,1.8.7a24.6,24.6,0,0,0,7,1.5,27.2,27.2,0,0,0,4.9-.1,16.3,16.3,0,0,0,5.4-1.5,10.1,10.1,0,0,0,2.3-1.9,7,7,0,0,0,1.2-2.8,4.8,4.8,0,0,0-.4-3.1,4.1,4.1,0,0,0-2.6-1.7,2.9,2.9,0,0,0-2.9.8,3.2,3.2,0,0,0-.8,2.9,5.3,5.3,0,0,0,1.3,2.7,10.7,10.7,0,0,0,2.3,2,18.3,18.3,0,0,0,10,3,18.7,18.7,0,0,0,6.9-1.3A20.5,20.5,0,0,0,127,275.5Z"/><path class="cls-5" d="M121.8,364.4l-.3-.2-.8-.6a20.9,20.9,0,0,0-3.3-1.9,28.7,28.7,0,0,0-13.5-3c-5.9,0-12.8,2-19.6,5.9a32.1,32.1,0,0,0-4.8,3.4,17.5,17.5,0,0,0-3.8,4.8,9.6,9.6,0,0,0-1,6.2,5.7,5.7,0,0,0,1.6,2.7,3,3,0,0,0,2.9.7,4.1,4.1,0,0,0,2.3-2,6.8,6.8,0,0,0,.8-3.1,10.4,10.4,0,0,0-1.9-5.9,15,15,0,0,0-4.4-4.3,18.4,18.4,0,0,0-5.5-2.1,31.3,31.3,0,0,0-11-.1,73.6,73.6,0,0,0-9.4,2,64.8,64.8,0,0,0-12.9,5.4l-3.3,1.9-.9.5-.3.2.3-.3.8-.5a30.6,30.6,0,0,1,3.3-2A64.1,64.1,0,0,1,50,366.6a72.4,72.4,0,0,1,9.4-2.2,35.2,35.2,0,0,1,11.2.1,16.8,16.8,0,0,1,5.6,2.2,14.8,14.8,0,0,1,4.6,4.4,11.2,11.2,0,0,1,2,6.2,6.3,6.3,0,0,1-.9,3.3,4.2,4.2,0,0,1-2.6,2.3,3.5,3.5,0,0,1-3.4-.8,6.9,6.9,0,0,1-1.7-3,10.5,10.5,0,0,1,1-6.5,17.2,17.2,0,0,1,3.9-4.9,32.3,32.3,0,0,1,5-3.5,40.3,40.3,0,0,1,19.8-5.9,29.8,29.8,0,0,1,13.6,3.2A19.5,19.5,0,0,1,121.8,364.4Z"/><path class="cls-10" d="M51.3,284.5c-3-15.3-24.7-15.9-28.5-.7a1.4,1.4,0,0,0-.2.7C17,308.4,35.9,379.1,41,383.2s10.2,8.7,18.9,5.1c5.1-2.1,57.9-48.8,57.9-48.8s12.2,11.7,16.3,10.7S146,337.1,146,337.1s7.5,11.4,8.5,11.5a2.8,2.8,0,0,0,3-4c-1-1.6-10.6-22.6-10.6-22.6s7.6-.9,6-3.4c0,0-.1-2.3-5.3-1.9s-5.1-5.4-14.6-4.8-29.3,3-57,24.3l-12.9,9Z"/><path class="cls-11" d="M76,336.2l.3-.3.9-.7,3.8-2.8A132.7,132.7,0,0,1,95.8,323a99,99,0,0,1,25.1-9.6,63.4,63.4,0,0,1,7.8-1.4l4.1-.3a15.5,15.5,0,0,1,4.3.2,10.7,10.7,0,0,1,4.1,1.5,39,39,0,0,0,3.6,2.5,5.1,5.1,0,0,0,2.1.6h2.2a6.7,6.7,0,0,1,2.4.4,2.6,2.6,0,0,1,1.7,1.8h0a2,2,0,0,1,.2,1.1,1.8,1.8,0,0,1-.7.8,6.4,6.4,0,0,1-1.8,1,25.7,25.7,0,0,1-4,.8l.2-.3,6.8,14.6c1.2,2.5,2.4,5.1,3.7,7.6.1.3.4.6.4,1a4.9,4.9,0,0,1,.1,1.2,3.5,3.5,0,0,1-1.2,2,2.9,2.9,0,0,1-2.2.6h-.6a.8.8,0,0,1-.4-.4l-.7-.8c-2.6-3.4-4.9-6.8-7.2-10.2h.4a95.4,95.4,0,0,1-5.9,7.9,22.6,22.6,0,0,1-3.4,3.5l-.9.8-1.1.6a2.5,2.5,0,0,1-1.2.4l-1.2-.2a13.2,13.2,0,0,1-4.3-2.1,32.8,32.8,0,0,1-3.8-2.7c-2.4-1.9-4.6-3.8-6.8-5.9h.4c-16.8,14.7-31.1,27.1-41.4,35.7-5.1,4.2-9.2,7.6-12.1,9.8l-3.4,2.4-1.2.7,1.2-.8,3.3-2.4c2.8-2.3,6.9-5.6,12-10,10.2-8.6,24.5-21,41.3-35.8h.3c2.1,2,4.4,4,6.7,5.8a32.8,32.8,0,0,0,3.8,2.7,15.6,15.6,0,0,0,4.1,2c1.5.6,2.8-.5,4-1.5a26.5,26.5,0,0,0,3.3-3.4c2.1-2.5,4-5.2,5.9-7.9l.2-.3.2.3c2.3,3.4,4.6,6.8,7.2,10.2l.7.8.3.3h.4a2.4,2.4,0,0,0,1.8-.5,2.6,2.6,0,0,0,.5-3.5l-3.7-7.6-6.7-14.7-.2-.3h.4a16.1,16.1,0,0,0,3.8-.8,5.4,5.4,0,0,0,1.7-.8,1.8,1.8,0,0,0,.5-.7,1.1,1.1,0,0,0-.2-.7h0a1.9,1.9,0,0,0-1.4-1.3,5.4,5.4,0,0,0-2.2-.4h-2.2a8.6,8.6,0,0,1-2.3-.6c-1.4-.7-2.4-1.8-3.7-2.6a13.2,13.2,0,0,0-3.9-1.5,28.1,28.1,0,0,0-8.2.2,63.4,63.4,0,0,0-7.8,1.3,96.8,96.8,0,0,0-25,9.5,151.8,151.8,0,0,0-14.9,9.2l-3.8,2.7-1,.7Z"/><path class="cls-11" d="M58.4,362.4a3.1,3.1,0,0,1-.2-.7q-.2-.7-.3-2.1a22.8,22.8,0,0,1,.8-6.9,21.8,21.8,0,0,1,2.9-6.3l1.3-1.6q.5-.6.6-.6c0,.1-.7.9-1.6,2.4a26,26,0,0,0-2.7,6.2,26.5,26.5,0,0,0-.9,6.8C58.3,361.3,58.5,362.4,58.4,362.4Z"/><path class="cls-6" d="M36.5,257.9c-.5.4-18.1,5.6-20.8,23.7S14.5,331,14.5,331l47.8-3.3L48.6,264.3Z"/><path class="cls-11" d="M138,347.7a7.8,7.8,0,0,1,0-1.7,8.6,8.6,0,0,0-1-3.7,9.2,9.2,0,0,0-2.5-2.9c-.8-.6-1.4-.8-1.3-.9s.6.1,1.5.6a8.2,8.2,0,0,1,2.8,3,7.8,7.8,0,0,1,.9,3.9A5.2,5.2,0,0,1,138,347.7Z"/><path class="cls-11" d="M142.4,342.3c-.2,0-.2-2.2-1.6-4.3a14.4,14.4,0,0,0-3.3-3.3c0-.1.5.1,1.3.6a7.8,7.8,0,0,1,2.4,2.4,8,8,0,0,1,1.2,3.2A5,5,0,0,1,142.4,342.3Z"/><path class="cls-11" d="M142.4,330.9l1,.7a7.2,7.2,0,0,1,2.2,5.1c0,.7-.1,1.2-.2,1.1a14.3,14.3,0,0,0-.8-3.7A16.6,16.6,0,0,0,142.4,330.9Z"/><path class="cls-5" d="M56.5,297.8h-1l-2.8-.2a27.2,27.2,0,0,0-10,1.9,24.8,24.8,0,0,0-11.6,9.2,13.6,13.6,0,0,0-2.6,8.3,8.8,8.8,0,0,0,1.4,4.4,6.9,6.9,0,0,0,3.6,2.9,6.1,6.1,0,0,0,4.6-.3,5.1,5.1,0,0,0,2.8-3.3,8.2,8.2,0,0,0-.2-4.4,10.2,10.2,0,0,0-1.9-3.9,19.3,19.3,0,0,0-12.6-7.5,20.2,20.2,0,0,0-10,1.4,20,20,0,0,0-2.5,1.2l-.6.4h-.2a13.5,13.5,0,0,1,3.2-1.9,18.2,18.2,0,0,1,10.1-1.5,19.1,19.1,0,0,1,13,7.5,11.6,11.6,0,0,1,2,4,9.3,9.3,0,0,1,.2,4.7,5.5,5.5,0,0,1-3.1,3.7,6.9,6.9,0,0,1-4.9.3,7.2,7.2,0,0,1-3.9-3.1A10,10,0,0,1,28,317a13.8,13.8,0,0,1,2.7-8.6A25.3,25.3,0,0,1,42.6,299a26.7,26.7,0,0,1,10.1-1.7A16.5,16.5,0,0,1,56.5,297.8Z"/><path class="cls-5" d="M54.8,271.9l-1.2.6-1.4.5-2,.5-2.5.5a25.8,25.8,0,0,1-2.9.3,38.8,38.8,0,0,1-6.6-.5,33.6,33.6,0,0,1-6.3-1.8,20.9,20.9,0,0,1-2.6-1.3l-2.2-1.3-1.7-1.2-1.2-1c-.6-.6-.9-.9-.9-1s1.4,1.3,4,2.9l2.2,1.2a14.5,14.5,0,0,0,2.5,1.2,36,36,0,0,0,6.3,1.8,37.7,37.7,0,0,0,6.5.5l2.8-.2,2.5-.4C53,272.6,54.8,271.8,54.8,271.9Z"/><path class="cls-4" d="M58.8,302.5a2.8,2.8,0,0,0,.1.5,11.5,11.5,0,0,0,.2,1.4c.2,1.2.5,3,.8,5.2.7,4.5,1.6,10.8,2.6,18.1v.3h-.3l-11.1.8-25.9,1.7-7.9.4H15.3l2.1-.2,7.8-.6,25.9-1.9,11.2-.7-.3.3c-.9-7.3-1.8-13.6-2.4-18.2-.3-2.2-.5-3.9-.6-5.2a11.5,11.5,0,0,1-.2-1.4Z"/><g class="cls-12"><path d="M35.6,257.4c-.4,1.7.9,3.3,1.8,4.8s1.7,6.5,1.9,9.8c.3,6.2.9,12.4,2.8,18.3a31,31,0,0,0,10.1,15.2c4.9,3.8,11.4,5.6,17.4,4.1s11-6.9,11.5-13-3.2-11.7-5.3-17.4a89.5,89.5,0,0,1-3.3-13.8c-1-4.6-2.2-9.2-4.6-13.3s-6.3-7.4-11-8.2-9.9,1.3-11.8,5.6"/></g><path class="cls-10" d="M58.7,176.7V182l-.4,79.6c0,9.3,7.9,16.7,17.8,16.6h0c10,0,18.3-7.6,18.5-16.9s.6-20.1.6-20.1,12.6-1.9,15.5-18.3c1.5-8.2,1.3-21.6.8-32.6a17.4,17.4,0,0,0-18.9-16.6Z"/><path class="cls-4" d="M107.6,200.3a2.1,2.1,0,0,1-2,2.1,2.1,2.1,0,0,1-2.2-2,2.2,2.2,0,0,1,2.1-2.1A2,2,0,0,1,107.6,200.3Z"/><path class="cls-4" d="M108.5,197.2c-.3.3-1.9-.9-4.2-1s-3.9,1.1-4.2.8.2-.6.9-1.1a6.5,6.5,0,0,1,3.4-1,5.9,5.9,0,0,1,3.3,1.1C108.4,196.6,108.6,197.1,108.5,197.2Z"/><path class="cls-4" d="M86.1,199.9A2.1,2.1,0,0,1,84,202a2,2,0,0,1-2.1-1.9A2.1,2.1,0,0,1,84,198,1.9,1.9,0,0,1,86.1,199.9Z"/><path class="cls-4" d="M86.1,197.2c-.2.3-1.8-.9-4.1-.9s-4,1-4.2.7.2-.6.9-1.1a6,6,0,0,1,3.4-1,5.3,5.3,0,0,1,3.2,1.2C86,196.6,86.2,197.1,86.1,197.2Z"/><path class="cls-4" d="M94.1,214.2l3.7-.6c.6,0,1.1-.1,1.2-.5s-.1-1.1-.3-1.7L97,206.9c-2.3-6.3-3.9-11.5-3.6-11.6s2.3,4.9,4.5,11.3c.6,1.5,1.1,3,1.6,4.5a3.2,3.2,0,0,1,.3,2.2,1.5,1.5,0,0,1-1,.9h-1C95.5,214.4,94.1,214.4,94.1,214.2Z"/><path class="cls-11" d="M95.2,241.2a42.2,42.2,0,0,1-22-6.3s5.2,11.4,21.7,10.1Z"/><path class="cls-11" d="M93,219.7a4.1,4.1,0,0,0-3.6-1.6,4.1,4.1,0,0,0-2.6,1.3,2.4,2.4,0,0,0-.3,2.8,3.1,3.1,0,0,0,3,.8,8.5,8.5,0,0,0,2.9-1.7,2.3,2.3,0,0,0,.7-.7.6.6,0,0,0,0-.8"/><path class="cls-4" d="M87.4,215.7c.3,0,.3,2.4,2.4,4.2s4.7,1.6,4.7,1.9-.6.5-1.7.5a6.3,6.3,0,0,1-4-1.4,5.4,5.4,0,0,1-1.8-3.6C86.9,216.3,87.2,215.7,87.4,215.7Z"/><path class="cls-4" d="M86.9,188.3c-.3.6-2.5.3-5.2.6s-4.9.9-5.2.4.2-.9,1.1-1.4a9.2,9.2,0,0,1,7.9-.8C86.5,187.5,87,188,86.9,188.3Z"/><path class="cls-4" d="M107.7,190.6c-.4.5-1.9,0-3.8-.1s-3.5.3-3.8-.3.1-.7.8-1.2a4.8,4.8,0,0,1,3.1-.8,5.5,5.5,0,0,1,3.1,1.1C107.7,189.8,107.9,190.4,107.7,190.6Z"/><path class="cls-4" d="M79.3,171.3c4.5,5.8,0,14.1-5,19.4s-11.2,11.6-9.7,18.7S77.7,223,76.1,231.3c-.6,3.1-2.9,5.7-2.9,8.8,0,5.6,7.3,8.2,9.4,13.4,2.9,7.1-4.8,14.2-4.9,21.9,0,4.3,2.5,8.4,2.7,12.7.3,8.9-10.1,15.5-18.8,13.4S46.9,291.1,45,282.4s-.7-17.8.6-26.6c-.8,3.8-6.5,4.5-9.3,1.9s-3.2-7-2.6-10.8c1.4-9.6,7.6-17.7,10.5-26.9s2.5-16.7,3.5-25,3.6-17.1,9.9-22.7,17.4-6.4,22.7.2"/><path class="cls-9" d="M56.8,298.4a.6.6,0,0,1,.2-.4l.6-.9a21.4,21.4,0,0,0,3.2-10.6,19.4,19.4,0,0,0-1.6-8.8c-1.3-3.1-3.6-6-6-9.2a38.7,38.7,0,0,1-3.6-5.1,20.3,20.3,0,0,1-2.3-6.1,12.5,12.5,0,0,1,.5-6.9,10.2,10.2,0,0,1,2.1-3,15.6,15.6,0,0,1,2.8-2.3c2-1.4,4.1-2.9,5.1-5.1a10.7,10.7,0,0,0,.5-7.3c-1.2-5-4.7-8.9-6.9-13.2a17.3,17.3,0,0,1-2.1-6.9,15.6,15.6,0,0,1,1.3-6.8,29.4,29.4,0,0,1,7.8-10.1c2.9-2.6,5.9-4.9,8.3-7.3a24.3,24.3,0,0,0,5.4-7.1,17.2,17.2,0,0,0,1.9-6.6,10.6,10.6,0,0,0-.4-4.3l-.5-1.4a7.7,7.7,0,0,1,.6,1.4,12,12,0,0,1,.5,4.3,17.7,17.7,0,0,1-1.8,6.7,26.9,26.9,0,0,1-5.5,7.3c-2.4,2.4-5.3,4.7-8.2,7.3A29.7,29.7,0,0,0,51,206a15.7,15.7,0,0,0-1.2,6.5,16.2,16.2,0,0,0,2,6.7c1.2,2.2,2.5,4.2,3.9,6.4a24.5,24.5,0,0,1,3.1,7,11.3,11.3,0,0,1-.5,7.7c-1.2,2.3-3.4,3.8-5.3,5.2a20.1,20.1,0,0,0-2.8,2.3,10.7,10.7,0,0,0-1.9,2.8,11.4,11.4,0,0,0-.5,6.6,19.5,19.5,0,0,0,2.2,6c1.1,1.8,2.3,3.5,3.5,5.1a48.8,48.8,0,0,1,6.1,9.2,21.5,21.5,0,0,1,1.5,9,20.9,20.9,0,0,1-1.4,6.8,26.9,26.9,0,0,1-2,3.9l-.7.9Z"/><path class="cls-4" d="M179.4,317.2l-37.9,66.2-53.7,1.9v5.9H244.6l42.7-69.9a4,4,0,0,0-3.4-6.1H182.8A4,4,0,0,0,179.4,317.2Z"/><path class="cls-2" d="M226.9,352.6c-2.4,3.7-6.1,5.5-8.2,4.2s-2-5.5.4-9.2,6-5.6,8.2-4.2S229.2,348.9,226.9,352.6Z"/><path class="cls-4" d="M415.9,361.3c.1,0,0-.2-.2-.5a9.3,9.3,0,0,0-.7-1.5,39.2,39.2,0,0,1-2-5.9c-1.3-5.2-1.8-13.3.2-22.8a124.1,124.1,0,0,1,4.2-15.4c1.8-5.4,3.9-11.2,5.6-17.4a66,66,0,0,0,2.7-20.1c-.2-7.1-2.3-14.2-4.6-21.3s-4.7-13.9-5.4-20.9a31,31,0,0,1,3.8-19.3c3.1-5.7,6.9-10.5,9.8-15.5a57.8,57.8,0,0,0,5.9-14.8,54.4,54.4,0,0,0,.3-23.1,40.8,40.8,0,0,0-2.4-8.1l.2.5.5,1.6c.4,1.4.9,3.4,1.5,6.1a57.5,57.5,0,0,1-.6,22.8,55.8,55.8,0,0,1-5.9,14.7c-2.9,4.9-6.8,9.8-9.9,15.5a32.7,32.7,0,0,0-4,19.7c.8,7,3.2,14,5.5,21.1s4.4,14,4.6,21a64.7,64.7,0,0,1-2.7,19.9c-1.6,6.2-3.7,12-5.5,17.4a123.9,123.9,0,0,0-4.1,15.5c-2,9.6-1.4,17.7,0,23a48.4,48.4,0,0,0,2.2,5.9l.8,1.4A1.2,1.2,0,0,0,415.9,361.3Z"/><path class="cls-6" d="M425.4,205.6s5.8-18.7-4.7-29.6a.6.6,0,0,0-1.1.3C419.1,179.4,418.4,188.8,425.4,205.6Z"/><path class="cls-4" d="M421.9,182.2a13,13,0,0,0,.4,3.5c.3,2.3.8,5.1,1.3,8.2s.9,5.9,1.3,8.3a18.8,18.8,0,0,0,.6,3.4,13.6,13.6,0,0,0-.1-3.5c-.2-2.1-.5-5.1-1.1-8.3s-1.1-6.1-1.5-8.2A21.7,21.7,0,0,0,421.9,182.2Z"/><path class="cls-6" d="M418.5,249.8s-3.6-19.3-18-24.1c-.5-.1-1,.3-.8.8C400.6,229.5,404.4,238.2,418.5,249.8Z"/><path class="cls-4" d="M404.4,230.7a20.7,20.7,0,0,0,2,2.9l5,6.6,5.1,6.7a16.3,16.3,0,0,0,2.1,2.8c.1-.1-.5-1.3-1.7-3.1s-2.9-4.2-4.9-6.8-3.8-4.9-5.2-6.5S404.5,230.6,404.4,230.7Z"/><path class="cls-6" d="M422.4,298.2s2.2-19.5-10.2-28.3a.7.7,0,0,0-1.1.5C411.2,273.6,412.3,283,422.4,298.2Z"/><path class="cls-4" d="M414.5,275.8a14.9,14.9,0,0,0,1,3.3c.9,2.3,1.8,4.9,2.9,7.9s2,5.6,2.9,7.8a27.6,27.6,0,0,0,1.2,3.3,10.9,10.9,0,0,0-.7-3.4c-.6-2.1-1.6-4.9-2.7-8s-2.2-5.8-3.1-7.8A16.2,16.2,0,0,0,414.5,275.8Z"/><path class="cls-6" d="M411.5,346.8s1.5-19.5-11.2-27.9a.7.7,0,0,0-1,.6C399.5,322.6,400.9,332,411.5,346.8Z"/><path class="cls-4" d="M402.8,324.8A21.4,21.4,0,0,0,404,328c.9,2.3,2,4.9,3.2,7.8s2.2,5.5,3.1,7.7a20.2,20.2,0,0,0,1.4,3.2,13.6,13.6,0,0,0-.9-3.4c-.7-2-1.7-4.8-3-7.8s-2.4-5.7-3.3-7.7S402.9,324.7,402.8,324.8Z"/><path class="cls-6" d="M433.8,189.2s17.4-9.1,17.7-24.2a.6.6,0,0,0-1-.6C447.9,166.2,440.8,172.3,433.8,189.2Z"/><path class="cls-4" d="M447.9,170.2a15.4,15.4,0,0,0-2.2,2.7l-4.9,6.8-4.9,6.7a20.7,20.7,0,0,0-2,2.9,16.8,16.8,0,0,0,2.4-2.6c1.4-1.6,3.2-4,5.1-6.6l4.8-6.9A19.8,19.8,0,0,0,447.9,170.2Z"/><path class="cls-6" d="M415.1,229.4s17.9-8,19.2-23.1a.7.7,0,0,0-1-.7C430.6,207.3,423.1,213,415.1,229.4Z"/><path class="cls-4" d="M430.4,211.3c-.1-.1-1,.9-2.4,2.5l-5.3,6.5-5.3,6.4c-1.4,1.7-2.2,2.7-2.1,2.8l2.5-2.4c1.5-1.6,3.4-3.8,5.5-6.3s3.9-4.9,5.1-6.6Z"/><path class="cls-6" d="M425.4,274.2s12.3-15.3,6.5-29.3a.6.6,0,0,0-1.1-.1C429.1,247.5,425,256,425.4,274.2Z"/><path class="cls-4" d="M430.7,251.1a21.7,21.7,0,0,0-.9,3.4c-.5,2.3-1.1,5.1-1.7,8.2s-1.3,5.8-1.8,8.1a19.1,19.1,0,0,0-.7,3.4,11.3,11.3,0,0,0,1.2-3.2c.6-2.1,1.3-5,2-8.2s1.2-6.1,1.5-8.2A12.5,12.5,0,0,0,430.7,251.1Z"/><path class="cls-6" d="M413.2,327s17.8-8.3,18.8-23.5c.1-.5-.5-.8-1-.6C428.4,304.6,420.9,310.4,413.2,327Z"/><path class="cls-4" d="M428.2,308.6c-.1-.1-1,.9-2.3,2.6l-5.2,6.6-5.2,6.5a20.3,20.3,0,0,0-2.1,2.8,23.5,23.5,0,0,0,2.5-2.5c1.4-1.5,3.4-3.8,5.4-6.4s3.8-4.9,5-6.7A13.1,13.1,0,0,0,428.2,308.6Z"/><path class="cls-4" d="M377.9,249.9c-.1,0-.1.1-.1.4s.1.8.1,1.3.1,2.7.2,4.7c.2,4.2.5,10,.9,17h0c1.3,7,4.9,14.9,9.8,22.5,3.5,5.7,7.2,10.8,10.5,15.5a117.5,117.5,0,0,1,7.8,13.1,47,47,0,0,1,3.7,9.5c.3,1.2.6,2.1.7,2.7l.3,1a6.7,6.7,0,0,0-.1-1c-.1-.6-.3-1.6-.6-2.7a51.7,51.7,0,0,0-3.5-9.8,97.3,97.3,0,0,0-7.8-13.1c-3.2-4.8-6.9-9.9-10.4-15.5-4.9-7.6-8.4-15.4-9.8-22.4h0c-.4-7-.9-12.8-1.2-17-.1-2-.2-3.6-.3-4.7s-.1-.9-.2-1.3Z"/><path class="cls-6" d="M388.4,294.5s-7.5-18.1,2-30a.6.6,0,0,1,1.1.2C392.4,267.8,393.9,277.1,388.4,294.5Z"/><path class="cls-4" d="M389.8,270.8a18.9,18.9,0,0,0-.6,3.5c-.3,2.1-.6,5-.8,8.3s-.3,6.2-.3,8.4a13.7,13.7,0,0,0,.2,3.4,16.6,16.6,0,0,0,.3-3.4c.2-2.4.3-5.2.5-8.4s.5-5.9.6-8.3A13.6,13.6,0,0,0,389.8,270.8Z"/><g class="cls-13"><path d="M388.4,294.5s-7.5-18.1,2-30a.6.6,0,0,1,1.1.2C392.4,267.8,393.9,277.1,388.4,294.5Z"/></g><path class="cls-6" d="M411.7,338.1s-6-18.6,4.4-29.7a.6.6,0,0,1,1.1.3C417.8,311.8,418.6,321.2,411.7,338.1Z"/><path class="cls-4" d="M415,314.7a13,13,0,0,0-.8,3.3c-.5,2.1-1,5-1.5,8.3a83.3,83.3,0,0,0-1,8.3,13.6,13.6,0,0,0-.1,3.5,18.9,18.9,0,0,0,.6-3.5c.3-2.3.7-5.1,1.2-8.2s.9-5.9,1.3-8.3A14.3,14.3,0,0,0,415,314.7Z"/><g class="cls-13"><path d="M411.7,338.1s-6-18.6,4.4-29.7a.6.6,0,0,1,1.1.3C417.8,311.8,418.6,321.2,411.7,338.1Z"/></g><path class="cls-6" d="M378.9,272.4s-16.1-11.3-14.5-26.4a.7.7,0,0,1,1.1-.4C367.8,247.7,374.1,254.7,378.9,272.4Z"/><g class="cls-13"><path d="M378.9,272.4s-16.1-11.3-14.5-26.4a.7.7,0,0,1,1.1-.4C367.8,247.7,374.1,254.7,378.9,272.4Z"/></g><path class="cls-4" d="M367.3,251.7a15.1,15.1,0,0,0,1.4,3.2c.9,1.9,2.2,4.6,3.8,7.4a81.2,81.2,0,0,0,4.2,7.3c1.1,1.8,1.9,2.9,2,2.8a21.3,21.3,0,0,0-1.6-3.1l-4-7.3-4-7.4A13,13,0,0,0,367.3,251.7Z"/><path class="cls-6" d="M405.3,319.6s-19.4-3-24.6-17.3a.6.6,0,0,1,.8-.8C384.5,302.4,393.3,305.9,405.3,319.6Z"/><g class="cls-13"><path d="M405.3,319.6s-19.4-3-24.6-17.3a.6.6,0,0,1,.8-.8C384.5,302.4,393.3,305.9,405.3,319.6Z"/></g><path class="cls-4" d="M385.8,306.1c-.1.1.9,1,2.6,2.3s4,3.1,6.7,5a77.9,77.9,0,0,0,7,4.7,14.2,14.2,0,0,0,3,1.6,15.7,15.7,0,0,0-2.7-2l-6.9-4.8-6.8-4.9A15.3,15.3,0,0,0,385.8,306.1Z"/><polygon class="cls-9" points="428.2 355.3 422.6 391.7 400.4 391.7 393 355.3 428.2 355.3"/><path class="cls-4" d="M396.2,369.3l.2.2.6.3a7.3,7.3,0,0,0,2.5.8,9.7,9.7,0,0,0,4-.4,8.4,8.4,0,0,0,4.4-3.2,6.4,6.4,0,0,0,1.1-3.1,3.6,3.6,0,0,0-1.5-3.1,3.7,3.7,0,0,0-3.8.3,5.5,5.5,0,0,0-2.1,3.4,18.4,18.4,0,0,0-.3,4.1,15.8,15.8,0,0,0,.9,4.2,9.6,9.6,0,0,0,2.6,3.7,6.8,6.8,0,0,0,4.3,1.7,6.9,6.9,0,0,0,4.4-1.3,13.2,13.2,0,0,0,3.3-2.9,7.9,7.9,0,0,0,1.7-4.1,4.3,4.3,0,0,0-1.6-3.8,3.7,3.7,0,0,0-3.9-.3,4.3,4.3,0,0,0-2.3,3,5.9,5.9,0,0,0,2.8,5.8,8.2,8.2,0,0,0,5.4.8,13.7,13.7,0,0,0,3.8-1.5l2.2-1.5c.4-.3.7-.5.6-.6l-.7.5-2.2,1.4a11.3,11.3,0,0,1-3.8,1.3,7,7,0,0,1-5-.8,5.2,5.2,0,0,1-2.6-5.3,3.7,3.7,0,0,1,2.1-2.6,3.1,3.1,0,0,1,3.3.2,4.2,4.2,0,0,1,1.3,3.4,6.7,6.7,0,0,1-1.5,3.7,12.2,12.2,0,0,1-3.2,2.8,6.6,6.6,0,0,1-4.1,1.2,6.4,6.4,0,0,1-3.9-1.6,8.1,8.1,0,0,1-2.4-3.4,14.3,14.3,0,0,1-.9-4.1,12.6,12.6,0,0,1,.3-3.9,4.7,4.7,0,0,1,1.8-3,3.2,3.2,0,0,1,3.2-.4,2.8,2.8,0,0,1,1.3,2.7,7,7,0,0,1-.9,2.9,8.9,8.9,0,0,1-4.2,3.1,9.1,9.1,0,0,1-3.9.4A7,7,0,0,1,396.2,369.3Z"/></g></g></svg>