<svg xmlns="http://www.w3.org/2000/svg" viewBox="0 0 446.8 442"><defs><style>.cls-1{fill:#fafafa;}.cls-2{fill:#f5f5f5;}.cls-3{fill:#e0e0e0;}.cls-4{fill:#ebebeb;}.cls-5{fill:#fff;}.cls-6{fill:#263238;}.cls-7{fill:#455a64;}.cls-8{fill:#145d86;}.cls-9{fill:#6f4439;}.cls-10{fill:#ae7461;}.cls-11{opacity:0.3;}.cls-12{opacity:0.4;}.cls-13{fill:#ffbf9d;}.cls-14{fill:#ff9a6c;}</style></defs><g id="Layer_2" data-name="Layer 2"><g id="Character"><rect class="cls-1" x="361.2" y="77.2" width="78.3" height="99.83"/><path class="cls-2" d="M431.4,153.3l-1-3.3c-.6-2.2-1.3-3.9-1.5-3.8h0c-.1-.2-1.2.5-2.8.8h-2l-.7-.2h-.2a19.2,19.2,0,0,0,1,4,25,25,0,0,0,.8,2.5l-.4-.2a1.7,1.7,0,0,0-2.1,1.4,1.8,1.8,0,0,0,1.4,2.1,1.7,1.7,0,0,0,2-1.4,1.9,1.9,0,0,0-.2-1.3l-1-3.3c-.2-.7-.4-1.3-.5-1.8a4.1,4.1,0,0,0,2.6.1,6.5,6.5,0,0,0,2.4-1.2c.1.7.4,1.6.6,2.6l.9,2.4h-.4a1.7,1.7,0,1,0-.7,3.4,1.7,1.7,0,0,0,2-1.3A1.9,1.9,0,0,0,431.4,153.3Zm-4.7-5.1a9.2,9.2,0,0,1-2.6.2l-.5-1.1h.3a3.5,3.5,0,0,0,2.3.2,4.9,4.9,0,0,0,2.7-1.4,8.9,8.9,0,0,0,.2,1.1A8.6,8.6,0,0,1,426.7,148.2Z"/><path class="cls-2" d="M375,138.9c.3-.6.7-1.8,1.2-3.2a15,15,0,0,0,1.3-3.9h0c0-.2-1.4-.4-2.8-1.1a5.6,5.6,0,0,1-1.6-1.3l-.4-.5v-.2c-.2-.1-.9,1.6-1.8,3.7a19.5,19.5,0,0,0-.9,2.5.5.5,0,0,0-.2-.4,1.8,1.8,0,0,0-2.5-.3,1.8,1.8,0,1,0,2.3,2.7,2.4,2.4,0,0,0,.6-1.1c.3-.7.7-1.9,1.3-3.2l.7-1.8a4.5,4.5,0,0,0,2,1.8,5.4,5.4,0,0,0,2.5.5c-.3.6-.6,1.5-1,2.4a19.5,19.5,0,0,0-.9,2.5l-.2-.4a1.7,1.7,0,0,0-2.5-.2,1.6,1.6,0,0,0-.2,2.4,1.7,1.7,0,0,0,2.4.3A1.9,1.9,0,0,0,375,138.9Zm-.6-6.9a23,23,0,0,1-2.2-1.4,9.3,9.3,0,0,0,.4-1.3.5.5,0,0,0,.2.4,3.4,3.4,0,0,0,1.6,1.5,5.4,5.4,0,0,0,3,.7l-.6.9A12.8,12.8,0,0,1,374.4,132Z"/><path class="cls-3" d="M411.4,97.6l4.4,1.8.5-1.5a.5.5,0,0,1,.6-.2.5.5,0,0,1,.3.5l-15.9,46.4a.4.4,0,0,1-.6.3.4.4,0,0,1-.2-.5l.7-2h-.1l-4.7-1.9a.5.5,0,0,1-.2-.6h0a.4.4,0,0,1,.6-.2l4.6,2h0l2.1-6.2-4.5-1.9a.4.4,0,0,1-.3-.6h0a.5.5,0,0,1,.6-.2l4.5,1.9,2.1-6-4.6-2c-.2,0-.3-.3-.2-.5s.3-.3.5-.2l4.6,1.9,1.4-4.4-4.5-1.8a.5.5,0,0,1-.2-.6h0a.5.5,0,0,1,.6-.2l4.4,1.8,2.2-6.3h-.2l-4.7-1.9a.5.5,0,0,1-.2-.6h0a.4.4,0,0,1,.5-.2l4.7,2h.1l1.2-3.3-4.5-1.9a.4.4,0,0,1-.3-.6.5.5,0,0,1,.6-.2l4.4,1.9,1.9-5.5h-.1l-4.6-1.9a.4.4,0,0,1-.3-.6.5.5,0,0,1,.6-.2l4.7,1.9h0l1.7-4.9-4.5-1.8a.5.5,0,0,1-.2-.6h0A.4.4,0,0,1,411.4,97.6Z"/><path class="cls-3" d="M415.6,94.4s-18.2,53.3-22.3,63.8c-2.5,6.5-6.9,7.9-9.8,8a8.2,8.2,0,0,1-5.8-2.3c-7.1-7.2,2.1-21.6,2.9-28.7.4-3.4,1.8-7.4-1.1-10.2s-5.7.1-6.6,1.2a2.4,2.4,0,0,1-1.1.6c-1.4.2-1.1-1.5-1.1-1.5a39.2,39.2,0,0,1,11-16.1c2.8-2.6,4.3-1.2,3.1.4a3.1,3.1,0,0,0-.4,3.6c.4.9,4.9,3.5,6.5,10.1a20.3,20.3,0,0,1,.1,9.5c-1,6.1-5.3,16.2-6.9,19.7a1.4,1.4,0,0,0,.6,1.7,1.2,1.2,0,0,0,1.9-.6c1.7-3.8,6.3-14.5,7.4-16.6s16.1-39.7,17.6-43c0,0,1.5-3.6,4.6-4.1s11.7,1.5,11.7,1.5l-.7,1.9s-8.2-1.2-9.5-1A2.6,2.6,0,0,0,415.6,94.4Z"/><path class="cls-4" d="M409,96.7c-.4,1.1-.3,2.1.6,2.4s1.7-1.5,1.7-1.5.6-1.9-.2-2.3S409.4,95.6,409,96.7Z"/><path class="cls-3" d="M409,96.7s0-.1.2-.3a1.8,1.8,0,0,1,.7-.9l.7-.2c.2.1.5.1.6.4a1.1,1.1,0,0,1,.2.8,2.9,2.9,0,0,1-.3,1,1.9,1.9,0,0,1-.5.9,1.2,1.2,0,0,1-.6.6c-.3.1-.5-.1-.7-.2s-.4-.4-.4-.6a2,2,0,0,1,0-1.1,1,1,0,0,1,.1-.4,1.1,1.1,0,0,0-.2.4,1.8,1.8,0,0,0-.1,1.1,1.2,1.2,0,0,0,1.3,1.1c.4-.1.6-.4.9-.7a3.1,3.1,0,0,0,.5-1,3.6,3.6,0,0,0,.2-1,1.4,1.4,0,0,0-.1-1.1,1.2,1.2,0,0,0-1.7-.1,2.4,2.4,0,0,0-.7.9A1.6,1.6,0,0,0,409,96.7Z"/><path class="cls-4" d="M407,102.1c-.4,1-.3,2.1.7,2.4s1.6-1.6,1.6-1.6.7-1.8-.2-2.2S407.4,101,407,102.1Z"/><path class="cls-3" d="M407,102.1l.2-.4.8-.8.6-.2a.8.8,0,0,1,.7.3,2.8,2.8,0,0,1,.1.9,3.6,3.6,0,0,1-.2,1,4.1,4.1,0,0,1-.5.9,1.3,1.3,0,0,1-.7.6c-.2.1-.5-.1-.7-.2l-.4-.6a3.9,3.9,0,0,1,0-1.1,1.6,1.6,0,0,0,.1-.4l-.2.3c0,.3-.1.7-.1,1.2a1.3,1.3,0,0,0,1.4,1,2.4,2.4,0,0,0,.8-.6l.6-1a4.3,4.3,0,0,0,.2-1.1,1.8,1.8,0,0,0-.2-1,1.3,1.3,0,0,0-1.7-.2,4.6,4.6,0,0,0-.7,1A1,1,0,0,0,407,102.1Z"/><path class="cls-4" d="M404.3,108.3c-.4,1-.3,2.1.7,2.4s1.6-1.5,1.6-1.5.7-1.9-.2-2.3S404.7,107.2,404.3,108.3Z"/><path class="cls-3" d="M404.3,108.3l.2-.4a5.9,5.9,0,0,1,.8-.8l.6-.2a.8.8,0,0,1,.7.3,1.4,1.4,0,0,1,.1.9,3.6,3.6,0,0,1-.2,1,4.1,4.1,0,0,1-.5.9,1.3,1.3,0,0,1-.7.6c-.2.1-.5-.1-.7-.2a2.1,2.1,0,0,1-.4-.6,3.9,3.9,0,0,1,0-1.1,1.6,1.6,0,0,0,.1-.4,1.1,1.1,0,0,0-.2.4,3.9,3.9,0,0,0,0,1.1,1.1,1.1,0,0,0,1.3,1,1.2,1.2,0,0,0,.8-.6l.6-1a3.6,3.6,0,0,0,.2-1.1,1.8,1.8,0,0,0-.2-1,1.2,1.2,0,0,0-1.7-.1,2.8,2.8,0,0,0-.7.9A1,1,0,0,0,404.3,108.3Z"/><path class="cls-4" d="M402.6,112.9c-.4,1-.3,2.1.6,2.4s1.7-1.5,1.7-1.5.7-1.9-.2-2.3S403,111.8,402.6,112.9Z"/><path class="cls-3" d="M402.6,112.9l.2-.4.7-.8.7-.2c.2,0,.6.1.7.3a2.8,2.8,0,0,1,.1.9,3.6,3.6,0,0,1-.2,1l-.5.9a1.3,1.3,0,0,1-.7.6c-.2.1-.5-.1-.7-.2l-.4-.6a3.9,3.9,0,0,1,0-1.1v-.4l-.2.4a1.8,1.8,0,0,0-.1,1.1,1.3,1.3,0,0,0,1.4,1,2.4,2.4,0,0,0,.8-.6,3.1,3.1,0,0,0,.5-1,4.5,4.5,0,0,0,.3-1.1,1.8,1.8,0,0,0-.2-1,1.2,1.2,0,0,0-1.7-.1,1.8,1.8,0,0,0-.7.9A1,1,0,0,0,402.6,112.9Z"/><path class="cls-4" d="M399.9,119.2c-.4,1-.3,2.1.7,2.4s1.6-1.5,1.6-1.5.7-1.9-.2-2.3S400.3,118.1,399.9,119.2Z"/><path class="cls-3" d="M399.9,119.2l.2-.4a5.9,5.9,0,0,1,.8-.8l.6-.2a.8.8,0,0,1,.7.3,2.8,2.8,0,0,1,.1.9,3.6,3.6,0,0,1-.2,1,4.1,4.1,0,0,1-.5.9,1.3,1.3,0,0,1-.7.6c-.2.1-.5-.1-.7-.2l-.4-.6a3.9,3.9,0,0,1,0-1.1v-.4l-.2.4a3.1,3.1,0,0,0-.1,1.1,1.3,1.3,0,0,0,1.4,1,2.4,2.4,0,0,0,.8-.6l.6-1a4.3,4.3,0,0,0,.2-1.1,1.8,1.8,0,0,0-.2-1,1.2,1.2,0,0,0-1.7-.1,1.8,1.8,0,0,0-.7.9A1,1,0,0,0,399.9,119.2Z"/><path class="cls-4" d="M398.1,124.4c-.4,1-.3,2.1.6,2.4s1.7-1.6,1.7-1.6.7-1.8-.2-2.2S398.5,123.3,398.1,124.4Z"/><path class="cls-3" d="M398.1,124.4l.2-.4a2.3,2.3,0,0,1,.7-.8l.7-.2a1.1,1.1,0,0,1,.7.3,2.5,2.5,0,0,1,.1.9c-.1.3-.1.7-.2,1a4.1,4.1,0,0,0-.5.9l-.7.6a.9.9,0,0,1-.7-.3.9.9,0,0,1-.4-.6,3.3,3.3,0,0,1,0-1v-.4l-.2.3a2.3,2.3,0,0,0-.1,1.2,1.2,1.2,0,0,0,1.3,1,1.6,1.6,0,0,0,.9-.7,2.6,2.6,0,0,0,.5-.9l.3-1.1a1.8,1.8,0,0,0-.2-1,1.3,1.3,0,0,0-1.7-.2,2,2,0,0,0-.7,1A1,1,0,0,0,398.1,124.4Z"/><path class="cls-4" d="M394.8,131.7c-.4,1.1-.3,2.1.7,2.4s1.6-1.5,1.6-1.5.7-1.9-.2-2.2S395.2,130.7,394.8,131.7Z"/><path class="cls-3" d="M394.8,131.7l.2-.3c.2-.2.4-.6.8-.8l.6-.2a.8.8,0,0,1,.7.3,2.2,2.2,0,0,1,.1.9,4.4,4.4,0,0,1-.2,1,4.1,4.1,0,0,1-.5.9c-.2.2-.4.5-.7.5a.7.7,0,0,1-.7-.2c-.2-.1-.3-.4-.4-.6a4,4,0,0,1,0-1.1,1,1,0,0,0,.1-.4l-.2.4c0,.3-.1.7-.1,1.2a1.4,1.4,0,0,0,1.4,1,1.8,1.8,0,0,0,.8-.7l.6-.9a4.3,4.3,0,0,0,.2-1.1,1.6,1.6,0,0,0-.2-1,1.2,1.2,0,0,0-1.7-.2,2.4,2.4,0,0,0-.7.9Z"/><path class="cls-4" d="M392.2,137.7c-.4,1.1-.3,2.1.6,2.4s1.7-1.5,1.7-1.5.7-1.9-.2-2.3S392.6,136.7,392.2,137.7Z"/><path class="cls-3" d="M392.2,137.7l.2-.3a2.7,2.7,0,0,1,.7-.8,1,1,0,0,1,.7-.2.8.8,0,0,1,.7.3,2.2,2.2,0,0,1,.1.9,4.4,4.4,0,0,1-.2,1,5.6,5.6,0,0,1-.5.8,1.3,1.3,0,0,1-.7.6.7.7,0,0,1-.7-.2l-.4-.6a4,4,0,0,1,0-1.1,1,1,0,0,0,.1-.4l-.2.4a4.1,4.1,0,0,0-.1,1.2,1.4,1.4,0,0,0,1.4,1,1.8,1.8,0,0,0,.8-.7,4.1,4.1,0,0,0,.5-.9,6.1,6.1,0,0,0,.3-1.1,2.2,2.2,0,0,0-.2-1.1,1.2,1.2,0,0,0-1.7-.1,2.4,2.4,0,0,0-.7.9Z"/><path class="cls-4" d="M371.5,125.2l.7-.5,1.7-1.5a48.1,48.1,0,0,0,5.1-5.5,42.3,42.3,0,0,0,4-6.4c.4-.8.8-1.5,1-2l.3-.8-.4.7-1.1,2.1a61.4,61.4,0,0,1-4,6.2,50.6,50.6,0,0,1-5,5.6l-1.7,1.5Z"/><path class="cls-5" d="M385.4,115.6c0,.1.4.4,1,1a11.7,11.7,0,0,1,2.1,3,16,16,0,0,1,1.8,5.1,23.6,23.6,0,0,1,.3,6.6,32.5,32.5,0,0,1-1.5,6.5c-.6,1.9-1.3,3.7-1.9,5.1s-1.1,2.6-1.5,3.4l-.4.9a.4.4,0,0,1-.1.3l.2-.3a3.9,3.9,0,0,0,.4-.9c.4-.8,1-1.9,1.6-3.3s1.3-3.2,2-5.1a32,32,0,0,0,1.4-6.6,21.2,21.2,0,0,0-.2-6.7,18.8,18.8,0,0,0-1.9-5.1,14.5,14.5,0,0,0-2.2-3l-.8-.6Z"/><path class="cls-5" d="M409.5,96.7c.1,0,.2-.3.5-.5s.7-.3.7-.4-.5-.2-.9.1S409.4,96.7,409.5,96.7Z"/><path class="cls-5" d="M407.8,102l.5-.4.6-.4c0-.1-.4-.1-.8.1S407.7,102,407.8,102Z"/><path class="cls-5" d="M405,108.5c.1,0,.1-.3.5-.6l.7-.5h-.3a.9.9,0,0,0-.6.3c-.2.1-.3.4-.4.5S404.9,108.5,405,108.5Z"/><path class="cls-5" d="M403.2,113.4c.1,0,.1-.4.4-.7l.7-.5c0-.1-.5-.1-.9.3S403.1,113.4,403.2,113.4Z"/><path class="cls-5" d="M400.9,118.8c.1.1.2-.1.4-.3l.4-.3c0-.1-.4-.1-.6.1S400.8,118.8,400.9,118.8Z"/><path class="cls-5" d="M398.6,124.9c.1,0,.2-.3.5-.5l.8-.3H399l-.4.5Z"/><path class="cls-5" d="M395.2,132.4l.6-.6c.2-.3.4-.6.3-.6s-.3.1-.6.5S395.1,132.3,395.2,132.4Z"/><path class="cls-5" d="M413.9,92.9c.1.1.5-.9,1.5-1.6a5.6,5.6,0,0,1,2.1-.7h-.7a4.6,4.6,0,0,0-1.6.6,3.1,3.1,0,0,0-1.1,1.2A1.2,1.2,0,0,0,413.9,92.9Z"/><rect class="cls-3" x="425.9" y="90.2" width="1.7" height="4.17" rx="0.7" transform="translate(23.9 -76) rotate(10.5)"/><path class="cls-3" d="M383.8,104.7l-1.6.4a5.9,5.9,0,0,1-.4.8l-.3.8q-.2.3-.3.3h-.8l-.3-.2-.3-.2h-.2v-.7l.8-2c.3-.7.6-1.5,1-2.3l1.1-2.4,1.1-2.1a1.2,1.2,0,0,1,.5-.5c.2-.2.5-.2.9-.2h1.6l.6.2h.5a.7.7,0,0,1,.5.4c.1.1.1.3.1.6s-.1,1.2-.2,2v2.3c0,.8-.1,1.6-.1,2.5v2.5h-1.6l-.4-.2c-.1-.1-.1-.3-.2-.5a2.5,2.5,0,0,0-.1-.8v-.9Zm.6-2.1h1.2a12.7,12.7,0,0,1-.1-2V98.6l-1,1.9-1.2,2.3Z"/><path class="cls-3" d="M392.1,98.9h-1.5c-.2,0-.3-.2-.5-.3s-.1-.2-.2-.3-.1-.2-.2-.3-.1-.2-.1-.4l-.2-.3q-.1-.3,0-.3c0-.1.1-.2.3-.2l1.2-.3,1.4-.2h3.5l.3.4.3.6a1.1,1.1,0,0,0,.1.5.7.7,0,0,1,.1.5l-.3.5-2.6,3.2a32.4,32.4,0,0,0-2.4,3.1l.9-.2h.9c.4-.1.8,0,.9.3l.3.5c0,.1.1.2.1.4s.1.3,0,.3-.2.1-.4.2l-1.6.3-1.6.3h-1l-.2-.2-.4-.3-.5-.3-.2-.2v-.2a.3.3,0,0,0-.1-.2c0-.1.1-.2.1-.3l.8-1.3,1.1-1.7,1.4-1.8a13.3,13.3,0,0,1,1.4-1.9Z"/><path class="cls-3" d="M399,98.9h-1.5a.9.9,0,0,1-.5-.3l-.2-.3c0-.1-.1-.2-.2-.3l-.2-.4c0-.1-.1-.2-.1-.3a.8.8,0,0,1-.1-.3l.3-.2,1.3-.3,1.4-.2h3.5l.3.4a1.4,1.4,0,0,1,.2.6c.1.1.1.3.2.5s.1.3,0,.5-.1.3-.2.5-1.8,2.1-2.6,3.2-1.7,2.1-2.5,3.1l.9-.2h1a.8.8,0,0,1,.9.3c.1.2.2.3.2.5a.5.5,0,0,1,.2.4q.1.3,0,.3l-.4.2-1.7.3-1.6.3h-.9l-.2-.2-.4-.3-.5-.3-.2-.2v-.4a.4.4,0,0,1,.1-.3,6.6,6.6,0,0,1,.8-1.3l1.1-1.7,1.3-1.8,1.5-1.9Z"/><path class="cls-3" d="M368.3,113.8l-1.1-.7-.8-.9-.5-.9a8.3,8.3,0,0,1-.4-1.5,10.3,10.3,0,0,1,.1-1.7,1.6,1.6,0,0,1,.5-1.1c.2-.2.5-.3,1,0s2.6,1.5,2.6,2.7a13.9,13.9,0,0,0,.2,1.5.7.7,0,0,0,.7.5c.3.1.6-.2.8-.7a12.9,12.9,0,0,0,.9-2c.2-.9.5-1.9.7-3a32,32,0,0,0,.7-3.3l.6-3.4c.2-1.1.3-2.1.5-3s.2-.7.5-.8h1l1.4.5,1.4.7a1,1,0,0,1,.5.4c.1.1.2.2.2.3s.1.2.1.4a.6.6,0,0,1-.1.4c-.3,2.1-.7,4.1-1.1,5.8a35.2,35.2,0,0,1-1.3,4.5,17.5,17.5,0,0,1-1.5,3.3,5.9,5.9,0,0,1-1.8,2,4.8,4.8,0,0,1-1.8.6,7.9,7.9,0,0,1-2.6-.1Z"/><path class="cls-3" d="M410.7,155.9l2,1.1,1.9,1,1.6.7.3.4c.1.1,0,.3-.2.6a4.3,4.3,0,0,0-.4.7l-.6.6c-.2.2-.4.4-.6.4s-.4,0-.7-.1l-1.6-.6-2-.9-2.2-1-2.3-1.1-2-1-1.8-1c-.3-.2-.5-.4-.5-.6s0-.5.2-.9l.8-1.5.9-1.1.5-.5.5-.2h2.3l1.6.3,2.9.5a5.7,5.7,0,0,1-1.1-1.1l-1.3-1.2-1.2-1.3-1.2-1.3-1-1.1-.6-.8a1.1,1.1,0,0,1,0-.8,1.8,1.8,0,0,1,.4-.9,6.4,6.4,0,0,1,1-1.3,6.9,6.9,0,0,1,1.1-1.3,1,1,0,0,1,.7-.5,1.6,1.6,0,0,1,.9.4l1.6,1.2,1.9,1.3,2.1,1.5,2,1.3,1.7,1.2,1.4.9a.5.5,0,0,1,.3.4c.1.1,0,.3-.1.6l-.5.7c-.2.3-.3.5-.5.6a.7.7,0,0,1-.6.4,1,1,0,0,1-.7-.2l-1.2-.6-1.7-1-1.9-1.1-1.8-1.2,1.5,1.7,1.7,1.7,1.5,1.7a13.5,13.5,0,0,1,1.2,1.2l.3.2c0,.1.1.1.1.2v.2c-.1.1-.1.2-.2.4l-.7,1.1c-.1.1-.2.1-.2.2l-.3.2H415l-3-.3-3.5-.6Z"/><path class="cls-3" d="M417.6,144.7l-1.8-.5-2.1-.8-2-1.1-2.1-1.3-2-1.3c-.3-.2-.5-.4-.5-.6s.1-.4.4-.8l.7-.8a2.7,2.7,0,0,1,.8-.7,1.5,1.5,0,0,1,1.9-.1l1.7,1.2,1.9,1.3a11.8,11.8,0,0,0,1.9,1.1l1.7.8,1.3.4c.4,0,.7-.1.8-.3s.1-.6-.1-1a5.5,5.5,0,0,0-1.3-1.4,17.3,17.3,0,0,0-2-1.5l-2.4-1.6-2.5-1.5-2.3-1.2a.7.7,0,0,1-.4-.6,1.6,1.6,0,0,1,.3-.8l.7-.9.9-.8.4-.3h.6l.4.2,4,2.5a33.8,33.8,0,0,1,3.2,2.3,14.9,14.9,0,0,1,2.2,2.1,5.3,5.3,0,0,1,1,2V140a10.3,10.3,0,0,1-.4,1.4,6.6,6.6,0,0,1-1.5,2.3l-.8.6a2.9,2.9,0,0,1-1,.3Z"/><path class="cls-3" d="M420.9,133.3a6.4,6.4,0,0,0,.2-.7,2.1,2.1,0,0,1,.4-.6.8.8,0,0,1,.4-.4,12.4,12.4,0,0,0,2-2.1,2.2,2.2,0,0,0,.4-1.6c-.1-.2-.2-.2-.3-.2l-.6.2-.8.6-1,.8a3.9,3.9,0,0,1-1,.8l-1,.7-1.1.6-1.3.2-1.2-.2-1.2-.6-1.2-1a14.7,14.7,0,0,1-1-1.3l-.8-1.5a8.8,8.8,0,0,1-.5-1.5c0-.2-.1-.4-.1-.6v-.8l.3-.9a4.1,4.1,0,0,1,.5-.9,4.9,4.9,0,0,1,1.2-1.3,5.7,5.7,0,0,1,1.3-1,1.3,1.3,0,0,1,.8-.3h.7l.6.2h.6l.9.6,1,.6,1,.7.8.7.3.5a.9.9,0,0,1-.3.6c-1.1,1.4-2.1,1.8-3,1.4l-.6-.4-.7-.4-.7-.4-.6-.3H415c-.1.1,0,.3,0,.6l.3.7a4.1,4.1,0,0,0,.5.9l.6.9.8.6a1.7,1.7,0,0,0,1,.3l.9-.2,1.3-.8,1.2-1,1.1-.8a3,3,0,0,1,1.1-.6,1.8,1.8,0,0,1,1-.2,1.4,1.4,0,0,1,.8.5l.7.7a3.6,3.6,0,0,1,.4,1.1,3.2,3.2,0,0,1,.2,1.4,5.7,5.7,0,0,1-.3,1.8,6.8,6.8,0,0,1-1.4,2.5,8.7,8.7,0,0,1-2.7,2.1c-.6.3-1,.5-1.2.4a.5.5,0,0,1-.4-.5Z"/><path class="cls-3" d="M417.1,114.4l.7.3,1.5,1.1,1.9,1.3,2,1.3,2.1,1.2,1.8,1.2,1.6.9a.5.5,0,0,1,.3.4c.1.1,0,.3-.2.5a5.6,5.6,0,0,1-.5.8c-.2.2-.3.5-.5.6s-.5.4-.7.4h-.7l-1.4-.7-2-1-2.2-1.1-2.2-1.2-2.1-1.2-1.7-1c-.3-.3-.5-.5-.5-.7a1.3,1.3,0,0,1,.3-.7l.8-1a7.6,7.6,0,0,1,.9-.9Z"/><path class="cls-3" d="M429.9,108.8l.8.6a4.4,4.4,0,0,1,.8,1.1,6.1,6.1,0,0,1,.5,1.2,1.5,1.5,0,0,1,.1.7v.8c0,.2-.1.5-.1.8l-.3.7a6.1,6.1,0,0,1-.7,1.4l-.8,1-.8.7a2.1,2.1,0,0,1-1.1.4,3.9,3.9,0,0,1-1.9.1,8.3,8.3,0,0,1-2.1-.6,15.1,15.1,0,0,1-2.2-1.1L420,115a10.5,10.5,0,0,1-1.7-1.9,7.2,7.2,0,0,1-1.2-2.1,2.7,2.7,0,0,1-.3-1.7,3.2,3.2,0,0,1,.3-1.4,4.1,4.1,0,0,1,.5-.9l.6-.9.7-.7.7-.7.7-.3.7-.2h1.2l.8.3.8.3.8.4.6.5h.2c.1.1.1.2.2.2v.3c-.1.1-.1.3-.2.5l-.6.8a1.8,1.8,0,0,1-.7.5l-.7.2h-.8l-.6-.2-1-.3c-.3,0-.6,0-.7.2s-.1.5.1,1a7.7,7.7,0,0,0,.9,1.3c.5.5.9,1,1.5,1.5a7.9,7.9,0,0,0,1.5,1.2l1.5.9,1.5.6,1.3.2c.3-.1.6-.2.7-.4s.1-1.2-.5-2.4a2.9,2.9,0,0,1,.3-2.8C429.4,108.9,429.6,108.7,429.9,108.8Z"/><path class="cls-2" d="M396.2,119.9a1.4,1.4,0,0,0-.5-1.3l-1.2-2.7a17.2,17.2,0,0,0-.9-1.9,2.5,2.5,0,0,0,1.6-.2c1-.4,1.4-1.3,1.3-1.3s-.6.6-1.4,1a3.9,3.9,0,0,1-1.6.3,9.1,9.1,0,0,0-.6-1.1,3.3,3.3,0,0,0,1.7-.4c1-.6,1.4-1.4,1.3-1.4s-.6.6-1.5,1.1l-1.6.5h-.1c.2.5.7,1.8,1.4,3.4a16.1,16.1,0,0,0,1.2,2.3h-.6a1.7,1.7,0,0,0-1.8,1.5,1.8,1.8,0,0,0,1.6,1.8A1.6,1.6,0,0,0,396.2,119.9Z"/><path class="cls-2" d="M430.7,103.7a1.8,1.8,0,0,0-.1-1.6c-.1-.8-.4-2-.5-3.4s-.3-1.7-.4-2.3a3.1,3.1,0,0,0,1.8.2,2,2,0,0,0,1.8-1,8,8,0,0,1-1.8.6,3.2,3.2,0,0,1-1.8-.1l-.4-1.4a4,4,0,0,0,2,.1c1.3-.3,2-1.1,1.9-1.2s-.9.5-2,.8a6.8,6.8,0,0,1-1.9.1h-.1c0,.5.2,2.2.4,4.1a28.4,28.4,0,0,0,.6,2.9l-.6-.3a1.8,1.8,0,0,0-2.4,1.1,1.8,1.8,0,0,0,1.1,2.4A1.8,1.8,0,0,0,430.7,103.7Z"/><path class="cls-2" d="M401.1,164.3a1.2,1.2,0,0,0-.5-1l-1.4-2.2-.9-1.4a2.9,2.9,0,0,0,1.4-.3c.7-.5,1-1.2.9-1.3a6,6,0,0,1-1.1,1,2.7,2.7,0,0,1-1.2.4l-.7-.9a2.6,2.6,0,0,0,1.4-.5c.7-.5,1-1.2.9-1.2s-.4.5-1.1,1a4.5,4.5,0,0,1-1.3.6h0c-.1,0,0,0,0,.1h0c.1.4.8,1.4,1.5,2.7a14,14,0,0,0,1.2,1.8h-.5a1.4,1.4,0,0,0-1.4,1.4,1.4,1.4,0,1,0,2.8-.1Z"/><rect class="cls-4" x="369.8" y="83.7" width="61.7" height="2.25" rx="0.9"/><rect class="cls-4" x="369.8" y="169.6" width="61.7" height="2.25" rx="0.9"/><ellipse class="cls-3" cx="229.5" cy="419.7" rx="185.5" ry="22.3"/><path class="cls-5" d="M226.8,436.4c-44.6,0-86.6-1.7-118.2-5-22.5-2.3-49.4-6.3-49.4-12.5s26.9-10.2,49.4-12.5c31.6-3.2,73.6-5,118.2-5s86.6,1.8,118.2,5c22.6,2.3,49.5,6.4,49.5,12.5s-26.9,10.2-49.5,12.5C313.4,434.7,271.5,436.4,226.8,436.4Zm0-34c-44.6,0-86.5,1.7-118,4.9-43.7,4.5-48.4,9.6-48.4,11.6s4.7,7.2,48.4,11.6c31.5,3.2,73.4,5,118,5s86.5-1.8,118-5c43.7-4.4,48.4-9.6,48.4-11.6s-4.7-7.1-48.4-11.6C313.3,404.1,271.4,402.4,226.8,402.4Z"/><path class="cls-5" d="M226.8,427.5c-49.7,0-101.1-4-101.1-10.7s51.4-10.7,101.1-10.7,101.1,4,101.1,10.7S276.5,427.5,226.8,427.5Zm0-20.5c-59.7,0-99.8,5.1-99.8,9.8s40.1,9.8,99.8,9.8,99.9-5.1,99.9-9.8S286.5,407,226.8,407Z"/><path class="cls-3" d="M36.1,356.9H20.7V226.4a7.6,7.6,0,0,1,7.7-7.7h0a7.7,7.7,0,0,1,7.7,7.7Z"/><path class="cls-3" d="M35.8,233.8a2.9,2.9,0,0,0,3.4-1.1,9.8,9.8,0,0,0,1.1-3.8,6.3,6.3,0,0,1,1.6-3.5c1.7-1.6,4.8-.8,6.1,1.2a8.1,8.1,0,0,1,.5,6.8,16.1,16.1,0,0,1-6.8,8.8c-2,1.2-4.5,1.9-6.7,1.1"/><path class="cls-3" d="M22.5,267.5s-7.5-4-7.7-12.8c-.3-11.7,2-19.9-5.1-19.9S4.3,242.8,4,252s3.1,24.2,17.6,25.4C21.6,277.4,26.1,272.9,22.5,267.5Z"/><path class="cls-3" d="M35.3,307.8s8.2-3.2,9.9-11.5,1.2-24.4,1.6-26.6,1.2-6,6.9-5.5,6.5,6.6,6.2,11.7,2,41.6-24.6,43.1C35.3,319,31.1,314.2,35.3,307.8Z"/><path class="cls-4" d="M20.7,315.2c-.1,0-.1-15.1-.1-33.7s0-33.6.1-33.6.2,15,.2,33.6S20.8,315.2,20.7,315.2Z"/><path class="cls-4" d="M36.1,321.6c-.1,0-.2-20.3-.2-45.3s.1-45.4.2-45.4.1,20.3.1,45.4S36.2,321.6,36.1,321.6Z"/><path class="cls-4" d="M25.4,347.7c-.1,0-.2-28.6-.2-63.9s.1-64,.2-64,.1,28.7.1,64S25.4,347.7,25.4,347.7Z"/><path class="cls-4" d="M30.9,347.7c-.1,0-.1-28.6-.1-63.9s0-64,.1-64,.2,28.7.2,64S31,347.7,30.9,347.7Z"/><path class="cls-4" d="M51.4,264.3v.6c.1.3.1.9.2,1.5s.1,3.4.2,5.8a130,130,0,0,1-1.4,18.9,41.5,41.5,0,0,1-2.5,10.1,20.5,20.5,0,0,1-4.7,7.2,15.1,15.1,0,0,1-4.8,3,10,10,0,0,1-2.1.6.1.1,0,0,0,.1-.1h.4l.7-.2.8-.3a13.4,13.4,0,0,0,4.7-3.1,18.6,18.6,0,0,0,4.6-7.1,41.8,41.8,0,0,0,2.5-10,133.2,133.2,0,0,0,1.5-18.9c0-2.4-.1-4.4-.2-5.8v-2.1Z"/><path class="cls-4" d="M55.4,264.5v.6c0,.4.1,1,.1,1.8a61.3,61.3,0,0,1,.1,6.4,130.2,130.2,0,0,1-1.8,21.3,32.6,32.6,0,0,1-3.4,11.2,21.8,21.8,0,0,1-6,7.4,12.2,12.2,0,0,1-3.2,1.9,12.3,12.3,0,0,1-2.6.8l-1,.2h0l.9-.2a11.4,11.4,0,0,0,2.7-.8,29,29,0,0,0,3.1-1.9,25.3,25.3,0,0,0,5.9-7.4,34.9,34.9,0,0,0,3.3-11.2,142.1,142.1,0,0,0,1.9-21.2c.1-2.7,0-4.9,0-6.4s-.1-1.4-.1-1.8v-.6Z"/><path class="cls-4" d="M21,275.3h-.5l-1.3-.4a16.1,16.1,0,0,1-4.3-2.4,18.1,18.1,0,0,1-4.8-5.6,26.6,26.6,0,0,1-2.8-8.5,39.6,39.6,0,0,1-.6-8.9c0-2.8.1-5.3.2-7.4s.1-3.7.1-4.9v-1.3c0-.3,0-.5.1-.5v.5a7.2,7.2,0,0,0,.1,1.3c0,1.2,0,2.9-.1,4.9s-.1,4.6-.2,7.4a46.9,46.9,0,0,0,.7,8.9,24.5,24.5,0,0,0,2.8,8.4,18.9,18.9,0,0,0,4.6,5.6,14.7,14.7,0,0,0,4.3,2.4l1.2.4Z"/><path class="cls-4" d="M11.3,235.7v1.6c-.1,1-.2,2.4-.2,4.1a64.7,64.7,0,0,0,.4,13.6,39.1,39.1,0,0,0,1.6,7.3,16.6,16.6,0,0,0,2.9,5.3,9.3,9.3,0,0,0,3.2,2.5c.9.3,1.5.4,1.4.5h-.3l-1.1-.3a9.4,9.4,0,0,1-3.4-2.5,14.9,14.9,0,0,1-2.9-5.3,32.1,32.1,0,0,1-1.7-7.4,72.3,72.3,0,0,1-.4-13.6c.1-1.8.3-3.2.3-4.1a5.7,5.7,0,0,0,.1-1.2A1,1,0,0,0,11.3,235.7Z"/><path class="cls-4" d="M43.5,225.4v.6a11.6,11.6,0,0,1-.1,1.7,20.1,20.1,0,0,1-1.4,5.5,9.5,9.5,0,0,1-3.9,4.2l-1.6.6h-.6a5.9,5.9,0,0,0,2.1-.8,8.8,8.8,0,0,0,3.7-4.1,20.3,20.3,0,0,0,1.5-5.4c.1-.7.1-1.2.2-1.7A2.8,2.8,0,0,0,43.5,225.4Z"/><path class="cls-4" d="M47.2,225.8a4.5,4.5,0,0,1-.1.8c-.1.6-.2,1.3-.3,2.3a23.3,23.3,0,0,1-2.4,7.2,10.9,10.9,0,0,1-2.6,3.3,9.6,9.6,0,0,1-3,1.8l-2.2.5h-.9a7.8,7.8,0,0,0,3.1-.6,13.1,13.1,0,0,0,2.8-1.8,12.1,12.1,0,0,0,2.6-3.2,26.9,26.9,0,0,0,2.4-7.1c.1-1,.3-1.7.4-2.3Z"/><path class="cls-4" d="M46.6,345.4H10.2C9.9,346.4,0,362.9,0,362.9l14.9,25.9H43.5l13.3-25.9S46.9,346.4,46.6,345.4Z"/><polygon class="cls-3" points="0 362.9 56.8 362.9 43.5 388.8 14.9 388.8 0 362.9"/><path class="cls-3" d="M196.3,26V22.6c0-2.2-.1-5.4-.1-9.4H147.7l.2-.2h0V26l-.2-.2h48.6c0,.1,0,.1-.2.1H147.4V13.4h0l.3-.3h48.8v.2c0,4-.1,7.3-.1,9.5v3.1C196.4,26,196.3,26,196.3,26Z"/><path class="cls-3" d="M202.9,13.2V9.7c-.1-2.3-.1-5.5-.1-9.4V.5H173.7l.3-.3h0V6.9c0,2.2-.1,4.3-.1,6.3l-.2-.3h-.2V.5h0l.2-.2h29.4V.3c0,4-.1,7.2-.1,9.5v2.5C203,12.9,203,13.2,202.9,13.2Z"/><path class="cls-3" d="M432.4,260.9v-3.4c-.1-2.2-.1-5.4-.1-9.4H383.8l.2-.2h0v12.6l-.2-.2h-.3V248.3h0l.3-.3h48.8v.2c-.1,4-.1,7.2-.1,9.5v3.3Z"/><path class="cls-3" d="M439,248.1v-1a24.5,24.5,0,0,0-.1-2.5c0-2.3,0-5.5-.1-9.4l.2.2H409.8l.2-.2h0v12.7l-.2-.3h-.2v-6.5c0-1.1-.1-2.2-.1-3.3v-3.1h0l.3-.3h29.4v.2c0,4-.1,7.2-.1,9.5v2.5A3.1,3.1,0,0,1,439,248.1Z"/><rect class="cls-2" x="351.6" y="23.4" width="48.7" height="12.87"/><path class="cls-3" d="M379.7,49.9V46.4c0-2.2,0-5.4-.1-9.4H331c.1-.1-.2.3.3-.2h0V49.9l-.3-.3h-.2V37.2h0c.5-.5.1-.1.2-.3h48.8V37c0,4.1,0,7.3-.1,9.5v3.4Z"/><rect class="cls-2" x="31.4" y="148.2" width="48.7" height="12.87"/><path class="cls-3" d="M59.5,174.7v-.9c0-.6,0-1.5-.1-2.6v-9.4H10.9l.2-.2h0v12.7l-.2-.3h-.3V162h0c.5-.5.1-.2.3-.3H59.7v.2c-.1,4-.1,7.3-.1,9.5s-.1,1.9-.1,2.5v.9Z"/><path class="cls-6" d="M446.8,388.8c0,.2-99.6.3-222.4.3S2,389,2,388.8s99.6-.2,222.4-.2S446.8,388.7,446.8,388.8Z"/><path class="cls-7" d="M380,211.9a3.6,3.6,0,0,0-3.5,1.4,6,6,0,0,0-.8,3.5,4.9,4.9,0,0,0,1,3.2,5.7,5.7,0,0,0,3.9,2.2,8.3,8.3,0,0,0,4.2-.6,10.4,10.4,0,0,0-.3-4.6,7,7,0,0,0-1.4-3.2A4.5,4.5,0,0,0,380,211.9Z"/><path class="cls-6" d="M411,208.6c.1,0,0,.1-.1.5a10.4,10.4,0,0,0-.4,1.3c-.5,1.2-1,2.9-1.7,5.1s-1.4,4.7-2.1,7.6-1.4,6-2.1,9.4-1.1,6.6-1.5,9.5-.6,5.6-.8,7.9-.2,4-.3,5.3a5.7,5.7,0,0,1-.1,1.4v-1.4c0-1.3,0-3.1.2-5.4s.3-4.9.7-7.8a94.3,94.3,0,0,1,1.5-9.6c.6-3.3,1.3-6.5,2.1-9.4s1.5-5.5,2.2-7.6l1.7-5c.2-.6.4-1,.5-1.4Z"/><path class="cls-6" d="M382.9,218.6l.3.4.7,1.1c.6,1,1.5,2.5,2.5,4.4s2.1,4.1,3.3,6.6,2.3,5.4,3.4,8.5,2,5.9,2.8,8.6,1.3,5.2,1.7,7.3.7,3.7.9,4.9a4.4,4.4,0,0,0,.2,1.3v.5s-.1-.1-.1-.5a8.6,8.6,0,0,1-.3-1.3c-.2-1.2-.5-2.8-1-4.9s-1-4.5-1.8-7.2-1.6-5.6-2.7-8.6-2.3-5.9-3.4-8.4l-3.2-6.7-2.4-4.4-.7-1.2A1.1,1.1,0,0,0,382.9,218.6Z"/><rect class="cls-8" x="392.3" y="253.1" width="16.8" height="1.58" rx="0.6"/><path class="cls-8" d="M414.5,270.8c-.5-6.1-5.4-6.9-6.3-7.6a1.2,1.2,0,0,1-.5-.5,4.1,4.1,0,0,1-.9-2.6v-6.2H394.6v6.2a4,4,0,0,1-.8,2.6l-.6.5c-.9.7-5.7,1.5-6.3,7.6s-2.6,20.2,1,24.6,6.7,4.4,12.1,4.4h1.4c5.5,0,8.8-.2,12.1-4.4S415.1,277,414.5,270.8Z"/><path class="cls-6" d="M408.7,254.7c0,.1-3.6.2-8,.2s-8.1-.1-8.1-.2h16.1Z"/><path class="cls-7" d="M418.4,203.8a4.1,4.1,0,0,0-3.5-2.4,9.5,9.5,0,0,0-4.4.7,6.5,6.5,0,0,0-3.1,2.3,4.8,4.8,0,0,0-.3,4.5,8.3,8.3,0,0,0,2.9,3.6,17.8,17.8,0,0,0,5.1-2.3,8.7,8.7,0,0,0,2.8-2.6A4.3,4.3,0,0,0,418.4,203.8Z"/><path class="cls-7" d="M379.2,234.4a3.2,3.2,0,0,1,0-3.4,7.1,7.1,0,0,1,2.4-2.5,6.3,6.3,0,0,1,2.9-1,4,4,0,0,1,3.1,1.8,8.8,8.8,0,0,1,1,3.5,11.4,11.4,0,0,1-3.8,2.3,6.5,6.5,0,0,1-3,.6A3.3,3.3,0,0,1,379.2,234.4Z"/><path class="cls-7" d="M395.7,226.8a3.4,3.4,0,0,1,0-3.4,7.2,7.2,0,0,1,2.4-2.5,5.3,5.3,0,0,1,2.9-1,3.9,3.9,0,0,1,3.1,1.8,7.1,7.1,0,0,1,1,3.5,13.3,13.3,0,0,1-3.8,2.3,6,6,0,0,1-3,.6A3.3,3.3,0,0,1,395.7,226.8Z"/><path class="cls-7" d="M417.5,225.6a3.5,3.5,0,0,0,.5-3.4,6.5,6.5,0,0,0-2.1-2.8,5,5,0,0,0-2.8-1.4,3.9,3.9,0,0,0-3.3,1.4,6.6,6.6,0,0,0-1.5,3.4,13.1,13.1,0,0,0,3.5,2.7,6.5,6.5,0,0,0,2.9,1.1A3.1,3.1,0,0,0,417.5,225.6Z"/><path class="cls-7" d="M394.7,217a3.1,3.1,0,0,0-2-2.6,3.7,3.7,0,0,0-2.9.5,4.4,4.4,0,0,0-2.3,2,7,7,0,0,0-.6,4.3,9.7,9.7,0,0,0,1.6,3.7,7.8,7.8,0,0,0,3.5-2,6.7,6.7,0,0,0,2.1-2.3A6.4,6.4,0,0,0,394.7,217Z"/><path class="cls-7" d="M402.1,208.3a3.6,3.6,0,0,0-3.4,1.4,6.1,6.1,0,0,0-.9,3.5,6.7,6.7,0,0,0,1,3.3,6.3,6.3,0,0,0,3.9,2.1,10.2,10.2,0,0,0,4.3-.5,10.9,10.9,0,0,0-.4-4.7,8,8,0,0,0-1.3-3.2A5.9,5.9,0,0,0,402.1,208.3Z"/><path class="cls-6" d="M388.9,219.1s0,.7-.1,1.8a30,30,0,0,0-.1,4.4,22.2,22.2,0,0,0,.6,4.3,7.6,7.6,0,0,1,.3,1.8,17.6,17.6,0,0,1-.6-1.7,17.3,17.3,0,0,1-.6-4.4,30,30,0,0,1,.1-4.4A6.5,6.5,0,0,1,388.9,219.1Z"/><path class="cls-6" d="M392.2,237.4c-.1.1-.7-1.3-1.9-2.6a10.1,10.1,0,0,0-1.8-1.5c-.4-.4-.8-.5-.8-.6a2.5,2.5,0,0,1,1,.3,10.9,10.9,0,0,1,1.8,1.5A6.3,6.3,0,0,1,392.2,237.4Z"/><path class="cls-6" d="M404.8,224.9a4.8,4.8,0,0,1,.6,2.5,4.9,4.9,0,0,1-.3,2.5c-.1,0,0-1.1-.1-2.5A19.7,19.7,0,0,1,404.8,224.9Z"/><path class="cls-6" d="M409.1,221.6a12.4,12.4,0,0,1-1.5,2.5c-1,1.4-1.8,2.4-1.9,2.3a13.7,13.7,0,0,1,1.6-2.5A10.2,10.2,0,0,1,409.1,221.6Z"/><path class="cls-6" d="M406.8,221.3a8.8,8.8,0,0,1-.1-2.2,7.3,7.3,0,0,1,.3-2.1,5.1,5.1,0,0,1,.1,2.2A4.7,4.7,0,0,1,406.8,221.3Z"/><path class="cls-6" d="M388.2,281.7a8,8,0,0,1-.3-2.3c0-1.5-.1-3.4,0-5.6a27.2,27.2,0,0,1,.3-3.1,5.2,5.2,0,0,1,.8-2.4,3.3,3.3,0,0,1,1.2-1.2l.6-.3c.1.1-.9.4-1.6,1.6a6.9,6.9,0,0,0-.7,2.3,30.3,30.3,0,0,0-.2,3.1c-.1,2.2-.1,4.1-.1,5.6Z"/><path class="cls-6" d="M367.9,388h-.6a1.9,1.9,0,0,1-1.5-2V361.2h.5v24.7a1.5,1.5,0,0,0,1.1,1.5,1.6,1.6,0,0,0,1.8-.6L386,361l.4.4-16.8,25.7A2,2,0,0,1,367.9,388Z"/><path class="cls-6" d="M434.6,388a2.1,2.1,0,0,1-1.8-.9L416,361.4l.5-.4,16.8,25.8a1.4,1.4,0,0,0,1.7.6,1.5,1.5,0,0,0,1.1-1.5V361.2h.6v24.7a2,2,0,0,1-1.5,2Z"/><rect class="cls-9" x="356.5" y="296.8" width="86.2" height="66.94"/><path class="cls-6" d="M437.7,327v-.4c0-.3-.1-.7-.1-1.2V302.6H361.3V327h-.3V302.6h76.7c-.1,7.7-.1,13.8-.1,18V327Z"/><path class="cls-6" d="M437.7,356v-.5c0-.3-.1-.7-.1-1.2V331.6H361.4v24.2h-.2V331.4h76.7c-.1,7.6-.1,13.7-.1,17.9V356Z"/><polygon class="cls-6" points="383.8 302.5 386.3 305 414.7 305 417.6 302.5 383.8 302.5"/><polygon class="cls-6" points="383.9 331.4 386.4 333.9 414.9 333.9 417.7 331.4 383.9 331.4"/><rect class="cls-10" x="11.2" y="71.7" width="97" height="12.3"/><path class="cls-7" d="M104.2,67.4a5,5,0,0,1,2.8-3.5,4.8,4.8,0,0,1,4.5.4,7.8,7.8,0,0,1-7.1,3.1"/><path class="cls-7" d="M105.2,68.3a3.4,3.4,0,0,1-.6,3.8,10.5,10.5,0,0,1-3.5,2.1,6,6,0,0,1,4.2-6.2"/><path class="cls-7" d="M102,62.7a5.7,5.7,0,0,1-2.9,3.2,5.4,5.4,0,0,1-4.3.1,7.9,7.9,0,0,1,2.9-3.4,3.6,3.6,0,0,1,4.2.5"/><path class="cls-7" d="M102.3,61.2a3.4,3.4,0,0,1,3.5-1.7,6.1,6.1,0,0,1,3.4,2.1,5,5,0,0,1-3.6.9,4.7,4.7,0,0,1-3.1-1.8"/><path class="cls-7" d="M106.6,74a4.4,4.4,0,0,1-.1,4.8,6.8,6.8,0,0,1-4,3,10.2,10.2,0,0,1,.6-4.9,5.5,5.5,0,0,1,3.7-3.3"/><path class="cls-7" d="M103.4,57.6a3.7,3.7,0,0,0-2.6-2.4,3.8,3.8,0,0,0-3.4.6,3.6,3.6,0,0,0,2.5,2.7,3.9,3.9,0,0,0,3.5-1.1"/><path class="cls-7" d="M102.8,53.4a5.1,5.1,0,0,0,4.2.5,5.5,5.5,0,0,0,3.1-2.9,16.3,16.3,0,0,0-3-.7,6,6,0,0,0-3,.7,2.7,2.7,0,0,0-1.3,2.4"/><path class="cls-7" d="M100.1,51.8a4.6,4.6,0,0,0,2.2-2.9,4.4,4.4,0,0,0-.7-3.5,8.9,8.9,0,0,0-2.7,3.4,4.7,4.7,0,0,0-.4,1.6,1.6,1.6,0,0,0,.9,1.3"/><path class="cls-6" d="M92.9,59.8h0v-.3l.3-1.2a11,11,0,0,1,1.6-4,7.6,7.6,0,0,1,2.3-2,4.6,4.6,0,0,1,3.3-.4,5.1,5.1,0,0,1,1.6.9,2.9,2.9,0,0,1,1,1.6,6.9,6.9,0,0,1-.1,4,18,18,0,0,0-1,4,6.7,6.7,0,0,0,0,2,4.4,4.4,0,0,0,2.2,2.9l1.3,1a5.4,5.4,0,0,1,1.5,2.6,5.3,5.3,0,0,1,0,2.5,5.4,5.4,0,0,1-.7,1.7,14.8,14.8,0,0,1-1,1.2h0l.3-.2a2.9,2.9,0,0,0,.7-1,5.4,5.4,0,0,0,.8-1.7,5.3,5.3,0,0,0,0-2.5,5.6,5.6,0,0,0-1.5-2.7c-.7-.8-1.9-1.2-2.6-2.2a4.5,4.5,0,0,1-.8-3.6,21.3,21.3,0,0,1,1-4,6.4,6.4,0,0,0,.1-4.1,3.9,3.9,0,0,0-1.1-1.7,3.8,3.8,0,0,0-1.7-.8,4.4,4.4,0,0,0-3.4.4,7.6,7.6,0,0,0-2.3,2,9.5,9.5,0,0,0-1.1,2.3,8.3,8.3,0,0,0-.5,1.8,7.4,7.4,0,0,0-.2,1.2v.3Z"/><path class="cls-6" d="M68.1,67.9a3.6,3.6,0,0,1-.7-1.2,3.1,3.1,0,0,1-.2-1.7,4.4,4.4,0,0,1,1-1.9,3.9,3.9,0,0,1,1.1-.6,3.1,3.1,0,0,1,1.3-.3c1-.1,2,.2,3.1,0a2.8,2.8,0,0,0,1.6-.5,2.5,2.5,0,0,0,1-1.5c.3-1.2.1-2.4.6-3.6A3,3,0,0,1,78,55.2l1.6-.7a4.4,4.4,0,0,1,3.2.6A5.6,5.6,0,0,1,85,57.2a6.4,6.4,0,0,1,1.1,2.4,18.3,18.3,0,0,1,.7,3.8,6.5,6.5,0,0,1,.2,1.1v.2h.1v-.2a4.5,4.5,0,0,0-.1-1.1,25.9,25.9,0,0,0-.6-3.8,9.1,9.1,0,0,0-1.1-2.5,8.1,8.1,0,0,0-2.3-2.2,3.9,3.9,0,0,0-1.5-.6H79.6a5.3,5.3,0,0,0-1.7.8,3.3,3.3,0,0,0-1.2,1.4c-.5,1.3-.3,2.5-.6,3.7a2,2,0,0,1-.9,1.3,3.9,3.9,0,0,1-1.5.6c-1.1.1-2.1-.1-3.1-.1l-1.4.3a4.1,4.1,0,0,0-1.1.7,3.8,3.8,0,0,0-1,2,3,3,0,0,0,.2,1.7l.5.9Z"/><path class="cls-7" d="M76.5,58a3.6,3.6,0,0,1-3.2,1.2,3.2,3.2,0,0,1-2.4-2,3.6,3.6,0,0,1,5.6.5"/><path class="cls-7" d="M74.1,62.2a3.8,3.8,0,0,1-.6,3.3,3.2,3.2,0,0,1-3,1,3.5,3.5,0,0,1,.5-3A3.6,3.6,0,0,1,73.8,62"/><path class="cls-7" d="M67.9,63.4a3.5,3.5,0,0,1-3.2.9A3.4,3.4,0,0,1,62.5,62a3.8,3.8,0,0,1,3-.8A3.9,3.9,0,0,1,68,63.1"/><path class="cls-7" d="M80.8,54.4a4,4,0,0,0,.3-3.5,3.7,3.7,0,0,0-2.7-1.7,3.5,3.5,0,0,0,2.2,5.2"/><path class="cls-6" d="M103.1,42.3H103l-.2-.2a4.3,4.3,0,0,0-.7-.7,7.9,7.9,0,0,0-3.1-2,6.6,6.6,0,0,0-2.5-.5,6.2,6.2,0,0,0-2.9.9,4.8,4.8,0,0,0-2.1,2.5,19.7,19.7,0,0,0-.4,3.4,8.5,8.5,0,0,1-.4,1.7,7.1,7.1,0,0,1-1,1.4l-1.2,1.2a6.4,6.4,0,0,0-.8,1.4,5.8,5.8,0,0,0-.6,2.9,9.5,9.5,0,0,0,.3,2.5,16.4,16.4,0,0,0,1.3,3.5l.4.9c.2.2.2.3.2.3a.8.8,0,0,0-.1-.3,3.9,3.9,0,0,1-.4-.9,18.8,18.8,0,0,1-1.3-3.5,19,19,0,0,1-.3-2.5,7.2,7.2,0,0,1,.7-2.8,3.9,3.9,0,0,1,.8-1.4l1.1-1.2a3.6,3.6,0,0,0,1-1.4,4.8,4.8,0,0,0,.5-1.7,19.7,19.7,0,0,1,.4-3.5,5.9,5.9,0,0,1,2-2.4,6,6,0,0,1,2.8-.8,6.9,6.9,0,0,1,2.5.4,11.9,11.9,0,0,1,3.1,1.9l.7.8Z"/><path class="cls-7" d="M89.2,49.1c.3-.4.5-.2.9-.2a2.8,2.8,0,0,1,1.2.4,4.6,4.6,0,0,1,2.4,4.6A3.7,3.7,0,0,1,89.4,49"/><path class="cls-7" d="M100.8,41c.1-.4.3-.3.7-.5a2.5,2.5,0,0,1,1.2-.2,4.8,4.8,0,0,1,4.2,3.1,3.6,3.6,0,0,1-3.7.6,3.7,3.7,0,0,1-2.3-3.1"/><path class="cls-7" d="M87.9,57.4a4.3,4.3,0,0,1,6.7-.9,5.7,5.7,0,0,1-3.2,2,5.4,5.4,0,0,1-3.7-.8"/><path class="cls-7" d="M87.8,51.4a4.3,4.3,0,0,1-3.6-.9,4.4,4.4,0,0,1-1.6-3.4,3.7,3.7,0,0,1,3.9.5A4,4,0,0,1,88,51.3"/><path class="cls-7" d="M91,43.7a4.4,4.4,0,0,1-6.4-2.3,4,4,0,0,1,3.9-.8,3.7,3.7,0,0,1,2.6,3"/><path class="cls-7" d="M92.1,41.2a4.6,4.6,0,0,1,3.8-.3,4.1,4.1,0,0,1,2.6,2.7,4.2,4.2,0,0,1-3.9.8A4.1,4.1,0,0,1,92,41.3"/><path class="cls-7" d="M93.7,39.7a4.7,4.7,0,0,1-3.2-2.1,4.6,4.6,0,0,1-.3-3.8,4.4,4.4,0,0,1,3.6,1.9,4.1,4.1,0,0,1,0,4"/><path class="cls-7" d="M98.2,39.1a5,5,0,0,1-.3-3.8,4.5,4.5,0,0,1,2.8-2.6,4.1,4.1,0,0,1,.7,4,3.8,3.8,0,0,1-3,2.5"/><rect class="cls-8" x="79.2" y="58.1" width="19.9" height="3.53"/><polygon class="cls-8" points="80.7 61 83.4 71.9 95.6 71.9 97.6 61 80.7 61"/><path class="cls-6" d="M99.1,61.7H79c0-.1,4.5-.1,10.1-.1S99.1,61.6,99.1,61.7Z"/><polygon class="cls-2" points="15.7 71.2 15.6 61.2 21.1 61.2 21.2 71.2 15.7 71.2"/><path class="cls-3" d="M20.7,63h-5a11.1,11.1,0,0,1,2.5-.1A11.1,11.1,0,0,1,20.7,63Z"/><path class="cls-3" d="M20.7,64.5h0Z"/><path class="cls-3" d="M20.7,66h0Z"/><path class="cls-3" d="M20.7,67.6h0Z"/><path class="cls-3" d="M20.7,69.1a11.1,11.1,0,0,1-2.5.1,11.1,11.1,0,0,1-2.5-.1h5Z"/><path class="cls-8" d="M15.1,60.8H75.6a26.7,26.7,0,0,1,0,10.9H15.4v-.8h3.7a1.7,1.7,0,0,0,1.7-1.7v-6a1.7,1.7,0,0,0-1.7-1.7h-4Z"/><path class="cls-6" d="M73.5,71.9s-.1-2.5-.1-5.6.1-5.5.1-5.5a54.4,54.4,0,0,1,.1,5.5A55.8,55.8,0,0,1,73.5,71.9Z"/><path class="cls-6" d="M24,71.9s-.1-2.5-.1-5.6.1-5.5.1-5.5a54.4,54.4,0,0,1,.1,5.5A55.8,55.8,0,0,1,24,71.9Z"/><path class="cls-6" d="M74.6,71.9a55.8,55.8,0,0,1-.1-5.6,54.4,54.4,0,0,1,.1-5.5s.1,2.5.1,5.5S74.6,71.9,74.6,71.9Z"/><path class="cls-6" d="M23,71.9V60.8a54.4,54.4,0,0,1,.1,5.5A55.8,55.8,0,0,1,23,71.9Z"/><rect class="cls-5" x="33.1" y="64.6" width="34.3" height="2.92" rx="1.3"/><path class="cls-4" d="M26,52v8.4h7.8V52Z"/><path class="cls-7" d="M69.1,51.3a14,14,0,0,1,0,9.7H25.5v-.6h2.8a4.2,4.2,0,0,0,4.2-4.2h0A4.2,4.2,0,0,0,28.3,52H25.4v-.9Z"/><path class="cls-5" d="M30.6,52.6c0,.1,8.7.1,19.5.1s19.5,0,19.5-.1h-39Z"/><path class="cls-5" d="M30.2,59.9c0,.1,8.8.1,19.6.1s19.6,0,19.6-.1H30.2Z"/><path class="cls-3" d="M26,56.3h0Z"/><path class="cls-3" d="M26,58.2h5.9a15.8,15.8,0,0,0-3-.1A15.1,15.1,0,0,0,26,58.2Z"/><path class="cls-3" d="M25.9,59.9a8.8,8.8,0,0,0,2.2.1,8.8,8.8,0,0,0,2.2-.1H25.9Z"/><path class="cls-3" d="M25.9,54.6h0Z"/><path class="cls-3" d="M26,52.9a10.5,10.5,0,0,0,2.4.1,10.5,10.5,0,0,0,2.4-.1H26Z"/><path class="cls-4" d="M21.6,42.3v8.3H37.8V42.3Z"/><path class="cls-8" d="M74,46.5a.3.3,0,0,0-.1.2,4.7,4.7,0,0,1-4.8,4.5H20.8v-.6H32.3a4.2,4.2,0,0,0,4.2-4.2h0a4.1,4.1,0,0,0-4.2-4.1H20.8v-.9H69.1A4.9,4.9,0,0,1,74,46.5Z"/><path class="cls-3" d="M21.6,46.6H36.5c0-.1-3.3-.1-7.5-.1S21.6,46.5,21.6,46.6Z"/><path class="cls-3" d="M21.8,48.4c0,.1,3.2.1,7.1.1s7,0,7-.1H21.8Z"/><path class="cls-3" d="M21.6,50.2H34.3c0-.1-2.9-.1-6.4-.1S21.6,50.1,21.6,50.2Z"/><path class="cls-3" d="M21.6,44.9H36.2c0-.1-3.3-.1-7.3-.1S21.6,44.8,21.6,44.9Z"/><path class="cls-3" d="M21.8,43.2h13c0-.1-2.9-.1-6.5-.1S21.8,43.1,21.8,43.2Z"/><rect class="cls-5" x="36.1" y="55.3" width="27.5" height="1.52" rx="0.7" transform="translate(99.6 112.1) rotate(180)"/><rect class="cls-5" x="41.6" y="45.7" width="27.5" height="1.52" rx="0.7" transform="translate(110.6 92.9) rotate(180)"/><path class="cls-6" d="M103.9,72.8l-.2.2a2.1,2.1,0,0,1-.4.6,10.5,10.5,0,0,0-.8,1.1,6.3,6.3,0,0,1-1.1,1.3,44.6,44.6,0,0,1-7.9,7.8,70.9,70.9,0,0,1-6.4,4.4l-1.8,1-1,.5-1,.5-2,.9-2.2.9a54.1,54.1,0,0,1-19.8,3.6,58.1,58.1,0,0,1-10.4-1.2,61,61,0,0,1-9.4-2.8l-2.1-1a12.1,12.1,0,0,1-2-.9l-3.8-2.1-1.7-1.1-1.6-1.1-1.5-1.2-.8-.5-.6-.6-2.5-2.2-2.1-2.2L19,76.8,17.7,75a6.1,6.1,0,0,1-1-1.4l-.7-1-.5-.7v-.2s.1,0,.2.2l.4.6.8,1.1a9.4,9.4,0,0,0,1,1.4l1.4,1.7,1.7,1.9L23,80.7l2.5,2.2.7.6a1.8,1.8,0,0,1,.7.5,9.1,9.1,0,0,0,1.6,1.1,9.1,9.1,0,0,0,1.6,1.1l1.7,1.1,3.7,2.1,2,.9,2.2.9A58.4,58.4,0,0,0,48.9,94a59.1,59.1,0,0,0,10.4,1.2A53.6,53.6,0,0,0,79,91.7l2.1-.9,2.1-.9,1-.5.9-.5,1.9-1a53.2,53.2,0,0,0,6.3-4.3,49.9,49.9,0,0,0,8-7.7l1.1-1.3.8-1,.5-.6C103.8,72.8,103.9,72.8,103.9,72.8Z"/><path class="cls-8" d="M32.5,86.5a2.5,2.5,0,1,1-4.9,0,2.5,2.5,0,0,1,4.9,0Z"/><path class="cls-6" d="M32.5,86.5c-.1,0-.1-.2-.2-.6a2.9,2.9,0,0,0-.9-1.2,2.4,2.4,0,0,0-2.2-.3,2.3,2.3,0,0,0-1.5,2.1,2.4,2.4,0,0,0,1.5,2.2,2.4,2.4,0,0,0,2.2-.3,2.6,2.6,0,0,0,.9-1.3c.1-.4.1-.6.2-.6v.6a2.7,2.7,0,0,1-.9,1.5,2.7,2.7,0,0,1-2.5.4,2.5,2.5,0,0,1-1.7-2.5,2.5,2.5,0,0,1,1.7-2.4,2.4,2.4,0,0,1,2.5.4,2.2,2.2,0,0,1,.9,1.4Z"/><circle class="cls-7" cx="44.4" cy="93.1" r="2.5"/><path class="cls-6" d="M46.8,93.1a2.1,2.1,0,0,0-.1-.6,2.6,2.6,0,0,0-.9-1.3,2.3,2.3,0,0,0-3.7,1.9,2.3,2.3,0,0,0,1.5,2.1,2.4,2.4,0,0,0,2.2-.3,2.6,2.6,0,0,0,.9-1.3,1.8,1.8,0,0,0,.1-.5.9.9,0,0,1,0,.6,2.5,2.5,0,0,1-3.3,1.8,2.6,2.6,0,0,1-1.8-2.4,2.6,2.6,0,0,1,1.8-2.5,2.5,2.5,0,0,1,2.4.4,2.9,2.9,0,0,1,.9,1.4A1.4,1.4,0,0,1,46.8,93.1Z"/><path class="cls-3" d="M63.1,95.4a2.5,2.5,0,1,1-2.5-2.5A2.5,2.5,0,0,1,63.1,95.4Z"/><path class="cls-6" d="M63.1,95.4c-.1,0-.1-.2-.2-.6a2.4,2.4,0,0,0-.9-1.2,2.1,2.1,0,0,0-2.2-.3,2.2,2.2,0,0,0-1.5,2.1,2.3,2.3,0,0,0,1.5,2.1,2.4,2.4,0,0,0,2.2-.3,2.9,2.9,0,0,0,.9-1.2c.1-.4.1-.6.2-.6a2.8,2.8,0,0,1-.1.6,2.5,2.5,0,0,1-.8,1.5,3,3,0,0,1-2.5.4,2.6,2.6,0,0,1,0-5,3,3,0,0,1,2.5.4,2.5,2.5,0,0,1,.8,1.5A2.8,2.8,0,0,1,63.1,95.4Z"/><path class="cls-8" d="M80,92.4a2.5,2.5,0,1,1-2.5-2.5A2.5,2.5,0,0,1,80,92.4Z"/><path class="cls-6" d="M80,92.4c-.1,0-.1-.2-.2-.6a2.2,2.2,0,0,0-.9-1.2,2.3,2.3,0,0,0-2.2-.3,2.3,2.3,0,0,0,0,4.2,2.3,2.3,0,0,0,2.2-.3,1.9,1.9,0,0,0,.9-1.2c.1-.4.1-.6.2-.6V93a2.7,2.7,0,0,1-.9,1.5,3,3,0,0,1-2.5.4,2.7,2.7,0,0,1,0-5,3,3,0,0,1,2.5.4,2.7,2.7,0,0,1,.9,1.5Z"/><path class="cls-7" d="M95.6,84.1a2.5,2.5,0,0,1-4.9,0,2.5,2.5,0,1,1,4.9,0Z"/><path class="cls-6" d="M95.6,84.1a2.8,2.8,0,0,0-.1-.6,2.6,2.6,0,0,0-.9-1.3,2.3,2.3,0,0,0-3.7,1.9,2.3,2.3,0,0,0,1.5,2.1,2.4,2.4,0,0,0,2.2-.3,2.9,2.9,0,0,0,.9-1.2,2.8,2.8,0,0,0,.1-.6.9.9,0,0,1,0,.6,2.5,2.5,0,0,1-3.3,1.8,2.6,2.6,0,0,1-1.8-2.4,2.6,2.6,0,0,1,1.8-2.5,2.5,2.5,0,0,1,2.4.4,2.7,2.7,0,0,1,.9,1.5A1.1,1.1,0,0,1,95.6,84.1Z"/><rect class="cls-6" x="166.3" y="81.5" width="182.1" height="323.32" rx="16.8"/><path class="cls-7" d="M166.3,376.5H348.4a0,0,0,0,1,0,0v11.8a16.5,16.5,0,0,1-16.5,16.5H183.3a17,17,0,0,1-17-17V376.5A0,0,0,0,1,166.3,376.5Z"/><path class="cls-7" d="M183.1,81.5H331.8a16.6,16.6,0,0,1,16.6,16.6v4.6a0,0,0,0,1,0,0H166.3a0,0,0,0,1,0,0V98.3A16.8,16.8,0,0,1,183.1,81.5Z"/><circle class="cls-5" cx="257.8" cy="93.3" r="4.3"/><path class="cls-4" d="M318.1,112h0a25.8,25.8,0,0,1,25.8,25.7V376.5H173.3V115Z"/><g class="cls-11"><path d="M169,396.9H279.4A33.6,33.6,0,0,0,313,363.3V140.9s.7-21.9,10-26.6l-56.3,9.3,4.6,244.9-105,19.2S166.4,393.8,169,396.9Z"/></g><path class="cls-2" d="M139.2,154.3V392.5H268.8c20.2,0,36.7-11.9,36.7-44.7v-235H173.3C154.5,112.8,139.2,131.4,139.2,154.3Z"/><path class="cls-6" d="M139.2,342.3v-2.9c-.1-1.9-.1-4.6-.1-8.2,0-7.1,0-17.4-.1-30.1,0-25.4,0-60.5-.1-99.2V173.6c.1-4.6.1-9.1.1-13.5s-.2-8.7.5-12.9a44.6,44.6,0,0,1,9.1-21.8,36.6,36.6,0,0,1,7.9-7.4c.7-.6,1.5-.9,2.2-1.4l1.1-.6,1.1-.5,2.3-1,2.3-.8,2.3-.5,2.3-.4c1.5,0,3-.2,4.4-.1h0a31.7,31.7,0,0,0-4.3.2l-2.3.4a10.6,10.6,0,0,0-2.3.5l-2.2.7-2.3,1-1.1.5-1.1.7-2.2,1.3a38.7,38.7,0,0,0-7.8,7.4,44.2,44.2,0,0,0-8.9,21.6c-.7,4.1-.5,8.5-.5,12.8v41.8c-.1,38.7-.1,73.8-.1,99.2,0,12.7-.1,23-.1,30.1v8.2a17.9,17.9,0,0,0-.1,2.1Z"/><circle class="cls-8" cx="175.3" cy="170.7" r="14.9"/><polygon class="cls-5" points="174.4 177.7 166.7 171.7 168.8 169 174 173 181.3 164.6 183.8 166.8 174.4 177.7"/><path class="cls-2" d="M325.7,113.2c-10.5,3.6-20.3,11.7-20.2,26.6v25.1H294V112.6l26.4-.5A13.6,13.6,0,0,1,325.7,113.2Z"/><rect class="cls-3" x="202.3" y="163" width="73.8" height="8.67"/><rect class="cls-3" x="202.3" y="182.2" width="45.1" height="8.67"/><circle class="cls-8" cx="175.3" cy="226.3" r="14.9"/><rect class="cls-3" x="202.3" y="218.7" width="73.8" height="8.67"/><rect class="cls-3" x="202.3" y="237.8" width="45.1" height="8.67"/><path class="cls-8" d="M175.3,297.3a15.4,15.4,0,1,1,15.3-15.4A15.4,15.4,0,0,1,175.3,297.3Zm0-29.7a14.4,14.4,0,1,0,14.3,14.3A14.4,14.4,0,0,0,175.3,267.6Z"/><rect class="cls-3" x="202.3" y="274.3" width="73.8" height="8.67"/><rect class="cls-3" x="202.3" y="293.4" width="45.1" height="8.67"/><path class="cls-8" d="M175.3,352.9a15.4,15.4,0,1,1,15.3-15.3A15.3,15.3,0,0,1,175.3,352.9Zm0-29.7a14.4,14.4,0,1,0,0,28.7,14.4,14.4,0,0,0,0-28.7Z"/><rect class="cls-3" x="202.3" y="329.9" width="73.8" height="8.67"/><rect class="cls-3" x="202.3" y="349.1" width="45.1" height="8.67"/><g class="cls-11"><path d="M263.2,352.4H248.4l-7.7,15.5c0,.4,20.1,24.6,20.1,24.6h11.7C251.5,385.3,263.2,352.4,263.2,352.4Z"/></g><path class="cls-4" d="M90.2,342.3c0,1.1-4.3,43.9,24,50.2H272.5s-29.8-10.2-23.1-50.2Z"/><polygon class="cls-5" points="174.4 233.9 166.7 227.9 168.8 225.2 174 229.2 181.3 220.8 183.8 223 174.4 233.9"/><path class="cls-6" d="M268.8,392.5h3.1c1,0,2.3-.3,3.8-.4l2.4-.5,2.6-.7a29.6,29.6,0,0,0,12.3-6.9,34.9,34.9,0,0,0,9.6-15.9,50.7,50.7,0,0,0,2.1-10.7l.3-2.9c.1-1,.1-1.9.2-2.9s.1-4,.1-6.1c0-8.2-.1-17-.1-26.3V258.8c0-42.7.1-81.4.1-109.4v-10a29.9,29.9,0,0,1,1.6-8.8,23.9,23.9,0,0,1,3.7-6.9A25.1,25.1,0,0,1,315,119a25.4,25.4,0,0,1,7.7-4.7,26.9,26.9,0,0,1,3-1.1l-.8.3-2.2.9a29.9,29.9,0,0,0-7.5,4.7,29.5,29.5,0,0,0-4.4,4.8,25.8,25.8,0,0,0-3.6,6.8,32.8,32.8,0,0,0-1.6,8.7c0,3.1.1,6.5.1,10V345.3c0,2.1-.1,4.1-.1,6.1s-.1,2-.2,2.9l-.3,2.9A68.9,68.9,0,0,1,303,368a34.9,34.9,0,0,1-9.8,16,30.5,30.5,0,0,1-12.4,6.9l-2.7.7-2.4.4a32.9,32.9,0,0,1-3.8.4h-3.1Z"/><path class="cls-6" d="M114.2,392.5l-1.1-.3-1.3-.3-1.8-.7a25.6,25.6,0,0,1-10-6.9c-3.5-4-6.5-10-8.2-17.2A81.7,81.7,0,0,1,90,342.3V342H249.6v.3c-1.5,8.9-1.3,17.4.7,24.4a38.2,38.2,0,0,0,9,16.4,39.9,39.9,0,0,0,9.4,7.5c1.2.7,2.2,1.1,2.8,1.4l1,.5-1-.4-2.9-1.4a38.5,38.5,0,0,1-9.5-7.4,39.9,39.9,0,0,1-9.2-16.5c-2-7.1-2.2-15.6-.8-24.6l.3.3H90.2l.2-.2A84.5,84.5,0,0,0,92.1,367a41.3,41.3,0,0,0,8.1,17.1,25.2,25.2,0,0,0,9.9,7l1.7.7,1.3.3Z"/><path class="cls-8" d="M282.1,97.7c.4-5.3,4.7-9.4,9.2-12.4a5.8,5.8,0,0,0,1.9-1.6,2.2,2.2,0,0,0,.4-2.3c-.5-1-1.8-1.3-2.9-1.4l-5.3-.5.9-7.5a39.3,39.3,0,0,1,9.1,1.5,12.8,12.8,0,0,1,7.2,5.5c1.5,2.6,1.7,6.2-.2,8.6s-3.7,2.8-5.2,4.6a6.8,6.8,0,0,0-.9,7.2c.8,1.7,2.4,3.2,2.4,5.1s-2.7,4.3-5.3,4.5a10.6,10.6,0,0,1-8.3-3A10.4,10.4,0,0,1,282.1,97.7Z"/><path class="cls-8" d="M285.5,82.1A17.6,17.6,0,0,0,287,66a19.2,19.2,0,0,0-12.3-10.6,20.9,20.9,0,0,0-16.2,2.1,37.6,37.6,0,0,1-5.5,3.2c-2,.8-9,1.9-10.7.6l-9.1,19.3,4.2,1.1Z"/><path class="cls-8" d="M213.1,73.1s-5.5-4.6-5.3-6,7.3-2.9,7.3-2.9.1-2.1,3.8-4.9,5.6-2.8,5.6-2.8,1.8-8.6,4.4-8.5,6.2,9.3,6.2,9.3,7.5.9,8.3,8.1-1.2,14-5.3,14.9-19.7,5.2-22.8-2"/><path class="cls-7" d="M225.7,72.3h0Z"/><polygon class="cls-7" points="225.9 72.3 225.9 72.3 225.9 72.3 225.9 72.3"/><g class="cls-11"><path d="M226.6,56.6a23.1,23.1,0,0,1,5.9.4c-.6-1.7-1.3-3.4-1.9-5.2s-.6-1.2-1.2-1.2a1.3,1.3,0,0,0-.9.7,19.1,19.1,0,0,0-1.7,5.1"/></g><g class="cls-11"><path d="M269.1,69.9a31.1,31.1,0,0,0-3.2-5.6,7.8,7.8,0,0,0-3.2,8.1,7.7,7.7,0,0,0-6,3,5.1,5.1,0,0,0,.2,6.5l8.8-1.2a6.2,6.2,0,0,0,4-4.6A9.4,9.4,0,0,0,269.1,69.9Z"/></g><path class="cls-8" d="M271.4,61.2c-8-.5-8.6,8.3-5.3,13.3a10.6,10.6,0,0,0-7,1.1,5.1,5.1,0,0,0-2.4,2.2c-.5,1,.2,3.5,1,4.3h23.9"/><path class="cls-6" d="M281.6,82.1h-24a4.5,4.5,0,0,1-1-2.1,3.6,3.6,0,0,1,0-2.5,5.2,5.2,0,0,1,2-1.9,11.2,11.2,0,0,1,2.5-1.1,10.6,10.6,0,0,1,5-.2v.2a11.4,11.4,0,0,1-1.9-7.1,6.6,6.6,0,0,1,2.5-5.1,6.3,6.3,0,0,1,3.5-1.2h0a6.1,6.1,0,0,0-3.4,1.2,6.7,6.7,0,0,0-2.4,5,12.1,12.1,0,0,0,1.9,6.9l.2.3H266a11.8,11.8,0,0,0-4.9.3,9.4,9.4,0,0,0-2.3,1,5,5,0,0,0-1.9,1.9,3.3,3.3,0,0,0,0,2.2,4.6,4.6,0,0,0,.9,2h23.8Z"/><path class="cls-6" d="M287.4,67.2a6.9,6.9,0,0,1,.5,1.7,22.9,22.9,0,0,1,.3,4.1,20.3,20.3,0,0,1-.7,4.2,7,7,0,0,1-.5,1.6,6.5,6.5,0,0,1,.3-1.7,15.3,15.3,0,0,0,.5-4.1,17.3,17.3,0,0,0-.2-4.1C287.5,67.9,287.4,67.2,287.4,67.2Z"/><g class="cls-11"><path d="M237,82.1a8.9,8.9,0,0,1,4.1-7.4,6.1,6.1,0,0,1,1.1-6.2c.1,1.8,1.6,3.3,2.1,5a7.3,7.3,0,0,1-.7,4.8,16.1,16.1,0,0,1-3.2,3.7,3.6,3.6,0,0,1-1.4,1.1,1.9,1.9,0,0,1-1.8,0"/></g><path class="cls-8" d="M242.6,67.9a6.5,6.5,0,0,0,.2,6.7,2.2,2.2,0,0,1,.5.8,1.8,1.8,0,0,1-.9,1.3,20.7,20.7,0,0,0-5.6,6.2s-4.4,7.2.1,10.3,7.5-4.4,9.3-6.4a35.6,35.6,0,0,1,6-4.8c3.6-1.8,3.6-3.8,3.4-5.3a10.5,10.5,0,0,0-1.7-4.1c-.8-1.3-1.7-2.5-2.4-3.8"/><path class="cls-6" d="M251.5,68.8l.2.2.4.8,1.8,2.6a11.4,11.4,0,0,1,1.8,4.6,3.7,3.7,0,0,1-.7,3,7.4,7.4,0,0,1-2.8,2.1h.1l-3.2,2.2a26.2,26.2,0,0,0-3,2.8l-2.5,3.6a8.1,8.1,0,0,1-3.4,3.2,3.2,3.2,0,0,1-1.7.2l-.8-.2-.8-.5a4.6,4.6,0,0,1-1.9-2.6,9.6,9.6,0,0,1,.7-6.1,19.9,19.9,0,0,1,3-4.7,18,18,0,0,1,3.6-3.3c.3-.3.6-.5.7-.8a.7.7,0,0,0,0-.9,12.9,12.9,0,0,1-.9-1.6,8.6,8.6,0,0,1-.4-3,9.8,9.8,0,0,1,.5-1.9l.4-.6a4.9,4.9,0,0,0-.7,2.5,6.3,6.3,0,0,0,.4,2.9,7,7,0,0,0,.9,1.7.9.9,0,0,1,0,1,2,2,0,0,1-.8.8,21.5,21.5,0,0,0-3.5,3.3,18.6,18.6,0,0,0-2.9,4.7,9.2,9.2,0,0,0-.7,5.9,4.1,4.1,0,0,0,1.8,2.5,3.2,3.2,0,0,0,3,.4,9.5,9.5,0,0,0,3.3-3c.9-1.2,1.6-2.5,2.5-3.7a16.4,16.4,0,0,1,3.1-2.8,29.5,29.5,0,0,1,3.1-2.2h0a9.5,9.5,0,0,0,2.7-2,3.7,3.7,0,0,0,.7-2.8,10.1,10.1,0,0,0-1.8-4.6L252,69.8Z"/><g class="cls-12"><path class="cls-5" d="M221,69.7l.4-.7a4.2,4.2,0,0,1,.4-1l-4.7-7.1a12.2,12.2,0,0,1,3.6-2.8,26.7,26.7,0,0,0,3.4,8.2l.9-.2a4.1,4.1,0,0,1,4,2.6,4,4,0,0,1-1.1,4.5,4.1,4.1,0,0,1-4.6.6A4.5,4.5,0,0,1,221,69.7Z"/></g><path class="cls-6" d="M224.3,66.6a4.4,4.4,0,0,0-2.3,1.7c-.2.2-.1.5.2.6l1.5.3a.5.5,0,0,0,.4-.2l.6-2C224.8,66.7,224.5,66.4,224.3,66.6Z"/><path class="cls-6" d="M223.8,69l.2.3a6.1,6.1,0,0,0,.4.6l1,.6a3.2,3.2,0,0,0,1.4.2,2.7,2.7,0,0,0,1.2-.6,2.7,2.7,0,0,0,.6-1,2,2,0,0,0,.1-.7v-.3c-.1,0,0,.4-.2,1a2.4,2.4,0,0,1-.6.9,1.7,1.7,0,0,1-1.2.5,2.9,2.9,0,0,1-1.3-.1l-.9-.6C224,69.4,223.9,69,223.8,69Z"/><path class="cls-6" d="M221.6,72.8h.2l.7.2h1.1a1.6,1.6,0,0,0,.9-.9,2,2,0,0,0,.2-1.3l-.3-1-.4-.6V69c-.1,0,.2.3.4.9a9.4,9.4,0,0,1,.3.9,3,3,0,0,1-.2,1.3,1.8,1.8,0,0,1-.9.8h-1Z"/><path class="cls-6" d="M224.8,72.6h.5a1.6,1.6,0,0,0,1-.3,1.3,1.3,0,0,0,.7-.8,1,1,0,0,0,.1-.4l-.2.4a1.5,1.5,0,0,1-.7.7,1.9,1.9,0,0,1-.9.3Z"/><path class="cls-8" d="M223.2,57.7a8.4,8.4,0,0,1,2.8-2,1.9,1.9,0,0,0-.4,1.2,11.5,11.5,0,0,1,5.2-1l-.8,1-4.1,2.4Z"/><path class="cls-5" d="M220.9,68.6a3.7,3.7,0,0,1-1.3,5,3.7,3.7,0,0,1-3.6-6.4A3.5,3.5,0,0,1,220.9,68.6Z"/><path class="cls-6" d="M220.9,68.6a2.1,2.1,0,0,0-.5-.7,4.1,4.1,0,0,0-2.1-1.1,5.2,5.2,0,0,0-1.7.2,3.9,3.9,0,0,0-1.5,1.1,3.5,3.5,0,0,0-.6.9,3,3,0,0,0-.2,1,3.5,3.5,0,0,0,.4,2.2,4.1,4.1,0,0,0,1.7,1.5l1,.2h1a3,3,0,0,0,1.7-.8,3.1,3.1,0,0,0,1-1.3,4.2,4.2,0,0,0,.2-2.4l-.4-.8h.1v.2c0,.1,0,.1.1.2s.1.3.1.4a3.1,3.1,0,0,1,.2,1.1,3.5,3.5,0,0,1-.3,1.3,3.3,3.3,0,0,1-1,1.4,3.7,3.7,0,0,1-1.8.8h-1l-1.1-.3a3.7,3.7,0,0,1-1.7-1.6,3.6,3.6,0,0,1-.5-2.2l.3-1.1a4.7,4.7,0,0,1,.6-.9,3.6,3.6,0,0,1,1.6-1.1,3.3,3.3,0,0,1,1.7-.1,2.8,2.8,0,0,1,1.3.4,1.9,1.9,0,0,1,.8.7l.3.3a.3.3,0,0,1,.1.2h.1C220.9,68.6,221,68.6,220.9,68.6Z"/><path class="cls-8" d="M215.4,72.6c-.9-.9-1.2-2.1-.7-2.7s1.7-.1,2.7.8,1.2,2.2.7,2.7S216.3,73.6,215.4,72.6Z"/><path class="cls-5" d="M217.3,70c.1,0,0,.5-.2,1s-.6.8-.7.7,0-.5.2-1S217.2,69.9,217.3,70Z"/><path class="cls-5" d="M232,61.7a3.5,3.5,0,0,1-1.4,4.9,3.7,3.7,0,0,1-5-1.3,3.7,3.7,0,0,1,6.4-3.6Z"/><path class="cls-6" d="M232,61.7c-.1,0-.2-.3-.6-.7a3.5,3.5,0,0,0-2.1-1.1,3.5,3.5,0,0,0-1.7.2,3.1,3.1,0,0,0-1.5,1.1l-.6.8a4.3,4.3,0,0,0-.2,1.1,3.1,3.1,0,0,0,.4,2.1,3.5,3.5,0,0,0,1.7,1.5,1.7,1.7,0,0,0,1,.3h1a3,3,0,0,0,1.7-.8,3.8,3.8,0,0,0,1-1.3,4.2,4.2,0,0,0,.2-2.4c-.2-.6-.4-.8-.3-.8h0v.2a.3.3,0,0,0,.1.2c0,.1.1.2.1.4a2.5,2.5,0,0,1,.2,1,3.9,3.9,0,0,1-.3,1.4,3.3,3.3,0,0,1-1,1.4,3.7,3.7,0,0,1-1.8.8,1.7,1.7,0,0,1-1,0,2.3,2.3,0,0,1-1.1-.3,3.5,3.5,0,0,1-1.7-1.5,3.7,3.7,0,0,1-.5-2.3l.3-1a3.5,3.5,0,0,1,.6-.9,2.9,2.9,0,0,1,1.6-1.1,3.5,3.5,0,0,1,1.7-.2l1.3.5.8.6.3.3v.4A.1.1,0,0,1,232,61.7Z"/><path class="cls-8" d="M226.5,65.5c-.9-1-1.1-2.2-.6-2.7s1.8-.1,2.7.9,1.1,2.2.5,2.7S227.3,66.5,226.5,65.5Z"/><path class="cls-5" d="M228.6,63c.1,0,0,.5-.3.9s-.7.7-.8.6,0-.5.4-.9S228.5,62.9,228.6,63Z"/><path class="cls-6" d="M227.3,68.2l8.9-5.2,8.8-5.3-8.9,5.2C231.3,65.8,227.3,68.1,227.3,68.2Z"/><path class="cls-6" d="M227.3,68.9h.2l.4-.2,1.7-.7,5.4-2.6,5.3-2.9,1.6-.9.4-.3a.1.1,0,0,0,.1-.1h-.1l-.5.2-1.6.9-5.3,2.9-5.4,2.6-1.6.8-.5.2Z"/><path class="cls-6" d="M211.5,80.9l5.8-4.8,5.7-4.9L217.2,76Z"/><path class="cls-6" d="M215.1,81.3l3.9-4.5c2.2-2.5,3.9-4.5,3.8-4.5l-3.9,4.4Z"/><path class="cls-5" d="M222.6,68l.8-.6.9-.5-1,.4C222.8,67.6,222.5,68,222.6,68Z"/><g class="cls-11"><path d="M289.2,73.6a1.5,1.5,0,0,0-1.2-1.4,58.3,58.3,0,0,1-1,7.3c1.2-.7,1.8-2.8,2.1-4.1A5.5,5.5,0,0,0,289.2,73.6Z"/></g><path class="cls-13" d="M130.7,233.1s6.6,28.3,6.9,46,.6,45.7-3.1,76.6-6.8,44.6-6.8,44.6l-13-2.1s-.4-18.7-1.7-34.2c-1.4-17.3,1.3-23.8-.4-42.9s-8.1-31.2-10.9-37a39.3,39.3,0,0,1-8.2-21.7c-.6-12.5,2.4-29.3,2.4-29.3Z"/><path class="cls-13" d="M111.3,271.6c-.3.9-4.7,23-8.7,40.2s-6.7,33.1-10.5,46.5c-5.6,19.8-10.4,39.8-10.4,39.8l-14.1,1.3c.9-.6,0-29.6,4.9-52.6s6.8-51.7,6.2-60.3-1.2-18.2,1-30.2,5.9-16.2,5.9-16.2l16.8-.7Z"/><path class="cls-8" d="M74.5,299.5l30.3,3.9.8-5.6,1.4,5.1,32.3-.4c-.7-17.8-1.4-34.9-3.5-44.4l-57.9-3.4s-1.6,13.3-2,20.2C75.3,283.6,74.5,299.5,74.5,299.5Z"/><path class="cls-6" d="M106.6,302.7c-.1,0-.1-.6-.2-1.6s-.4-2.4-.8-4.2a41.2,41.2,0,0,0-5.6-12.8c-1.5-2.3-3-4.4-4.2-6.5a26.5,26.5,0,0,1-2.5-6,13.6,13.6,0,0,1-.4-4.2c.1-.5.1-.9.2-1.2a.6.6,0,0,1,.1-.4,15.1,15.1,0,0,0,.5,5.8,24.8,24.8,0,0,0,2.5,5.7c1.2,2.1,2.7,4.2,4.2,6.5a40.6,40.6,0,0,1,5.6,13,33,33,0,0,1,.6,4.3v1.6Z"/><path class="cls-13" d="M114.5,391.2c.2,1.6.4,8.4-.2,10.3a28.4,28.4,0,0,0-1.2,5.6c-.3,2-.3,4.2,1.1,5.4s5,.9,7.7.7c6.9-.5,11.3,3.5,18,1.7a6.6,6.6,0,0,0,3.6-2.3,4.5,4.5,0,0,0,.7-4.3c-1.1-2.4-4-2.7-6.4-3.1-5-.8-6-2.2-9.2-6.4l1.7-12.3Z"/><path class="cls-13" d="M68.3,387.9c.1,1.6-.4,11.7-.9,13.6a23.3,23.3,0,0,0-1.3,5.6c-.3,2-.3,4.2,1.1,5.4s5.1.9,7.7.7c6.9-.5,11.3,3.5,18,1.7a6.6,6.6,0,0,0,3.6-2.3,4.5,4.5,0,0,0,.7-4.3c-1.1-2.4-4-2.7-6.4-3.1-5-.8-6-2.2-9.2-6.4l1.7-12.3Z"/><path class="cls-6" d="M89.6,119.4a11.5,11.5,0,0,1,8.9.9,6.8,6.8,0,0,1,11.8,1.8,5.8,5.8,0,0,1,5.8,9.8,8,8,0,0,1,4.3,4.9,7.6,7.6,0,0,1-1.2,6.4c2.2,1.1,2.6,4.1,2.3,6.6s-1.1,5,0,7.3,2.6,2.7,3.8,4.2,1.6,4.1,0,5.1a5.1,5.1,0,1,1-1.9,10.1,6.4,6.4,0,0,1-.6,6.1,10,10,0,0,1-5.1,3.7,15.2,15.2,0,0,1-16.6-4.7L82.8,125.1A11.6,11.6,0,0,1,89.6,119.4Z"/><path class="cls-13" d="M80.9,135l-.2-3,18.1-4.6c5.6-1,12.1,4.3,12.8,10s1.5,14,1,18.7c-.9,9.6-8.1,11.2-8.1,11.2l.5,9.4-20.9,1.5Z"/><path class="cls-6" d="M109.4,146.4a1.4,1.4,0,0,1-1.1,1.3,1.1,1.1,0,0,1-1.3-1,1.1,1.1,0,0,1,1-1.3A1.2,1.2,0,0,1,109.4,146.4Z"/><path class="cls-6" d="M109.8,141.5c-.1.2-1.1-.4-2.4-.3a10.7,10.7,0,0,0-2.4.6,1.1,1.1,0,0,1,.5-.7,3.3,3.3,0,0,1,3.8-.2C109.7,141.2,109.9,141.5,109.8,141.5Z"/><path class="cls-6" d="M97.9,147.1a1.2,1.2,0,0,1-2.4.3,1.2,1.2,0,0,1,1.1-1.3A1.1,1.1,0,0,1,97.9,147.1Z"/><path class="cls-6" d="M97,142.5c-.1.2-1.1-.4-2.4-.3s-2.2.8-2.4.6a1.1,1.1,0,0,1,.5-.7,4.2,4.2,0,0,1,1.9-.7,3.3,3.3,0,0,1,1.9.5C96.9,142.2,97.1,142.5,97,142.5Z"/><path class="cls-6" d="M102.3,151.9l2.1-.5c.4,0,.7-.1.7-.3s-.1-.6-.3-1-.7-1.6-1.1-2.5c-1.6-3.5-2.8-6.4-2.6-6.5a46.9,46.9,0,0,1,3.1,6.3,27.2,27.2,0,0,1,1.1,2.5,1.8,1.8,0,0,1,.3,1.3,1.5,1.5,0,0,1-.6.5h-.5A5.4,5.4,0,0,1,102.3,151.9Z"/><path class="cls-14" d="M104.5,167.3a25.1,25.1,0,0,1-13.2-2.6s3.6,6.4,13.3,5Z"/><path class="cls-6" d="M96.7,138c-.1.4-1.4.2-3,.4s-2.7.6-2.9.3.1-.5.6-.8a4.4,4.4,0,0,1,2.2-.8,4,4,0,0,1,2.3.3C96.5,137.6,96.8,137.9,96.7,138Z"/><path class="cls-6" d="M109.5,138.3c-.2.3-1.1.1-2.2.1s-2,.4-2.2.1,0-.5.4-.8a2.9,2.9,0,0,1,1.7-.6,2.8,2.8,0,0,1,1.8.5C109.5,137.8,109.6,138.1,109.5,138.3Z"/><path class="cls-14" d="M101.4,155.1a2.5,2.5,0,0,0-2-1,2.4,2.4,0,0,0-1.5.7,1.4,1.4,0,0,0-.2,1.6,1.5,1.5,0,0,0,1.6.5,4.6,4.6,0,0,0,1.7-.9.8.8,0,0,0,.4-.4.4.4,0,0,0,0-.5"/><path class="cls-6" d="M98.3,152.7c.2,0,.1,1.4,1.2,2.5s2.7.9,2.7,1.1-.4.3-1,.3a3.7,3.7,0,0,1-2.2-.9,3.1,3.1,0,0,1-1-2.1C98,153.1,98.2,152.7,98.3,152.7Z"/><path class="cls-13" d="M76,184.1l-.9-1.6s-5.8,7.1-6.4,11.7-3.4,24.1-4.8,33.7a13.7,13.7,0,0,0,3,11c2.5,2.9,6.3,4.9,11.4,1.5,3.5-2.3,12.5-12,12.5-12Z"/><path class="cls-3" d="M85.6,229.3l-25.1-4s5.1-27.2,6.7-30.5,4.9-8.1,4.9-8.1l12.3,26.4Z"/><path class="cls-3" d="M139.4,269.6s-1-10.1-3-21.4c-2.4-13.8-10.3-37.6-10.3-37.6L83.6,230.1l.8,8.8s-9,17-9.8,30.9C93.9,276.3,116.8,275.1,139.4,269.6Z"/><path class="cls-3" d="M72.2,180.7l35.7-5.7s9.8,16.1,13.5,32.9,5.2,28.9,5.2,28.9l-28.9,4.4c-3.5.4-8.1,4.5-11.5,4.1l-3.5-.5,2.8-10.7a204.2,204.2,0,0,1-10.1-27.7C71,189.8,72.2,180.7,72.2,180.7Z"/><path class="cls-13" d="M156.8,186.2c-.1.3-13.9,19.3-13.9,19.3S130,192.1,126,187.1l-6.7,21.6s13.3,13.3,19.2,15.5,10.5-1.1,13-3.6,13.2-27.1,13.2-27.1Z"/><path class="cls-3" d="M104.5,175.6s5.6-3.2,11.2.1,27.7,25.9,27.7,25.9l-13.9,17.7-21.4-20.7-1.4-12.5Z"/><path class="cls-14" d="M143.2,214.2a23.5,23.5,0,0,0,.2-4.2,27.7,27.7,0,0,0-.3-4.1,21.9,21.9,0,0,0-.2,4.1A30.1,30.1,0,0,0,143.2,214.2Z"/><g class="cls-11"><path d="M122.8,212.9c-3.6-.5-7.2-1.3-9.6-3.8a14.7,14.7,0,0,1-3.9-9.4C114.3,204.1,118.6,208.9,122.8,212.9Z"/></g><path class="cls-6" d="M143.4,201.6l-.3.4-.7,1-2.8,3.8L130,219.5l-.2.2-.2-.2-3.1-2.9-13.7-13.2-4.1-4.1-1.1-1.1c-.2-.2-.4-.4-.3-.4l.4.3,1.2,1.1,4.2,3.9,13.8,13.1,3.1,3h-.4l9.7-12.6,3-3.7.8-1Z"/><path class="cls-6" d="M83.9,238.1a6.3,6.3,0,0,1-.1-2c-.1-1.5-.1-3.3-.1-5.5h0c-1-2.5-2.1-5.5-3.3-8.7s-3.2-8.3-4.2-11.2c-.5-1.3-.9-2.5-1.2-3.4a6.3,6.3,0,0,1-.4-1.3c.1,0,.3.5.6,1.3s.8,2,1.4,3.3c1.1,2.9,2.6,6.8,4.2,11.2s2.3,6.2,3.3,8.7h0c0,2.2-.1,4-.1,5.5A15.7,15.7,0,0,1,83.9,238.1Z"/><path class="cls-13" d="M173.1,171.5s0-2.7-2.6-1.1-11.4,10.5-14.2,15.5l-4.9,7.9,9.8,7.7,2.8-6.8s7.6-4.4,8.6-5.1,2.8-4.5-.8-3.9c0,0,1.4-3.8-2.1-3.6,0,0,.9-2.8-2.5-3.4Z"/><g class="cls-11"><path d="M73.5,181.6,96,176.9c.8,1.9-.6,7-2.6,7.6a7.1,7.1,0,0,1,.1,6.9,7.4,7.4,0,0,1-5.8,3.8,5.5,5.5,0,0,0-1.8.2c-1.2.5-1.8,1.8-2.5,2.9a6.9,6.9,0,0,1-4.2,2.9,4.9,4.9,0,0,1-4.7-1.6,8.6,8.6,0,0,1-1.3-4.8A97,97,0,0,1,73.5,181.6Z"/></g><path class="cls-6" d="M81.6,111.2c-2.2-2.7-5.6-2.6-7.8-1.8a6.1,6.1,0,0,0-4,5.1,6.8,6.8,0,0,0-8.2,3.2,6.8,6.8,0,0,0,2.5,8.4,5.6,5.6,0,0,0,3.1,5.9,5.7,5.7,0,0,0,6.4-1.6l9.2-10.5A7.9,7.9,0,0,0,81.6,111.2Z"/><path class="cls-8" d="M84.7,119.8a2.8,2.8,0,0,0-2.5-.6,8.2,8.2,0,0,0-2.4,1,2.6,2.6,0,0,0-1,.7.9.9,0,0,0-.2,1.1,2.9,2.9,0,0,0-3.5.7,2.8,2.8,0,0,0,2.7,4.6l-1.2.4a11.1,11.1,0,0,0,7-2.7,4.9,4.9,0,0,0,1.7-2.4A2.8,2.8,0,0,0,84.7,119.8Z"/><path class="cls-7" d="M111.2,133.2c0,.1.1.1.3.2h1a3.7,3.7,0,0,0,2.9-2,3.5,3.5,0,0,0,.4-2.5,4.9,4.9,0,0,0-1.3-2.6,6.4,6.4,0,0,0-2.8-1.6,7.8,7.8,0,0,0-3.4.1,10.6,10.6,0,0,0-1.9.6l.3.2a7.7,7.7,0,0,0-4.1-4.2,7.2,7.2,0,0,0-4.7-.5,6.6,6.6,0,0,0-2.8,1.3l-.7.5-.2.2c.1.1.3-.2,1-.6a6.8,6.8,0,0,1,2.8-1.1,7.3,7.3,0,0,1,4.5.5,8.2,8.2,0,0,1,3.8,4v.2h.2l1.8-.6a6.9,6.9,0,0,1,3.2,0,5.1,5.1,0,0,1,2.6,1.4,5.2,5.2,0,0,1,1.3,2.4,3.7,3.7,0,0,1-.4,2.3,3.9,3.9,0,0,1-2.6,2A2.5,2.5,0,0,1,111.2,133.2Z"/><path class="cls-7" d="M65.4,146.8a7,7,0,0,1-.4-1.1,8.3,8.3,0,0,1-.2-3.3,6.9,6.9,0,0,1,2.3-4.1,7.2,7.2,0,0,1,5.5-1.9H73v-.3a14.2,14.2,0,0,1-.4-2,9.6,9.6,0,0,1,2.1-6.3,9.4,9.4,0,0,1,4.7-2.8A11.8,11.8,0,0,1,83,125c.9.2,1.4.4,1.4.3h-.3l-1-.3a8.7,8.7,0,0,0-8.8,2.8,9.5,9.5,0,0,0-2.2,6.5,7.8,7.8,0,0,0,.4,2.1l.2-.3a7.9,7.9,0,0,0-5.9,2,7.6,7.6,0,0,0-2.3,4.4,7.8,7.8,0,0,0,.3,3.3,5.6,5.6,0,0,0,.4.8C65.3,146.7,65.3,146.8,65.4,146.8Z"/><path class="cls-6" d="M111.5,130.6a15.8,15.8,0,0,0-8.6-5.7l-15.3,1.9H86.3c-.3-1-1.9-1.5-1.9-1.5s-6.4-1.1-9.9,2.5c-1.3,1.3-2.2,4.6-2.2,6.4s.7,1.6.2,2l-2.1.2c-3.9.8-6.4,4.3-5.6,9.4a2.2,2.2,0,0,1,0,.8c0,.4-.4.7-.6,1a6.7,6.7,0,0,0-1.1,7.5,7.7,7.7,0,0,1,1,2.3c.3,1.5-.8,2.8-1.6,4-2.5,3.7-3.1,9.1-.2,12.5a8.3,8.3,0,0,1,1.3,1.4,24.2,24.2,0,0,0-.9,6c.2,4.3,2.8,8.9,7.1,9.9a4.6,4.6,0,0,0,1.9,5.9,6.4,6.4,0,0,0,6.5-.5,8.9,8.9,0,0,0,3.6-5.6,5.9,5.9,0,0,0,8.2-7.3,3.8,3.8,0,0,0,4.5-2.1,6.3,6.3,0,0,0-.2-5.2,17.9,17.9,0,0,0-3-4.2,6.4,6.4,0,0,0,.9-4.9c-.4-2.2-2.1-3.3-2.7-5.2s.5-4.8-.4-6.3-1.9-2.1-2.5-3.4-.2-4,.1-6A20.2,20.2,0,0,0,85.5,135a5.4,5.4,0,0,1-.1-1.1c0-2.3,2.9-1.1,5.1-.3l1.6.2a5.9,5.9,0,0,0,4.8-2.2,8.5,8.5,0,0,0,8.3,2.3,24.9,24.9,0,0,0,4,4.6,7.7,7.7,0,0,0,5.6,1.9A15.9,15.9,0,0,0,111.5,130.6Z"/></g></g></svg>