<svg xmlns="http://www.w3.org/2000/svg" viewBox="0 0 500 416.4"><defs><style>.cls-1{fill:#e0e0e0;}.cls-2{fill:#ebebeb;}.cls-14,.cls-23,.cls-3,.cls-8{fill:#fff;}.cls-4{fill:#e6e6e6;}.cls-5{fill:#f5f5f5;}.cls-6{fill:#145d86;}.cls-7{opacity:0.3;}.cls-8{opacity:0.8;}.cls-9{opacity:0.5;}.cls-10,.cls-11,.cls-12,.cls-13,.cls-15,.cls-20,.cls-21,.cls-22{fill:none;}.cls-10,.cls-11,.cls-12,.cls-20{stroke:#263238;}.cls-10,.cls-11,.cls-20,.cls-21{stroke-linejoin:round;}.cls-10,.cls-11{stroke-width:2px;}.cls-11,.cls-20,.cls-21{stroke-linecap:round;}.cls-12,.cls-13,.cls-15,.cls-22{stroke-miterlimit:10;}.cls-13,.cls-22{stroke:#145d86;}.cls-14,.cls-23{opacity:0.6;}.cls-15,.cls-21{stroke:#000;}.cls-15{opacity:0.1;}.cls-16{fill:#263238;}.cls-17{fill:#eec1bb;}.cls-18,.cls-21{opacity:0.2;}.cls-19{fill:#d8847c;}.cls-20,.cls-21{stroke-width:0.5px;}.cls-22{stroke-width:0.25px;}.cls-23{isolation:isolate;}</style></defs><g id="Layer_2" data-name="Layer 2"><g id="Character"><rect class="cls-1" x="407.5" y="171.1" width="47.5" height="89.55"/><rect class="cls-2" x="396.8" y="171.1" width="55.8" height="89.55"/><rect class="cls-3" x="405.3" y="179" width="38.8" height="73.64"/><path class="cls-1" d="M396.8,171.1c.7,0,8.5,7.9,8.5,7.9h38.8l8.5-7.9Z"/><path class="cls-1" d="M452.6,260.6c-.7,0-8.5-7.9-8.5-7.9H405.3l-8.5,7.9Z"/><rect class="cls-1" x="418.6" y="198.2" width="13.8" height="21.83"/><path class="cls-1" d="M443.9,286.8H263.2a5.9,5.9,0,0,1-5.9-5.9V17.6a5.8,5.8,0,0,1,5.9-5.8H443.9a5.8,5.8,0,0,1,5.9,5.8V280.9A5.9,5.9,0,0,1,443.9,286.8ZM263.2,12a5.6,5.6,0,0,0-5.6,5.6V280.9a5.6,5.6,0,0,0,5.6,5.6H443.9a5.6,5.6,0,0,0,5.6-5.6V17.6a5.6,5.6,0,0,0-5.6-5.6Z"/><path class="cls-1" d="M235.5,286.8H54.7a5.9,5.9,0,0,1-5.8-5.9V17.6a5.8,5.8,0,0,1,5.8-5.8H235.5a5.9,5.9,0,0,1,5.9,5.8V280.9A6,6,0,0,1,235.5,286.8ZM54.7,12a5.7,5.7,0,0,0-5.6,5.6V280.9a5.7,5.7,0,0,0,5.6,5.6H235.5a5.6,5.6,0,0,0,5.6-5.6V17.6a5.6,5.6,0,0,0-5.6-5.6Z"/><rect class="cls-1" y="347.8" width="500" height="0.25"/><rect class="cls-1" x="51.7" y="362.1" width="16.1" height="0.25"/><rect class="cls-1" x="170.4" y="359.4" width="53.5" height="0.25"/><rect class="cls-1" x="68.7" y="371.4" width="36.2" height="0.25"/><rect class="cls-1" x="378.4" y="359.3" width="43.2" height="0.25"/><rect class="cls-1" x="430.5" y="359.3" width="6.3" height="0.25"/><rect class="cls-1" x="316.2" y="365.5" width="53.9" height="0.25"/><rect class="cls-4" x="33.7" y="67.7" width="34.7" height="11.53"/><rect class="cls-5" x="51" y="79.2" width="34.7" height="11.53"/><rect class="cls-4" x="376.8" y="104" width="34.7" height="11.53"/><rect class="cls-5" x="394.2" y="115.5" width="34.7" height="11.53"/><rect class="cls-4" x="34.9" y="317.1" width="34.7" height="11.53"/><rect class="cls-5" x="52.3" y="328.6" width="34.7" height="11.53"/><rect class="cls-5" x="145.1" y="6.3" width="34.7" height="11.53"/><rect class="cls-5" x="33.7" y="177.3" width="34.7" height="11.53"/><rect class="cls-5" x="431.1" y="302.4" width="34.7" height="11.53"/><rect class="cls-2" x="444.7" y="313.9" width="34.7" height="11.53"/><rect class="cls-5" x="309.9" width="34.7" height="11.53"/><rect class="cls-2" x="323.5" y="11.5" width="34.7" height="11.53"/><path class="cls-5" d="M458.9,410.3c0,3.4-93.5,6.1-208.9,6.1s-208.9-2.7-208.9-6.1,93.5-6.1,208.9-6.1S458.9,406.9,458.9,410.3Z"/><rect class="cls-6" x="406.7" y="66.6" width="47.4" height="89.36"/><rect class="cls-7" x="406.7" y="66.6" width="47.4" height="89.36"/><rect class="cls-6" x="396.1" y="66.6" width="55.7" height="89.36"/><rect class="cls-3" x="404.5" y="74.6" width="38.7" height="73.49"/><path class="cls-7" d="M396.1,66.6c.7,0,8.4,8,8.4,8h38.8l8.5-8Z"/><path class="cls-7" d="M451.8,156c-.7,0-8.5-7.9-8.5-7.9H404.6l-8.5,7.9Z"/><rect class="cls-6" x="417.8" y="93.7" width="13.8" height="21.78"/><rect class="cls-6" x="119.3" y="42" width="239.1" height="365.69"/><rect class="cls-8" x="119.3" y="42" width="239.1" height="365.69"/><path class="cls-9" d="M142.2,50.9a2.1,2.1,0,0,1-2.1,2.1,2.1,2.1,0,0,1-2.1-2.1,2.2,2.2,0,0,1,2.1-2.1A2.1,2.1,0,0,1,142.2,50.9Z"/><path class="cls-9" d="M164.3,50.9a2.1,2.1,0,0,1-2.1,2.1,2.1,2.1,0,0,1-2.1-2.1,2.1,2.1,0,0,1,2.1-2.1A2.2,2.2,0,0,1,164.3,50.9Z"/><path class="cls-9" d="M186.3,50.9a2.1,2.1,0,0,1-2.1,2.1,2.1,2.1,0,0,1-2.1-2.1,2.2,2.2,0,0,1,2.1-2.1A2.1,2.1,0,0,1,186.3,50.9Z"/><path class="cls-9" d="M208.4,50.9a2.1,2.1,0,0,1-2.1,2.1,2.1,2.1,0,0,1-2.1-2.1,2.1,2.1,0,0,1,2.1-2.1A2.2,2.2,0,0,1,208.4,50.9Z"/><path class="cls-9" d="M230.4,50.9a2.1,2.1,0,0,1-2.1,2.1,2.1,2.1,0,0,1-2.1-2.1,2.2,2.2,0,0,1,2.1-2.1A2.1,2.1,0,0,1,230.4,50.9Z"/><path class="cls-9" d="M252.5,50.9a2.1,2.1,0,0,1-2.1,2.1,2.1,2.1,0,0,1-2.1-2.1,2.1,2.1,0,0,1,2.1-2.1A2.2,2.2,0,0,1,252.5,50.9Z"/><path class="cls-9" d="M274.5,50.9a2.1,2.1,0,0,1-2.1,2.1,2.1,2.1,0,0,1-2.1-2.1,2.2,2.2,0,0,1,2.1-2.1A2.1,2.1,0,0,1,274.5,50.9Z"/><path class="cls-9" d="M296.6,50.9a2.1,2.1,0,0,1-4.2,0,2.1,2.1,0,0,1,4.2,0Z"/><path class="cls-9" d="M318.7,50.9a2.1,2.1,0,0,1-2.2,2.1,2.1,2.1,0,0,1-2.1-2.1,2.2,2.2,0,0,1,4.3,0Z"/><path class="cls-9" d="M340.7,50.9a2.1,2.1,0,1,1-4.2,0,2.1,2.1,0,1,1,4.2,0Z"/><path class="cls-10" d="M140.3,50.9a9.2,9.2,0,1,1,9.1-9.1"/><path class="cls-10" d="M162.5,50.9a9.2,9.2,0,1,1,9.1-9.1"/><path class="cls-10" d="M184.7,50.9a9.2,9.2,0,1,1,9.2-9.1"/><path class="cls-10" d="M206.9,50.9a9.2,9.2,0,1,1,9.2-9.1"/><path class="cls-10" d="M229.2,50.9a9.2,9.2,0,1,1,9.1-9.1"/><path class="cls-10" d="M251.4,50.9a9.2,9.2,0,1,1,9.1-9.1"/><path class="cls-10" d="M273.6,50.9a9.2,9.2,0,1,1,9.1-9.1"/><path class="cls-10" d="M295.8,50.9a9.2,9.2,0,1,1,9.1-9.1"/><path class="cls-10" d="M318,50.9a9.2,9.2,0,1,1,9.1-9.1"/><path class="cls-10" d="M340.2,50.9a9.2,9.2,0,1,1,9.2-9.1"/><polygon class="cls-6" points="378.8 407.7 358.4 407.7 358.4 42 368.6 42 378.8 407.7"/><path class="cls-11" d="M199.1,115.5H326.8"/><path class="cls-11" d="M198.8,123.6H326.5"/><path class="cls-11" d="M198.8,131.7h61.4"/><rect class="cls-12" x="165.8" y="111.1" width="20.9" height="20.95"/><polygon class="cls-6" points="178.9 129.9 167.5 121.4 170.4 117.4 178.1 123.1 188.6 110.5 192.4 113.7 178.9 129.9"/><path class="cls-11" d="M200.2,157.1H328"/><path class="cls-11" d="M199.9,165.1H327.7"/><path class="cls-11" d="M199.9,173.3h61.5"/><rect class="cls-12" x="165.8" y="154.7" width="20.9" height="20.95"/><polygon class="cls-6" points="178.9 173.5 167.5 164.9 170.4 160.9 178.1 166.7 188.6 154.1 192.4 157.3 178.9 173.5"/><path class="cls-11" d="M199.2,199.2H327"/><path class="cls-11" d="M198.9,207.3H326.7"/><path class="cls-11" d="M198.9,215.4h61.5"/><rect class="cls-12" x="165.8" y="198.2" width="20.9" height="20.95"/><polygon class="cls-6" points="178.9 217 167.5 208.5 170.4 204.5 178.1 210.2 188.6 197.6 192.4 200.8 178.9 217"/><path class="cls-11" d="M199.2,242.5H327"/><path class="cls-11" d="M198.9,250.5H326.7"/><path class="cls-11" d="M198.9,258.7h61.5"/><rect class="cls-12" x="165.8" y="241.5" width="20.9" height="20.95"/><path class="cls-11" d="M199.2,286H327"/><path class="cls-11" d="M198.9,294.1H326.7"/><path class="cls-11" d="M198.9,302.2h61.5"/><rect class="cls-12" x="165.8" y="285" width="20.9" height="20.95"/><path class="cls-11" d="M199.2,329.6H327"/><path class="cls-11" d="M198.9,337.6H326.7"/><path class="cls-11" d="M198.9,345.8h61.5"/><rect class="cls-12" x="165.8" y="328.6" width="20.9" height="20.95"/><path class="cls-13" d="M145.4,42V407.9"/><polygon class="cls-14" points="378.8 407.7 358.4 407.7 358.4 42 368.6 42 378.8 407.7"/><path class="cls-15" d="M119.3,80.4H358.8"/><path class="cls-15" d="M119.3,99.8H358.8"/><path class="cls-15" d="M119.3,119.3H358.8"/><path class="cls-15" d="M119.3,138.8H358.8"/><path class="cls-15" d="M119.3,158.2H358.8"/><path class="cls-15" d="M119.3,177.7H358.8"/><path class="cls-15" d="M119.3,197.2H358.8"/><path class="cls-15" d="M119.3,216.6H358.8"/><path class="cls-15" d="M119.3,236.1H358.8"/><path class="cls-15" d="M119.3,255.6H358.8"/><path class="cls-15" d="M119.3,275H358.8"/><path class="cls-15" d="M119.3,294.5H358.8"/><path class="cls-15" d="M119.3,313.9H358.8"/><path class="cls-15" d="M119.3,333.4H358.8"/><path class="cls-15" d="M119.3,352.9H358.8"/><path class="cls-15" d="M119.3,372.3H358.8"/><path class="cls-15" d="M119.3,391.8H358.8"/><rect class="cls-6" x="175.3" y="78.6" width="151.2" height="7.12"/><path class="cls-16" d="M407.9,371.3c0-.4-1.5-42.1-8.4-48.7s-14.5-.3-14.8,0l-.7-.8c.1-.1,8.8-7.1,16.2,0s8.7,47.7,8.8,49.5Z"/><path class="cls-16" d="M408.5,379.5c-.1-.5-4.8-50.1,13.7-70.9l.8.7c-18.1,20.5-13.5,69.6-13.5,70.1Z"/><path class="cls-16" d="M407.8,374.3h-1.1c0-.6,3.6-56.4-9.9-68.6l.7-.8C411.4,317.4,407.9,371.9,407.8,374.3Z"/><path class="cls-16" d="M409.5,374.2h-1c0-1.5.4-37.7,10.9-43.6a7.5,7.5,0,0,1,6.8-.6c6.3,2.6,9.5,13.6,9.6,14.1l-1,.3c-.1-.2-3.2-11.1-9-13.4a6.3,6.3,0,0,0-5.9.6C410,337.1,409.6,373.8,409.5,374.2Z"/><path class="cls-16" d="M405.5,374.2h-1.1c0-.3,1.6-28.6-6.2-38.5-1.9-2.5-4-3.6-6.1-3.5-5.2.4-9.4,7.7-9.5,7.8l-.9-.5c.2-.4,4.6-7.9,10.3-8.3,2.5-.2,4.9,1.1,7,3.8C407.1,345.3,405.5,373.1,405.5,374.2Z"/><path class="cls-16" d="M407.2,378.1c-.2-2.8-5.1-67.3,3.5-78.7l.8.6c-8.3,11.1-3.3,77.3-3.2,78Z"/><path class="cls-6" d="M430.1,333.6s-5.5,1.9-3.6,6.2c5.2,12,17.7,13.3,17.7,13.3s5.9-9.1,1.1-16.1C438.6,327.2,430.2,330.4,430.1,333.6Z"/><path class="cls-6" d="M406.1,328.2s5.5-.3,5.8,4.4S400,350,400,350s-8.7-3.1-6.8-14.6S404.7,325.3,406.1,328.2Z"/><path class="cls-6" d="M408.8,301.2a4.4,4.4,0,0,1-3.2-2.3c-2.6-6.1,6.3-12.6,18.2-9.2,0,0,.3,10.3-6.1,14.3S408.8,301.2,408.8,301.2Z"/><path class="cls-6" d="M396.8,308a5.4,5.4,0,0,1-3.4,3.8c-8.3,2.6-15.9-9.3-10.1-24,0,0,13.5.7,18.2,9.2S396.8,308,396.8,308Z"/><path class="cls-6" d="M388.4,332.9s1.9-2.5-1-2.8-15.4,5.3-12.1,17.8c0,0,16.1-5.1,16.7-10.4S388.4,332.9,388.4,332.9Z"/><path class="cls-6" d="M422.7,305.7a5.7,5.7,0,0,1,3.5-3.3c2.7-1,12.8-.4,13,12.6,0,0-15.6,2.5-17.5-2.4S422.7,305.7,422.7,305.7Z"/><path class="cls-6" d="M414.3,316.5a2.4,2.4,0,0,1,3.1-.9,9.2,9.2,0,0,1,2.2,14.1s-10.4-6.2-9.6-10.5S414.3,316.5,414.3,316.5Z"/><path class="cls-6" d="M388.7,319.6s1.5-2-.7-2.2-12.1,2.4-9.8,12c0,0,12-.8,12.6-4.9S388.7,319.6,388.7,319.6Z"/><polygon class="cls-16" points="425.8 407.4 391.1 407.4 387.4 370.2 429.5 370.2 425.8 407.4"/><rect class="cls-16" x="385.6" y="366.1" width="45.8" height="8.19"/><polygon class="cls-7" points="387.8 374.3 429.1 374.3 428.7 378.1 388.2 378.1 387.8 374.3"/><path class="cls-17" d="M100.8,244.1,80.7,333.8l-16.3,68L55.8,399a135.9,135.9,0,0,1,1.3-49.5c1.3-6.1,4.6-12.5,5.3-17.4s-1.8-14-1.3-24c.5-12-1.3-24.5,2.7-36,0,0-2.9-12.9,4.8-29Z"/><path class="cls-6" d="M79.4,405.6c-7.6-1.8-11.4-3.3-12.6-6.5s2.2-10,2.4-13.1a1,1,0,0,0-.9-1.1l-14.5.2c0,.3.3,6.2.6,10.6a20.8,20.8,0,0,1-.2,3.5l-1.4,9.2a1.4,1.4,0,0,0,.9,1.8H76.1C80.2,410.3,81.1,406,79.4,405.6Z"/><path class="cls-17" d="M112.1,242.9l-28.7,7C80.1,266.7,93,279,93,279c-.8,11.4,2.3,26.1,5.2,37.1,2.5,9.1,4.2,11.6,4.8,15.6s-.8,11.3-.4,17.1c1.6,25.2,7.9,53,7.9,53l8.5-.6,5.9-73.9Z"/><path class="cls-6" d="M133.3,405.6c-7.6-1.8-11.4-3.3-12.6-6.5s1.2-10.3,1.4-13.3a1,1,0,0,0-.9-1.1l-14.6.2a107.6,107.6,0,0,1,1.7,10.8,20.8,20.8,0,0,1-.2,3.5l-1.5,9.2a1.5,1.5,0,0,0,1,1.8H130C134.1,410.3,134.9,406,133.3,405.6Z"/><path class="cls-6" d="M115.8,247.9c-1.8-6.3-3.7-15.9-5.1-21.4H73.2s-12,8.1-12.9,32.6c-.4,10-4.1,22.8-4.5,34l33.4,6.5,6.6-30.1Z"/><polygon class="cls-6" points="115.8 247.9 124.6 292.9 94.3 299.6 91.1 281.4 91.4 264.7 115.8 247.9"/><polygon class="cls-7" points="92.2 287.3 97.2 264.4 104.7 257.9 99.6 268.7 94.3 299.6 92.2 287.3"/><path class="cls-17" d="M116.6,195.1l3.5,19.4,17.6-6.9,4.4,6.3s-19.5,20.3-30.3,17.4c-6.1-1.7-4.8-32.2-4.8-32.2Z"/><path class="cls-16" d="M107.1,175.6a9.4,9.4,0,0,1,4,3c1.9,2.5,11.5,17.2,11.5,17.2l-15,7Z"/><path class="cls-7" d="M113.1,200.2a59.1,59.1,0,0,0,0-7.7,20.5,20.5,0,0,0-1.7-6.5s3,3.9,3.8,7.1l1.4,5.5Z"/><path class="cls-16" d="M102.9,174.2l4.2,1.4s6,12.9,6,18.2-2.5,34.1-2.5,34.1L73,227.1,70.9,214l-2.8-17.9s5.5-10.2,3.2-19.6l2.3-1.2Z"/><path class="cls-17" d="M137.8,214.1c3.3,3,9.8-2,9.8-2l4-2.2a3,3,0,0,0,1.5-3.7l-1.2-3.6h0a3.2,3.2,0,0,0-4.1-1.9l-4.1,1.5a8,8,0,0,0-2.2,1.3l-5.9,5.4Z"/><path class="cls-17" d="M144.4,201.8c.8-.5,4.9-1.6,7-2.4s4.8-1.6,5.6-1.8,1.4,1.2.8,2.1-4.7,2.3-6.1,2.9-3.8,1.8-3.7,2.6S143.6,202.3,144.4,201.8Z"/><path class="cls-16" d="M71.4,140.8A35.4,35.4,0,0,0,70,151.5c-.1,4.1,1.4,7.9.3,12s-2.7,13.1,3,15.8a9,9,0,0,0,4.6.4c5.5-.7,10.7-3.1,16.2-4s14.9,2,21.3-.8c2.4-1,4.7-5.7,4.9-8.6s-2.8-5.5-4.4-8-4.2-4.2-4.6-6.4c-.1-4.3,2.1-7.2.2-14.6-1.1-3.6-4.5-8.4-8.2-9.8-8.3-3.2-16.4,1.9-16.4,1.9C79.6,128.7,73.5,134,71.4,140.8Z"/><path class="cls-17" d="M95.4,171.1c-1.2-1.2-1.4-2.1-1.2-3.9a15.6,15.6,0,0,1,1.1-4.1l-1.8-2L84,152.4c.5,6.1,2.2,15.9-2.5,19.4a82.3,82.3,0,0,1-8.1,3.3c1.6,1.2,16.8,17.8,25.9,16.7s4.8-16.7,3.3-19C100.2,172.2,97.7,171.5,95.4,171.1Z"/><path class="cls-18" d="M94.2,168c-2.6-.6-6.3-2.3-7-5.3a12.4,12.4,0,0,1-.2-3.2l7.7,4.8C94.7,165.5,94,166.3,94.2,168Z"/><path class="cls-17" d="M80.2,142.7c1.3,9.3,1.6,13.2,6.7,17.9,7.5,7,18.5,4,20-5.3s-1-22.1-10.3-25.6S78.9,133.5,80.2,142.7Z"/><path class="cls-16" d="M92.1,145.9c0,.8.5,1.6,1.1,1.6s1.1-.6,1.1-1.5a1.6,1.6,0,0,0-1.1-1.7C92.6,144.3,92.1,145,92.1,145.9Z"/><path class="cls-16" d="M90.6,142.6H91a3.3,3.3,0,0,1,3-1,.5.5,0,0,0,.5-.4c0-.2-.1-.5-.4-.5a4.2,4.2,0,0,0-3.8,1.2.5.5,0,0,0,0,.7Z"/><path class="cls-16" d="M104.1,140l.3-.2a.4.4,0,0,0-.3-.6,4.3,4.3,0,0,0-4.2-.1.4.4,0,0,0-.1.6.5.5,0,0,0,.6.2,3.8,3.8,0,0,1,3.4,0Z"/><path class="cls-19" d="M99.1,144.4a32.9,32.9,0,0,0,3.3,5.5.7.7,0,0,1-.3,1.1,4.6,4.6,0,0,1-2.5.2Z"/><path class="cls-16" d="M93,144.3l2.1-.4S93.6,145.4,93,144.3Z"/><path class="cls-16" d="M101.7,145.3c0,.8.5,1.6,1.1,1.6s1.1-.6,1.1-1.5a1.6,1.6,0,0,0-1.1-1.7C102.2,143.7,101.7,144.4,101.7,145.3Z"/><path class="cls-16" d="M102.6,143.7l2.1-.4S103.2,144.8,102.6,143.7Z"/><path class="cls-20" d="M98.1,155.2a4.5,4.5,0,0,1-4.2-2.3"/><path class="cls-16" d="M77.1,128.8a9.6,9.6,0,0,1-2.5-4.5,8.8,8.8,0,0,0,6,2.7,5.1,5.1,0,0,1-.4-6.8,5.7,5.7,0,0,1,6.8-1.3c2.2,1.1,3.6,4.4,3.3,6.9s-1.3,6.4-6.6,6.6a10.7,10.7,0,0,1-11.2-5.9A11.1,11.1,0,0,0,77.1,128.8Z"/><path class="cls-16" d="M83.2,157.7c-9.1-5.9-8.8-28.4,7.5-29.8S107,146.1,107,146.1c-2.9-18-18.8-11.6-18.8-11.6,3.1,7.2-3.2,11.9-3.2,11.9C82.8,151.4,83.2,157.7,83.2,157.7Z"/><path class="cls-17" d="M77.8,150.4a7,7,0,0,0,4.6,3.3c2.5.5,3.6-3.5,2.7-5.9a5.2,5.2,0,0,0-5.8-3C77,145.4,76.4,148.3,77.8,150.4Z"/><path class="cls-21" d="M81.1,147.1a1.5,1.5,0,0,0-1.8.9c-.3.8.1,2.6,2.6,3.2"/><path class="cls-22" d="M78.3,156a3.1,3.1,0,0,0,3.5,2.6,3.1,3.1,0,0,0-.8-6.2A3.2,3.2,0,0,0,78.3,156Z"/><path class="cls-1" d="M107.6,244.6s5.3-16.9-7.9-21c-8.1-2.6-10.9.7-10.9.7l1.9,16c5.4,6.4,14.9,9.5,21.8,10.6C117.5,251.7,107.6,244.6,107.6,244.6Z"/><path class="cls-3" d="M93.1,200c-.5,6.1,12,8.9,16.1,8.1,0,0,4.3,5,7.4,3.2,1.3-.7-2.4-3.1-4-5.5s-8.1-3.6-9.5-6.7C100.7,193.8,93.7,193,93.1,200Z"/><path class="cls-3" d="M83.8,201.3c-5.3,16.4-8.9,33.6-2.9,40.2s12.9,12.6,20.2,13.6c5.4.6-5.3-8.7-5.3-8.7s20.1-8.5,4.8-20.3c3.8-5.4.9-19.9,2-25.6S88.8,185.9,83.8,201.3Z"/><path class="cls-16" d="M98.1,180.9c-.4-1.4,3.9-1.9,6.4-4.6,1.5,2.6-2.2,8.3-2.2,8.3S98.9,183.6,98.1,180.9Z"/><path class="cls-3" d="M87.8,194.8c-.2-3-2.8-6.1-.9-10.8a10.4,10.4,0,0,1,10.8-6.3,9.3,9.3,0,0,1,8,8.7c.4,4.2-5.4,8.1-4.7,12.1S87.8,194.8,87.8,194.8Z"/><path class="cls-1" d="M99,178c-1.3,1.4,3,3.7,5.1,3.7A9.1,9.1,0,0,0,99,178Z"/><path class="cls-3" d="M81.3,279.7h-.1c-2.5,0-4.7-1.6-6-4.4a1.4,1.4,0,1,1,2.5-1.1c.8,1.9,2.1,2.9,3.6,2.9a4.9,4.9,0,0,0,4.2-3c1.8-3.6.6-8.7-3.2-13.6-6.9-8.8-6.9-15.3-5.6-19.1a9.6,9.6,0,0,1,5.6-6.5,1.3,1.3,0,1,1,.7,2.5h0c-1,.3-2.9,1.9-3.8,4.8s-1,8.8,5.2,16.8c4.4,5.6,5.8,11.7,3.5,16.3A7.5,7.5,0,0,1,81.3,279.7Z"/><path class="cls-1" d="M81.3,279.7a6.6,6.6,0,0,1-6-4.4,1.3,1.3,0,0,1,.8-1.7,1.7,1.7,0,0,1,1.6.6c1,2.3,2.8,3.4,4.7,2.8a1.2,1.2,0,0,1,1.6.8,1.3,1.3,0,0,1-.8,1.7Z"/><path class="cls-16" d="M91.2,180.7c.4-1.5-3.8-2-6.3-4.7-1.5,2.6,2.2,8.3,2.2,8.3S90.5,183.4,91.2,180.7Z"/><path class="cls-23" d="M90.9,181.8c-.5,0-2.5.9-5.5-3.8-.7,2.1,2.5,6.4,2.5,6.4A3.3,3.3,0,0,0,90.9,181.8Z"/><path class="cls-16" d="M99,180.3a3.4,3.4,0,0,1,3.1.1c.5.4-.4,1.2-1,1.2S98.2,180.7,99,180.3Z"/><path class="cls-16" d="M99.8,183.6a5.7,5.7,0,0,1-2.8-.8.1.1,0,0,1,0-.2h.2c2.1,1.1,3.3.9,3.8.4a1.5,1.5,0,0,0,0-1.6c-.1,0-.1-.1,0-.2h.2a1.7,1.7,0,0,1,0,1.9A1.9,1.9,0,0,1,99.8,183.6Z"/><path class="cls-16" d="M103.4,183.7a4.9,4.9,0,0,1-2.2-1c0-.1-.1-.2,0-.3h.2c.7.5,1.9,1.2,2.2,1s.1-.4.1-.6,0-.1.1-.2h.2c.1.4,0,.7-.2.8Z"/><path class="cls-16" d="M96.2,178.6c-.7-.5-2.3,0-2.4.8S97.4,179.6,96.2,178.6Z"/><path class="cls-16" d="M101,178.9c.7-.3,1.9.5,1.8,1.2S99.8,179.4,101,178.9Z"/><path class="cls-16" d="M99.3,181.5c0,.1,0,.2-.1.2h0l-.3-.2h.4Z"/><path class="cls-16" d="M98,181.1c.1,0,0,.1,0,.1h-.1l-.2-.2c-.1-.1-.1-.1,0-.2h.1Z"/><path class="cls-16" d="M98.5,182c.1.1.1.1,0,.2h-.1l-.2-.2c-.1,0,0-.1,0-.1h.1Z"/><path class="cls-16" d="M103.4,181.5c.1.1,0,.1,0,.1h-.1l-.2-.2c-.1-.1-.1-.1,0-.2h.1Z"/><path class="cls-16" d="M102.7,182h-.4v-.2h.1Z"/><path class="cls-17" d="M62,182.3s-11.5,38.2-3.3,44.9,13.6-.1,18.3-2.3S92.3,216,92.3,216l-4.1-7.3-18,5.5,6.2-24.1-3.5-14.9C67.8,175.4,64,177.5,62,182.3Z"/><path class="cls-17" d="M105.5,210a1.8,1.8,0,0,0-.7-1.6s0-1.2-1.8-2.4-5.5-1.6-5.5-1.6,1-.8.8-1.7-3.1.4-3.1.4a29.7,29.7,0,0,0-4.7,2.4c-1.1,1-2.9,4.7-2.9,4.7l3.3,6.6c1.3-.1,2.5-1.4,3.3-2.4a9.4,9.4,0,0,1,4.9-2.6,10,10,0,0,1,3.2.8c1,.3,1.1-.1,1.1-.4s.2.2.7.1.7-1.4.7-1.4S105.2,210.9,105.5,210Z"/><path class="cls-21" d="M97.5,204.4a7.3,7.3,0,0,0-5.5,1.8"/><path class="cls-21" d="M103.4,212.2s.1-.7-1.2-1.3a8.2,8.2,0,0,0-4.6-.8"/><path class="cls-21" d="M104.8,210.7a1.2,1.2,0,0,0-.4-.8,4.1,4.1,0,0,0-1.4-1,9.9,9.9,0,0,0-4.1-1"/><path class="cls-21" d="M99,206.1s3.9.3,5.8,2.3"/><path class="cls-16" d="M68.9,175.4a11.8,11.8,0,0,0-7.4,7.5c-2.1,5.9-4.8,17.9-4.8,17.9l16.7,8.6,3.2-20.2-3.1-14.4Z"/><path class="cls-16" d="M86.9,198c-3.4,5,5,13.9,8.2,16.4,0,0-.8,6.6,2.5,7.7,1.4.5.8-3.9,1.6-6.7s-2.3-9.3-2.3-12.6C97,196.9,90.9,192.1,86.9,198Z"/></g></g></svg>