<svg xmlns="http://www.w3.org/2000/svg" version="1.1" xmlns:xlink="http://www.w3.org/1999/xlink" width="512" height="512" x="0" y="0" viewBox="0 0 32 32" style="enable-background:new 0 0 512 512" xml:space="preserve" class=""><g><g data-name="Layer 2"><circle cx="16" cy="16" r="13.75" fill="#00b5e5" opacity="1" data-original="#00b5e5" class=""></circle><circle cx="16" cy="16" r="10.75" fill="#ecf0f9" opacity="1" data-original="#ecf0f9" class=""></circle><g fill="#232323"><path d="M12.001 18.75a.75.75 0 0 1-.336-1.42l3.821-1.912 3.89-5.834a.75.75 0 0 1 1.248.832l-4 6a.75.75 0 0 1-.29.255l-4 2a.745.745 0 0 1-.333.079z" fill="#232323" opacity="1" data-original="#232323" class=""></path><path d="M16 29.75A13.75 13.75 0 1 1 29.75 16 13.766 13.766 0 0 1 16 29.75zm0-26A12.25 12.25 0 1 0 28.25 16 12.264 12.264 0 0 0 16 3.75z" fill="#232323" opacity="1" data-original="#232323" class=""></path><path d="M16 26.75A10.75 10.75 0 1 1 26.75 16 10.762 10.762 0 0 1 16 26.75zm0-20A9.25 9.25 0 1 0 25.25 16 9.26 9.26 0 0 0 16 6.75z" fill="#232323" opacity="1" data-original="#232323" class=""></path><circle cx="16" cy="16" r="1.5" fill="#232323" opacity="1" data-original="#232323" class=""></circle></g></g></g><svg xmlns="http://www.w3.org/2000/svg" version="1.1" xmlns:xlink="http://www.w3.org/1999/xlink" width="512" height="512" x="0" y="0" viewBox="0 0 32 32" style="enable-background:new 0 0 512 512" xml:space="preserve" class=""><g><g data-name="Layer 2"><circle cx="16" cy="16" r="13.75" fill="#00b5e5" opacity="1" data-original="#00b5e5" class=""></circle><circle cx="16" cy="16" r="10.75" fill="#ecf0f9" opacity="1" data-original="#ecf0f9" class=""></circle><g fill="#232323"><path d="M12.001 18.75a.75.75 0 0 1-.336-1.42l3.821-1.912 3.89-5.834a.75.75 0 0 1 1.248.832l-4 6a.75.75 0 0 1-.29.255l-4 2a.745.745 0 0 1-.333.079z" fill="#232323" opacity="1" data-original="#232323" class=""></path><path d="M16 29.75A13.75 13.75 0 1 1 29.75 16 13.766 13.766 0 0 1 16 29.75zm0-26A12.25 12.25 0 1 0 28.25 16 12.264 12.264 0 0 0 16 3.75z" fill="#232323" opacity="1" data-original="#232323" class=""></path><path d="M16 26.75A10.75 10.75 0 1 1 26.75 16 10.762 10.762 0 0 1 16 26.75zm0-20A9.25 9.25 0 1 0 25.25 16 9.26 9.26 0 0 0 16 6.75z" fill="#232323" opacity="1" data-original="#232323" class=""></path><circle cx="16" cy="16" r="1.5" fill="#232323" opacity="1" data-original="#232323" class=""></circle></g></g></g></svg></svg>